{"glyphs":{"0":{"ha":784,"x_min":57,"x_max":727,"o":"m 398 582 q 310 558 349 582 q 244 496 271 534 q 192 309 192 420 q 239 131 192 204 q 380 50 292 50 q 538 131 483 50 q 589 311 589 203 q 540 496 589 418 q 398 582 487 582 m 393 -14 q 245 14 309 -14 q 141 87 182 42 q 57 309 57 178 q 140 528 57 438 q 391 628 233 628 q 643 528 549 628 q 727 306 727 437 q 644 87 727 176 q 393 -14 551 -14 z "},"1":{"ha":504,"x_min":50,"x_max":454,"o":"m 315 85 q 385 35 315 41 q 443 27 431 32 q 454 11 454 22 q 451 -2 454 10 l 52 -2 q 50 13 50 5 q 59 24 50 20 q 84 31 69 28 q 117 36 100 33 q 149 43 134 38 q 184 86 184 55 l 184 522 q 117 572 184 563 q 60 583 71 578 q 50 595 50 588 q 52 610 50 602 l 451 610 q 454 592 454 597 q 444 582 454 586 q 418 575 434 577 q 385 572 403 574 q 351 567 367 571 q 315 522 315 557 l 315 85 z "},"2":{"ha":625,"x_min":72,"x_max":547,"o":"m 353 450 q 245 547 353 547 q 117 519 178 547 q 87 502 99 511 l 72 551 q 236 624 130 607 q 304 629 269 629 q 375 617 340 629 q 436 584 410 606 q 494 461 494 536 q 354 219 494 363 l 238 99 l 399 99 q 488 157 473 100 q 506 205 498 195 q 529 214 514 214 l 547 212 l 513 0 l 90 0 l 82 26 l 274 254 q 345 397 323 313 q 353 450 353 425 z "},"3":{"ha":634,"x_min":77,"x_max":552,"o":"m 94 482 q 83 514 83 494 l 85 525 q 245 621 140 599 q 310 628 277 628 q 376 619 342 628 q 435 591 409 610 q 492 477 492 551 q 444 349 492 401 q 333 293 398 300 q 496 228 437 293 q 552 70 552 167 q 479 -94 552 -26 q 259 -169 396 -169 q 132 -155 169 -169 q 77 -111 77 -134 q 106 -51 77 -68 q 123 -45 115 -45 q 146 -59 131 -45 q 179 -88 161 -72 q 243 -131 227 -131 q 374 -72 326 -131 q 418 58 418 -17 q 376 182 418 132 q 249 237 330 237 q 181 228 218 237 l 151 263 q 377 422 332 323 q 388 474 388 446 q 292 557 388 557 q 205 538 243 557 q 143 506 166 519 q 94 482 121 493 z "},"4":{"ha":679,"x_min":44,"x_max":622,"o":"m 594 121 q 614 85 614 121 q 604 50 614 50 l 505 50 l 505 -87 q 563 -130 505 -121 q 622 -151 622 -138 q 619 -162 622 -157 l 254 -162 q 252 -149 252 -156 q 261 -138 252 -142 q 283 -131 270 -134 q 312 -126 296 -129 q 342 -119 328 -124 q 373 -84 373 -109 l 373 50 l 54 50 l 44 82 l 366 606 q 504 618 421 618 l 504 121 l 594 121 m 373 513 l 133 121 l 373 121 l 373 513 z "},"5":{"ha":602,"x_min":9,"x_max":509,"o":"m 176 -131 q 309 -73 263 -131 q 350 60 350 -22 q 290 220 350 153 q 93 311 222 294 q 75 326 75 315 l 138 610 l 509 610 l 485 518 l 190 518 l 148 370 q 395 282 294 370 q 490 84 490 199 q 416 -90 490 -20 q 192 -169 334 -169 q 65 -155 102 -169 q 9 -111 9 -134 q 39 -51 9 -68 q 56 -45 48 -45 q 79 -59 64 -45 q 112 -88 94 -72 q 176 -131 160 -131 z "},"6":{"ha":702,"x_min":63,"x_max":647,"o":"m 224 494 q 367 529 298 529 q 484 511 435 529 q 570 460 533 494 q 647 262 647 387 q 557 62 647 142 q 357 -14 472 -14 q 132 80 209 -14 q 63 301 63 163 q 170 647 63 482 q 341 808 240 754 q 474 846 412 846 q 489 843 485 846 q 492 830 492 839 q 490 817 492 821 q 465 804 488 813 q 401 765 441 795 q 327 693 362 734 q 224 494 250 603 m 511 265 q 499 363 511 322 q 465 431 487 404 q 342 484 421 484 q 218 447 281 484 q 201 301 201 363 q 214 188 201 240 q 250 102 227 136 q 370 33 294 33 q 469 92 431 33 q 511 265 511 157 z "},"7":{"ha":581,"x_min":35,"x_max":564,"o":"m 564 574 q 310 -205 421 284 l 168 -205 q 467 539 305 292 l 174 520 q 85 444 101 515 q 68 384 75 395 q 54 372 62 372 q 35 375 45 372 l 50 602 l 57 610 l 554 610 l 564 574 z "},"8":{"ha":687,"x_min":56,"x_max":634,"o":"m 131 46 q 112 61 131 46 q 75 112 94 75 q 56 190 56 149 q 71 263 56 231 q 110 325 85 296 q 237 428 150 371 q 143 513 170 477 q 93 645 93 579 q 159 772 93 724 q 350 824 229 824 q 521 769 460 824 q 570 665 570 724 q 488 505 570 577 q 435 462 464 484 q 566 360 532 401 q 634 184 634 279 q 478 4 634 52 q 344 -14 420 -14 q 218 2 269 -14 q 131 46 167 18 m 397 330 q 335 371 368 350 l 321 380 q 203 296 233 323 q 145 193 145 242 q 195 81 145 123 q 334 40 244 40 q 461 86 425 40 q 498 196 498 132 q 397 330 498 261 m 484 669 q 350 774 484 774 q 249 750 284 774 q 214 690 214 726 q 225 630 214 654 q 256 587 236 607 q 357 511 287 554 q 444 578 422 554 q 484 669 484 623 z "},"9":{"ha":735,"x_min":60,"x_max":644,"o":"m 483 121 q 340 85 408 85 q 223 103 272 85 q 137 155 174 121 q 60 353 60 227 q 149 552 60 472 q 350 628 235 628 q 575 534 498 628 q 644 313 644 452 q 536 -33 644 132 q 366 -194 467 -140 q 233 -232 294 -232 q 218 -228 222 -232 q 214 -216 214 -224 q 216 -203 214 -207 q 242 -190 218 -199 q 305 -150 266 -180 q 380 -79 345 -120 q 483 121 456 12 m 195 349 q 208 251 195 292 q 241 183 220 210 q 364 130 286 130 q 489 168 425 130 q 505 313 505 252 q 492 426 505 374 q 457 513 479 478 q 337 581 413 581 q 237 522 276 581 q 195 349 195 458 z "},"\r":{"ha":925,"x_min":0,"x_max":0,"o":""},"\u0000":{"ha":0,"x_min":0,"x_max":0,"o":""}," ":{"ha":326,"x_min":0,"x_max":0,"o":""},"!":{"ha":385,"x_min":104,"x_max":277,"o":"m 104 807 q 104 832 104 807 q 127 873 104 857 q 188 890 150 890 q 252 871 227 890 q 277 818 277 853 q 274 743 277 783 q 265 659 271 703 q 253 566 260 614 q 240 473 247 518 q 226 387 233 428 q 217 329 220 347 q 213 299 214 311 q 210 274 212 287 q 194 241 204 241 q 179 249 183 241 q 172 268 174 257 q 170 289 170 278 q 166 318 169 299 q 158 379 164 338 q 144 467 151 421 q 130 561 137 513 q 117 654 123 608 q 104 807 104 758 m 110 62 q 127 115 110 96 q 192 146 157 146 q 244 129 227 146 q 276 71 276 97 q 269 30 276 45 q 251 4 262 15 q 192 -20 226 -20 q 140 -2 158 -20 q 110 62 110 28 z "},"\"":{"ha":507,"x_min":77,"x_max":430,"o":"m 352 511 q 294 780 320 586 q 292 825 292 803 q 310 865 292 846 q 361 883 328 883 q 412 865 393 883 q 430 814 430 846 q 415 695 430 774 q 391 585 400 616 q 352 511 371 511 m 138 511 q 80 781 106 582 q 77 825 77 804 q 95 865 77 846 q 146 883 113 883 q 197 865 178 883 q 215 822 215 846 q 212 769 215 798 q 203 707 209 741 q 190 638 197 673 q 174 575 182 604 q 138 511 155 511 z "},"#":{"ha":770,"x_min":45,"x_max":729,"o":"m 600 260 l 515 264 q 474 82 492 172 q 436 -101 456 -8 q 374 -162 423 -162 q 332 -121 345 -162 q 330 -103 330 -111 q 336 -68 330 -95 q 354 -5 343 -42 q 378 74 365 32 q 403 155 391 117 q 436 264 429 242 l 251 264 q 210 81 228 172 q 178 -68 191 -9 q 154 -144 165 -127 q 123 -162 142 -162 q 96 -156 104 -162 q 83 -141 88 -150 q 71 -99 71 -122 q 171 264 71 -77 l 119 262 q 45 302 45 262 q 132 342 45 342 q 192 340 132 342 l 224 457 l 163 454 q 83 495 83 454 q 176 535 83 535 l 245 532 q 272 622 258 577 q 297 711 285 666 q 332 892 322 807 q 389 924 335 924 q 425 913 418 924 q 435 880 435 898 q 427 839 435 863 q 409 780 420 814 q 384 706 397 746 q 357 631 370 667 q 324 532 327 543 l 507 532 q 547 697 526 614 q 574 830 567 780 q 585 890 582 880 q 595 909 589 901 q 642 924 609 924 q 694 868 694 924 q 652 720 694 844 q 589 532 594 551 l 644 534 q 729 496 729 534 q 640 454 729 454 l 567 457 l 534 340 l 595 342 q 692 299 692 342 q 600 260 692 260 m 302 457 l 270 340 l 457 340 l 488 457 l 302 457 z "},"$":{"ha":727,"x_min":50,"x_max":631,"o":"m 373 770 q 367 496 369 636 l 471 435 q 600 332 565 379 q 631 221 631 287 q 610 113 631 156 q 551 41 588 69 q 363 -18 481 -12 l 363 -85 q 340 -151 363 -139 q 326 -155 334 -155 q 308 -139 318 -155 q 298 -96 298 -124 l 299 -18 q 50 54 151 -9 l 64 248 q 81 252 77 252 q 89 245 84 252 q 98 231 94 239 q 108 188 104 215 q 129 134 112 160 q 174 87 146 107 q 304 31 227 45 l 304 340 l 210 394 q 99 487 134 437 q 64 596 64 537 q 84 693 64 654 q 138 758 104 732 q 312 814 203 806 q 311 845 311 830 l 311 871 q 317 943 311 922 q 344 964 323 964 q 365 950 359 964 q 374 889 374 925 l 374 840 q 374 814 374 827 q 564 772 478 809 l 584 597 q 564 594 569 594 q 553 600 559 594 q 541 614 547 606 q 527 654 532 631 q 507 699 522 678 q 472 734 492 719 q 373 770 432 762 m 365 307 q 363 24 363 187 q 502 94 467 24 q 513 146 513 118 q 505 194 513 175 q 479 231 496 213 q 365 307 451 258 m 308 772 q 182 711 218 765 q 171 668 171 693 q 243 571 171 614 l 308 532 l 308 772 z "},"%":{"ha":1202,"x_min":78,"x_max":1122,"o":"m 994 83 q 1000 96 994 83 q 1013 146 1006 109 q 1019 232 1019 183 q 1012 323 1019 280 q 991 396 1005 366 q 907 459 962 459 q 812 334 833 459 q 806 246 806 295 q 868 43 806 91 q 917 28 890 28 q 962 42 943 28 q 994 83 981 56 m 702 243 q 758 423 702 350 q 910 498 816 498 q 1065 420 1004 498 q 1122 237 1122 346 q 1067 61 1122 133 q 918 -15 1010 -14 q 760 62 820 -15 q 702 243 702 135 m 333 -94 q 278 -73 302 -94 q 333 23 303 -28 l 692 690 q 725 756 709 720 q 758 827 741 792 q 840 947 800 913 q 903 928 875 947 l 851 840 q 770 700 819 783 q 664 513 722 618 q 414 12 519 248 q 333 -94 390 -37 m 78 644 q 134 825 78 752 q 287 900 193 900 q 441 822 381 900 q 499 638 499 747 q 444 463 499 534 q 295 387 387 389 q 136 464 197 387 q 78 644 78 536 m 371 484 q 377 497 371 484 q 389 548 383 511 q 395 633 395 585 q 389 724 395 682 q 368 798 382 767 q 284 861 339 861 q 189 736 209 861 q 182 648 182 697 q 244 445 182 492 q 293 429 266 429 q 339 444 320 429 q 371 484 358 458 z "},"&":{"ha":996,"x_min":50,"x_max":981,"o":"m 667 564 q 666 581 666 572 q 667 601 666 590 l 945 601 q 945 583 945 591 l 945 566 q 913 553 939 561 q 855 526 865 541 q 798 412 829 486 q 692 201 735 271 q 751 137 723 161 q 812 112 780 112 q 941 216 869 112 l 981 186 q 856 -7 943 31 q 789 -19 829 -19 q 699 13 749 -19 q 608 103 648 45 q 493 17 542 39 q 338 -18 412 -18 q 212 1 264 -18 q 123 53 159 20 q 50 216 50 119 q 106 374 50 305 q 279 514 154 432 q 179 707 179 625 q 260 844 179 788 q 430 897 337 897 q 591 809 550 897 q 605 743 605 779 q 592 685 605 708 q 554 640 579 662 q 408 542 519 608 q 502 431 446 499 q 657 242 604 304 q 745 469 718 349 q 753 502 753 490 q 745 523 753 513 q 725 540 737 532 q 667 564 705 552 m 573 142 q 310 476 411 351 q 212 387 243 430 q 180 297 180 344 q 198 209 180 250 q 245 137 215 168 q 414 69 313 69 q 532 109 478 69 q 573 142 551 122 m 298 787 q 290 741 290 769 q 378 576 290 686 q 474 647 439 611 q 508 726 508 682 q 487 797 508 769 q 405 848 448 848 q 298 787 328 848 z "},"'":{"ha":251,"x_min":56,"x_max":194,"o":"m 117 511 q 60 780 85 584 q 56 825 56 803 q 75 865 56 846 q 125 883 93 883 q 176 865 158 883 q 194 822 194 846 q 191 769 194 798 q 182 707 188 741 q 170 638 177 673 q 153 575 162 604 q 117 511 134 511 z "},"(":{"ha":466,"x_min":100,"x_max":452,"o":"m 416 -182 q 175 54 258 -110 q 100 387 100 201 q 273 857 100 681 q 416 956 332 918 l 452 916 q 250 688 318 837 q 189 387 189 555 q 331 -40 189 126 q 452 -141 381 -98 l 416 -182 z "},")":{"ha":466,"x_min":14,"x_max":366,"o":"m 14 916 q 50 956 22 935 q 292 721 208 884 q 366 387 366 574 q 193 -83 366 94 q 50 -182 134 -144 q 14 -141 22 -161 q 262 232 214 -16 q 277 387 277 308 q 262 542 277 466 q 216 687 247 618 q 14 916 149 832 z "},"*":{"ha":826,"x_min":58,"x_max":767,"o":"m 414 888 q 426 888 414 888 q 457 871 439 888 q 475 825 475 854 q 471 762 475 796 q 462 692 467 727 q 451 623 456 657 q 441 556 445 588 q 473 573 452 562 q 520 600 494 585 q 574 629 546 614 q 629 656 603 644 q 702 684 686 684 q 730 679 718 684 q 749 663 741 673 q 767 620 767 644 q 753 580 767 596 q 718 559 739 564 l 460 503 q 486 475 468 493 q 524 435 503 457 q 568 389 545 413 q 609 340 591 364 q 651 269 651 287 q 646 239 651 251 q 631 219 640 228 q 589 200 611 200 q 530 235 547 200 l 413 471 l 295 235 q 240 200 279 200 q 199 214 214 200 q 174 264 174 238 q 301 435 174 305 q 339 475 322 458 q 366 503 357 493 l 108 559 q 73 580 87 564 q 58 613 58 596 q 63 643 58 631 q 76 663 68 654 q 112 684 94 684 q 151 676 130 684 q 197 656 171 669 q 251 629 222 644 q 306 600 279 614 q 353 573 332 585 q 385 556 374 562 q 374 624 380 589 q 363 694 368 659 q 349 813 349 782 q 355 854 349 844 q 369 872 360 865 q 414 888 389 888 z "},"+":{"ha":745,"x_min":73,"x_max":673,"o":"m 73 419 q 197 433 111 433 l 327 433 l 327 562 q 332 686 327 646 q 368 688 351 688 q 412 686 398 688 q 418 563 418 642 l 418 433 l 547 433 q 671 427 621 433 q 673 387 673 408 q 671 347 673 366 q 547 342 636 342 l 418 342 l 418 214 q 412 90 418 140 q 371 87 392 87 q 332 90 350 87 q 327 214 327 125 l 327 342 l 108 342 q 73 395 75 361 q 73 419 73 406 z "},",":{"ha":382,"x_min":66,"x_max":306,"o":"m 79 -182 q 66 -141 66 -163 q 119 -124 93 -132 q 167 -103 146 -116 q 216 -16 216 -73 q 146 38 197 29 q 80 118 80 49 q 136 203 80 181 q 178 211 153 211 q 226 199 202 211 q 267 164 250 187 q 306 46 306 115 q 287 -61 306 -22 q 237 -127 269 -101 q 79 -182 175 -180 z "},"-":{"ha":524,"x_min":60,"x_max":469,"o":"m 60 273 l 60 359 l 469 359 l 469 273 l 60 273 z "},".":{"ha":377,"x_min":95,"x_max":281,"o":"m 188 170 q 254 142 226 170 q 281 79 281 117 q 254 14 281 41 q 188 -14 227 -14 q 122 14 151 -14 q 95 68 95 40 q 102 114 95 97 q 122 142 109 130 q 188 170 151 170 z "},"/":{"ha":456,"x_min":27,"x_max":444,"o":"m 31 -47 q 27 -12 27 -34 q 47 74 27 22 l 297 739 q 313 789 304 757 q 335 854 323 821 q 390 951 364 937 q 444 935 420 951 q 323 581 399 774 q 204 277 248 388 q 138 100 161 167 q 82 -44 106 11 q 50 -47 68 -47 l 31 -47 z "},":":{"ha":400,"x_min":106,"x_max":294,"o":"m 199 170 q 266 143 239 170 q 294 79 294 115 q 266 14 294 43 q 199 -14 239 -14 q 134 14 162 -14 q 106 68 106 40 q 114 114 106 97 q 134 142 121 130 q 199 170 162 170 m 199 705 q 266 677 239 705 q 294 613 294 650 q 266 549 294 577 q 199 521 239 521 q 134 548 162 521 q 106 603 106 574 q 114 648 106 631 q 134 677 121 665 q 199 705 162 705 z "},";":{"ha":403,"x_min":79,"x_max":317,"o":"m 199 705 q 266 677 239 705 q 294 613 294 650 q 266 549 294 577 q 199 521 239 521 q 134 548 162 521 q 106 603 106 574 q 114 648 106 631 q 134 677 121 665 q 199 705 162 705 m 90 -182 q 79 -141 79 -163 q 132 -124 105 -132 q 179 -102 158 -115 q 227 -16 227 -73 q 158 38 209 29 q 92 118 92 49 q 148 203 92 181 q 190 211 165 211 q 237 199 214 211 q 279 164 261 187 q 317 47 317 116 q 299 -62 317 -22 q 250 -127 281 -101 q 90 -182 187 -180 z "},"<":{"ha":425,"x_min":43,"x_max":368,"o":"m 355 47 q 323 12 355 12 q 273 40 293 12 l 43 375 q 106 462 62 400 q 176 561 149 524 q 228 629 202 597 q 318 724 284 701 q 363 701 348 724 q 368 684 368 694 q 259 525 338 618 q 193 448 226 486 q 132 375 159 410 q 188 303 144 358 q 257 212 231 248 q 305 144 283 176 q 355 47 355 68 z "},"=":{"ha":573,"x_min":89,"x_max":484,"o":"m 150 431 q 89 463 89 431 q 154 494 89 494 l 408 494 q 484 460 484 494 q 427 431 484 431 l 392 432 l 180 432 l 150 431 m 150 267 q 89 299 89 267 q 154 330 89 330 l 408 330 q 484 296 484 330 q 427 267 484 267 l 392 268 l 180 268 l 150 267 z "},">":{"ha":425,"x_min":57,"x_max":381,"o":"m 151 40 q 109 12 132 12 q 69 47 69 12 q 263 338 69 90 q 292 375 283 363 q 232 448 265 410 q 165 525 199 486 q 57 684 87 618 q 90 722 57 711 q 106 724 98 724 q 181 649 140 701 q 249 561 222 597 q 300 490 275 524 q 381 375 362 400 l 151 40 z "},"?":{"ha":547,"x_min":46,"x_max":495,"o":"m 141 128 q 150 137 141 128 q 174 153 159 146 q 206 160 189 160 q 239 153 223 160 q 266 135 254 146 q 292 84 292 111 q 284 42 292 58 q 266 16 277 27 q 206 -9 240 -9 q 154 9 172 -9 q 123 75 123 42 q 141 128 123 109 m 174 243 q 161 316 170 280 q 153 381 153 353 q 171 427 153 410 q 217 462 190 444 q 277 500 245 480 q 338 544 310 519 q 402 667 402 602 q 352 779 402 731 q 239 826 302 826 q 200 813 216 826 q 168 785 183 800 q 136 756 153 769 q 103 743 120 743 q 77 748 86 743 q 61 761 68 753 q 46 803 46 778 q 63 848 46 829 q 106 880 80 868 q 212 901 155 901 q 318 882 269 901 q 407 829 368 862 q 495 658 495 753 q 362 437 495 520 q 254 349 279 385 q 229 269 229 312 l 229 243 l 174 243 z "},"@":{"ha":1220,"x_min":76,"x_max":1129,"o":"m 311 49 q 336 28 311 49 q 430 -12 361 8 q 596 -33 499 -33 q 829 5 692 -33 l 825 -45 q 544 -106 693 -106 q 220 -10 351 -106 q 76 285 76 96 q 160 586 76 448 q 381 798 241 720 q 688 878 524 878 q 1000 768 878 878 q 1129 446 1129 649 q 1106 305 1129 370 q 1059 201 1082 240 q 1006 132 1036 162 q 862 66 942 66 q 773 106 810 66 q 730 196 742 140 q 535 102 655 102 q 389 167 442 102 q 341 323 341 227 q 433 578 341 467 q 671 694 529 694 q 850 551 823 694 q 858 468 858 509 q 854 394 858 427 q 848 328 851 361 q 837 196 837 235 q 881 127 837 127 q 997 323 962 127 q 1008 459 1008 387 q 982 601 1008 530 q 911 716 956 671 q 686 806 825 806 q 463 743 572 806 q 227 441 284 642 q 206 292 206 372 q 234 151 206 212 q 311 49 261 90 m 728 241 q 743 359 734 300 q 751 458 751 418 q 748 526 751 498 q 736 579 745 554 q 657 641 713 641 q 507 533 571 641 q 448 322 448 431 q 510 180 448 214 q 558 168 532 168 q 607 174 585 168 q 651 190 629 180 q 728 241 691 209 z "},"A":{"ha":933,"x_min":-1,"x_max":940,"o":"m 549 420 l 416 754 l 292 420 l 549 420 m 614 63 q 623 68 614 63 q 644 87 632 73 q 656 116 656 102 q 651 148 656 130 q 638 189 646 166 q 621 238 631 212 q 602 288 611 264 q 574 361 579 346 l 269 361 q 258 334 265 351 q 242 293 251 316 q 224 245 233 271 q 208 197 215 220 q 190 121 190 144 q 202 85 190 98 q 231 64 214 72 q 319 39 254 52 l 319 0 l -1 0 l -1 35 q 27 53 13 47 q 56 64 42 58 q 104 104 92 79 q 124 147 117 128 q 139 185 132 166 l 393 835 q 396 850 395 842 q 397 867 396 859 q 406 898 399 889 q 511 866 469 898 l 823 119 q 872 64 839 81 q 905 51 888 56 q 940 35 922 45 l 939 0 l 544 0 l 543 35 q 614 63 597 53 z "},"B":{"ha":940,"x_min":46,"x_max":880,"o":"m 193 694 q 181 783 193 764 q 159 809 170 802 q 131 821 147 817 q 94 832 115 826 q 46 848 73 838 l 47 883 l 433 883 q 693 853 604 883 q 835 661 835 805 q 756 513 835 567 q 590 454 696 472 q 783 400 701 449 q 880 237 880 342 q 764 50 880 113 q 536 0 669 0 l 47 0 l 46 35 q 96 49 71 42 q 144 68 122 56 q 193 150 193 95 l 193 694 m 355 427 q 338 368 338 412 l 338 186 q 376 72 338 106 q 413 59 390 59 l 523 59 q 655 103 603 59 q 710 228 710 151 q 587 401 710 359 q 456 426 520 424 q 355 427 391 427 m 483 475 q 700 640 700 475 q 587 807 700 767 q 467 830 528 829 q 370 832 405 832 l 338 832 l 338 495 q 393 475 360 475 l 483 475 z "},"C":{"ha":967,"x_min":76,"x_max":903,"o":"m 595 55 q 870 206 789 55 l 903 201 l 897 73 q 633 -11 785 10 q 547 -18 587 -18 q 212 102 342 -18 q 76 434 76 227 q 214 764 76 633 q 586 900 357 900 q 868 844 724 900 l 896 640 l 864 638 q 833 683 851 651 q 784 758 799 743 q 567 848 694 848 q 336 748 430 848 q 235 461 235 641 q 332 165 235 275 q 595 55 431 55 z "},"D":{"ha":1088,"x_min":46,"x_max":1025,"o":"m 344 831 l 344 184 q 360 100 344 125 q 444 54 389 57 q 542 52 473 52 q 675 84 610 52 q 781 167 739 116 q 864 413 864 268 q 768 709 864 600 q 458 831 662 831 l 344 831 m 198 685 q 171 800 198 779 q 103 833 142 823 q 46 848 64 842 l 47 883 l 449 883 q 981 650 854 883 q 1025 464 1025 566 q 994 280 1025 361 q 902 138 963 200 q 535 0 766 0 l 47 0 l 46 35 q 97 48 71 43 q 146 64 124 54 q 198 149 198 88 l 198 685 z "},"E":{"ha":940,"x_min":46,"x_max":888,"o":"m 812 890 q 838 887 825 890 l 838 676 l 802 675 q 777 711 786 690 q 760 754 768 733 q 738 793 751 775 q 702 818 725 810 q 650 829 679 825 q 591 835 622 833 q 495 838 551 838 q 339 831 391 838 q 336 762 336 796 l 336 486 l 532 486 q 630 502 608 486 q 665 537 652 518 q 693 586 677 556 l 703 604 l 742 604 l 742 313 l 703 311 q 658 393 682 370 q 558 435 614 435 l 336 435 l 336 206 q 376 72 336 104 q 491 47 404 47 l 557 47 q 684 60 643 47 q 753 93 726 73 q 794 140 780 112 q 817 191 808 168 q 845 232 827 214 l 888 232 l 843 -6 q 821 -8 831 -8 l 743 0 l 47 0 l 46 33 q 110 56 77 50 q 155 66 143 62 q 175 81 167 70 q 191 181 191 106 l 191 694 q 157 807 191 784 q 113 826 140 819 q 46 848 85 833 l 47 883 l 739 883 l 812 890 z "},"F":{"ha":856,"x_min":46,"x_max":839,"o":"m 343 497 l 488 494 q 648 525 620 494 q 677 571 666 543 q 696 612 688 599 l 736 611 l 736 316 q 697 314 716 314 q 659 387 675 360 q 623 426 642 413 q 579 443 604 439 q 512 446 553 446 l 343 446 l 343 175 q 387 62 343 78 q 444 50 404 56 q 509 35 483 44 l 509 0 l 52 0 l 50 35 q 111 54 75 47 q 160 66 147 62 q 180 83 172 71 q 197 177 197 109 l 197 692 q 186 781 197 760 q 162 809 174 802 q 134 822 151 817 q 95 833 117 827 q 46 848 73 838 l 46 883 l 725 885 l 839 885 l 839 675 l 808 673 q 780 717 792 692 q 753 765 767 742 q 677 828 718 822 q 528 836 627 836 l 398 836 q 355 830 362 836 q 343 787 343 821 l 343 497 z "},"G":{"ha":1069,"x_min":76,"x_max":1054,"o":"m 1053 464 l 1054 429 q 1013 413 1033 420 q 976 395 992 406 q 940 314 940 369 l 940 64 q 590 -18 782 -18 q 217 106 357 -18 q 76 433 76 230 q 151 680 76 570 q 346 842 221 782 q 615 900 469 900 q 913 846 760 900 l 933 641 q 894 639 911 639 q 866 678 880 650 q 827 746 836 736 q 597 848 741 848 q 339 736 441 848 q 238 458 238 625 q 339 160 238 277 q 602 42 440 42 q 783 86 711 42 q 791 222 791 155 q 772 375 791 322 q 715 413 762 403 q 677 420 696 417 q 644 429 658 422 l 644 446 q 646 464 644 456 l 1053 464 z "},"H":{"ha":1156,"x_min":46,"x_max":1110,"o":"m 336 424 l 336 173 q 349 88 336 106 q 375 65 362 70 q 404 56 387 60 q 441 49 404 56 q 486 35 462 45 l 485 0 l 48 0 q 47 18 47 9 q 46 35 46 26 q 109 54 72 46 q 157 67 145 62 q 176 85 168 73 q 190 180 190 109 l 190 704 q 178 788 190 769 q 154 813 166 807 q 126 823 142 819 q 91 832 111 827 q 47 848 71 838 l 48 883 l 484 883 l 486 848 q 424 828 460 836 q 375 814 387 820 q 353 796 362 808 q 336 703 336 772 l 336 483 l 820 483 l 820 710 q 808 789 820 772 q 784 813 795 807 q 757 823 772 819 q 682 848 708 836 l 684 883 l 1109 883 l 1110 848 q 1063 833 1084 838 q 1026 823 1042 828 q 999 811 1010 818 q 980 790 987 804 q 966 699 966 764 l 966 181 q 976 94 966 114 q 998 68 987 75 q 1025 58 1009 62 q 1062 49 1041 54 q 1110 35 1083 45 l 1110 0 l 684 0 l 682 35 q 739 55 707 49 q 783 66 770 62 q 803 81 795 70 q 820 171 820 104 l 820 424 l 336 424 z "},"I":{"ha":547,"x_min":46,"x_max":501,"o":"m 345 176 q 358 90 345 109 q 384 66 371 71 q 415 57 397 60 q 454 50 432 54 q 501 36 475 45 l 500 0 l 49 0 l 49 35 q 114 54 79 50 q 162 63 149 59 q 183 81 174 68 q 199 189 199 107 l 199 699 q 154 819 199 806 q 123 826 140 823 q 46 848 73 833 l 47 883 l 497 883 l 498 848 q 447 833 474 840 q 397 817 420 827 q 345 733 345 791 l 345 176 z "},"J":{"ha":492,"x_min":-39,"x_max":486,"o":"m 132 -170 q 186 4 186 -170 l 186 702 q 173 789 186 770 q 148 815 161 809 q 118 825 135 821 q 79 834 101 829 q 31 848 58 838 l 33 883 l 486 883 l 486 848 q 422 830 458 837 q 373 818 386 823 q 350 800 359 812 q 332 708 332 775 l 332 115 q 179 -212 332 -149 q 110 -226 143 -226 q 53 -222 77 -226 q 9 -208 30 -218 q -39 -140 -39 -185 q -22 -98 -39 -114 q 21 -83 -5 -83 q 61 -96 47 -83 q 83 -126 74 -110 q 102 -157 92 -143 q 132 -170 113 -170 z "},"K":{"ha":995,"x_min":46,"x_max":1015,"o":"m 46 871 q 50 883 46 871 l 501 883 q 504 868 504 875 q 492 857 504 861 q 463 849 481 852 q 425 843 446 846 q 387 834 405 840 q 347 791 347 821 l 347 492 l 405 492 l 714 799 q 717 817 717 806 q 708 833 717 827 q 686 843 699 840 q 658 848 673 846 q 630 850 643 849 q 600 871 600 854 q 603 883 600 871 l 985 883 l 988 871 q 949 849 988 859 q 884 833 910 839 q 795 795 828 821 l 532 525 l 850 88 q 913 58 863 73 q 978 37 962 43 q 1015 14 1015 22 q 1013 0 1015 5 l 549 0 q 545 14 545 8 q 553 24 545 20 q 575 31 562 28 q 604 36 588 34 q 632 41 619 37 q 663 69 663 50 q 651 91 663 76 l 408 448 l 347 448 l 347 84 q 427 35 347 39 q 494 28 480 33 q 507 13 507 24 q 504 0 507 12 l 50 0 q 47 15 47 7 q 58 26 47 22 q 87 33 70 31 q 124 38 104 35 q 161 45 144 40 q 201 88 201 57 l 201 791 q 123 843 201 833 q 46 871 46 853 z "},"L":{"ha":879,"x_min":46,"x_max":885,"o":"m 842 -7 q 694 0 760 0 l 47 0 l 46 37 q 102 53 74 46 q 153 71 130 59 q 203 163 203 96 l 203 701 q 191 790 203 771 q 166 817 179 810 q 137 827 154 823 q 97 836 119 831 q 47 848 75 840 l 48 883 l 507 883 l 507 848 q 440 829 478 836 q 389 818 402 823 q 367 800 376 812 q 349 705 349 776 l 349 212 q 357 120 349 153 q 389 72 364 87 q 461 53 414 56 q 563 50 508 50 q 648 53 618 50 q 705 66 678 56 q 794 147 763 88 q 816 192 806 169 q 844 233 827 215 l 885 232 l 842 -7 z "},"M":{"ha":1305,"x_min":22,"x_max":1288,"o":"m 1138 184 q 1176 79 1145 114 q 1226 50 1183 56 q 1288 35 1278 43 l 1286 0 l 864 0 l 863 35 q 907 49 884 42 q 949 68 930 56 q 994 143 994 94 l 952 724 l 693 139 q 644 0 672 92 l 590 0 q 515 158 564 58 q 437 321 467 258 q 377 448 407 384 q 268 698 307 602 q 254 563 262 631 q 240 427 246 496 q 224 192 224 259 q 234 104 224 124 q 263 72 245 84 q 304 52 281 59 q 353 35 328 44 l 352 0 l 24 0 l 22 35 q 69 52 46 45 q 111 70 92 59 q 160 149 154 94 l 212 656 q 216 740 216 705 q 204 791 216 774 q 174 816 193 807 q 133 831 155 825 q 91 848 111 838 l 92 883 l 356 883 q 415 701 385 765 l 659 181 l 901 733 q 934 883 934 808 l 1215 883 l 1215 848 q 1127 810 1145 825 q 1089 734 1089 781 l 1138 184 z "},"N":{"ha":1169,"x_min":46,"x_max":1123,"o":"m 992 -6 q 920 -6 964 -18 q 809 121 860 66 l 273 684 l 273 208 q 309 77 273 102 q 378 52 338 58 q 439 36 419 46 q 437 0 439 18 l 54 0 q 53 11 53 5 l 53 37 q 110 51 81 45 q 161 70 138 58 q 219 162 213 97 l 219 740 q 142 812 188 790 q 98 829 121 822 q 46 848 74 836 l 46 883 l 283 883 l 921 223 l 921 650 q 907 752 921 712 q 878 804 894 792 q 843 823 863 817 q 803 833 824 829 q 764 847 783 838 q 766 883 764 865 l 1123 883 l 1123 846 q 1071 824 1093 833 q 1033 805 1048 814 q 1006 785 1017 796 q 990 757 996 774 q 978 558 980 726 q 977 283 977 391 q 984 116 977 176 q 992 -6 991 56 z "},"O":{"ha":1087,"x_min":76,"x_max":1011,"o":"m 234 484 q 259 309 234 391 q 328 165 283 226 q 568 35 422 35 q 772 130 693 35 q 853 397 853 229 q 761 718 853 589 q 522 848 667 848 q 320 757 399 848 q 234 484 234 660 m 76 435 q 95 574 76 509 q 146 691 113 640 q 223 782 178 743 q 320 848 268 821 q 545 900 425 900 q 873 775 741 900 q 994 571 960 694 q 1011 423 1011 510 q 973 251 1011 336 q 869 107 935 167 q 532 -18 731 -18 q 215 102 346 -18 q 76 435 76 229 z "},"P":{"ha":885,"x_min":46,"x_max":846,"o":"m 414 836 q 336 832 377 836 l 336 186 q 348 91 336 111 q 372 66 359 71 q 401 57 384 60 q 490 35 462 46 l 489 0 l 48 0 l 46 35 q 142 68 121 56 q 190 151 190 95 l 190 699 q 178 784 190 765 q 155 810 167 803 q 128 821 144 817 q 92 832 112 826 q 47 848 71 838 l 48 883 l 385 883 q 684 849 581 883 q 846 637 846 797 q 752 435 846 507 q 533 372 669 372 q 444 384 478 372 q 401 403 410 397 q 392 416 392 409 q 422 429 392 429 l 432 429 q 614 463 557 429 q 688 627 688 509 q 595 791 688 738 q 414 836 519 836 z "},"Q":{"ha":1080,"x_min":76,"x_max":1086,"o":"m 235 483 q 261 304 235 389 q 332 159 287 219 q 566 35 425 35 q 768 126 690 35 q 853 398 853 227 q 761 716 853 588 q 522 848 667 848 q 319 753 399 848 q 235 483 235 655 m 1086 -193 q 971 -213 1029 -213 q 884 -210 913 -213 q 830 -201 856 -208 q 698 -150 770 -187 q 583 -90 625 -113 q 441 -7 482 -35 q 179 144 275 37 q 76 435 76 260 q 214 774 76 643 q 545 900 347 900 q 873 776 742 900 q 1011 441 1011 645 q 899 142 1011 267 q 627 -7 793 25 q 824 -95 768 -76 q 916 -121 881 -113 q 1078 -144 986 -136 l 1086 -193 z "},"R":{"ha":975,"x_min":46,"x_max":977,"o":"m 977 -1 q 770 1 844 -34 q 627 125 692 39 q 535 263 576 193 q 477 359 494 334 q 452 395 460 384 q 433 414 443 406 q 374 429 415 426 l 332 431 l 332 170 q 345 86 332 104 q 372 64 359 68 q 401 56 385 59 q 478 35 450 48 l 477 0 l 47 0 l 46 35 q 106 56 75 51 q 150 65 138 60 q 170 82 161 69 q 186 188 186 108 l 186 702 q 174 784 186 765 q 152 809 163 802 q 125 821 140 816 q 90 832 109 826 q 46 848 70 838 l 47 884 l 360 884 q 548 876 488 884 q 656 855 608 869 q 743 817 705 842 q 827 658 827 762 q 747 503 827 564 q 580 439 680 453 q 641 354 610 397 q 703 267 672 311 q 808 126 777 164 q 854 77 840 89 q 884 56 867 64 q 977 37 921 37 l 977 -1 m 332 477 q 474 481 434 477 q 549 495 515 486 q 610 525 584 505 q 669 650 669 567 q 558 809 669 772 q 439 830 498 829 q 347 832 380 832 l 332 832 l 332 477 z "},"S":{"ha":791,"x_min":93,"x_max":718,"o":"m 93 271 l 133 273 q 148 238 142 256 q 162 190 153 220 q 195 130 171 161 q 251 80 219 100 q 401 39 316 39 q 525 74 473 39 q 585 182 585 114 q 433 352 585 266 q 345 402 390 376 q 257 455 300 427 q 180 515 214 482 q 104 672 104 587 q 203 849 104 788 q 410 900 288 900 q 668 837 545 900 l 677 644 l 635 644 q 621 677 626 660 q 606 721 615 695 q 575 773 597 747 q 526 815 554 798 q 399 848 472 848 q 300 826 337 848 q 248 783 264 805 q 231 728 231 760 q 252 669 231 696 q 307 615 273 641 q 385 566 341 590 q 474 515 429 541 q 564 461 520 490 q 642 399 608 433 q 718 233 718 323 q 613 41 718 108 q 392 -18 524 -18 q 158 22 270 -18 q 93 52 121 35 l 93 271 z "},"T":{"ha":946,"x_min":23,"x_max":926,"o":"m 647 833 l 556 833 l 543 833 l 543 163 q 585 62 543 89 q 696 35 613 45 l 696 11 q 695 0 696 5 l 246 0 l 245 35 q 299 52 272 45 q 349 72 327 60 q 397 163 397 99 l 397 833 l 298 833 q 205 828 237 833 q 152 805 172 823 q 116 762 132 786 q 84 711 99 737 q 54 666 70 685 l 23 666 l 40 887 q 500 880 213 880 q 904 888 787 880 l 926 665 l 893 665 q 864 710 878 684 q 833 761 850 736 q 752 827 794 821 q 647 833 713 833 z "},"U":{"ha":1112,"x_min":18,"x_max":1102,"o":"m 162 450 l 165 694 q 160 769 165 745 q 137 805 154 793 q 100 825 121 817 q 56 837 79 832 q 18 848 34 842 l 20 883 l 467 883 l 469 848 q 417 833 440 838 q 377 824 395 828 q 348 813 360 820 q 327 793 335 807 q 311 694 311 768 l 311 404 q 372 155 311 240 q 602 56 444 56 q 893 416 893 56 l 893 682 q 882 779 893 757 q 859 808 871 800 q 829 822 847 817 q 788 833 812 827 q 735 848 765 838 l 735 883 l 1101 883 l 1102 848 q 1064 836 1086 839 q 1021 827 1042 832 q 960 780 970 816 q 949 693 949 743 l 951 484 q 933 256 951 329 q 888 136 914 182 q 818 54 861 89 q 557 -18 725 -18 q 301 51 404 -18 q 170 272 186 128 q 162 450 162 339 z "},"V":{"ha":953,"x_min":-7,"x_max":966,"o":"m 394 883 l 398 842 q 363 833 385 838 q 322 821 342 829 q 273 772 273 803 q 339 598 273 746 q 435 387 406 450 q 528 170 500 241 q 564 257 542 206 q 610 365 585 308 q 659 482 634 422 q 703 595 683 542 q 747 749 747 715 q 734 796 747 782 q 700 818 720 810 q 656 830 680 826 q 614 841 633 835 q 612 861 612 850 q 614 883 612 871 l 964 883 q 966 846 966 865 q 923 822 946 832 q 877 800 900 811 q 834 760 853 789 q 800 696 815 731 q 773 625 785 661 q 744 547 762 589 q 697 434 726 505 q 639 290 668 364 q 522 -7 557 85 q 483 -14 491 -14 q 470 -13 474 -13 q 461 -12 466 -13 q 296 363 379 178 q 164 657 212 549 q 103 782 115 765 q 75 810 90 800 q -7 844 52 827 l -5 883 l 394 883 z "},"W":{"ha":1311,"x_min":-70,"x_max":1370,"o":"m 371 883 l 374 869 q 314 841 374 848 q 254 802 254 835 q 287 700 254 794 q 336 559 320 606 q 370 465 353 512 q 401 374 387 417 q 451 239 425 311 l 633 726 q 617 767 625 747 q 600 808 609 788 q 573 822 593 814 l 530 839 q 475 869 475 861 q 479 883 475 873 l 915 883 q 919 864 919 871 q 909 852 919 857 q 885 844 900 846 q 854 841 871 842 q 822 837 837 840 q 789 806 789 830 q 875 518 789 783 q 966 241 962 252 q 980 283 970 254 q 1003 353 989 313 q 1031 440 1016 393 q 1063 535 1047 488 q 1093 629 1078 583 q 1119 712 1107 675 q 1143 808 1143 793 q 1127 832 1143 823 q 1089 844 1112 840 q 1044 851 1067 848 q 1007 862 1021 854 l 1003 869 l 1007 883 l 1358 883 q 1370 876 1366 883 q 1339 854 1370 861 q 1286 842 1309 847 q 1243 831 1263 838 q 1184 785 1195 814 q 1166 729 1174 756 q 1150 673 1159 701 l 947 1 q 926 -13 943 -13 q 890 1 897 -13 q 869 56 877 25 q 852 113 861 87 l 659 674 l 484 169 q 470 127 477 149 q 457 83 464 105 q 413 -12 429 -5 q 394 -14 406 -14 q 371 1 382 -14 q 352 37 360 16 q 337 78 343 57 q 298 186 331 98 q 205 437 265 274 q 81 765 144 601 q 53 805 71 791 q 12 827 34 818 q -32 844 -10 836 q -70 868 -54 852 l -65 883 l 371 883 z "},"X":{"ha":992,"x_min":12,"x_max":991,"o":"m 584 845 q 583 859 583 848 l 583 876 q 584 883 583 880 l 932 883 q 933 872 933 878 l 933 848 q 903 838 922 844 q 860 822 883 832 q 770 764 802 798 q 714 698 744 736 l 550 492 l 802 160 q 859 92 840 108 q 919 56 892 63 q 964 43 946 48 q 991 35 982 39 q 990 0 991 19 l 548 0 q 547 10 547 5 l 547 35 q 652 106 652 58 q 639 146 652 130 l 460 383 l 309 199 q 256 98 256 135 q 367 39 256 61 q 368 27 368 34 l 368 11 q 367 0 368 5 l 14 0 q 12 10 12 5 l 12 35 q 45 46 26 41 q 85 61 64 52 q 157 103 137 81 q 216 171 185 132 l 429 426 l 185 744 q 52 831 139 805 q 14 845 31 838 l 14 869 q 16 883 14 876 l 451 883 q 452 848 452 865 q 357 801 382 833 q 347 779 347 789 q 359 743 347 764 l 517 534 l 641 688 q 680 746 677 734 q 683 766 683 758 q 657 814 683 793 q 584 845 631 836 z "},"Y":{"ha":912,"x_min":-1,"x_max":909,"o":"m 568 863 q 569 883 568 872 l 909 883 l 909 848 q 817 805 839 819 q 748 736 775 777 l 526 395 l 526 167 q 539 85 526 102 q 567 64 553 68 q 596 57 580 60 q 673 35 648 47 l 671 0 l 233 0 l 232 35 q 291 54 258 50 q 337 63 323 59 q 360 79 351 67 q 380 172 380 102 l 380 381 l 132 769 q 33 837 108 807 q -1 848 13 845 l -1 883 l 419 883 l 420 848 q 323 805 353 838 q 311 778 311 792 q 323 739 311 764 q 355 683 336 715 q 397 616 374 652 q 441 548 420 581 q 480 490 463 516 q 505 452 497 465 q 524 481 509 460 q 558 533 539 503 q 600 597 578 563 q 639 665 621 632 q 681 767 681 743 q 668 803 681 791 q 638 823 656 815 q 601 836 621 831 q 569 845 582 841 l 568 863 z "},"Z":{"ha":885,"x_min":63,"x_max":827,"o":"m 258 60 q 319 50 290 50 l 414 50 q 652 71 600 50 q 694 101 680 82 q 720 143 707 120 q 789 243 753 207 l 827 242 l 786 -7 l 758 -7 l 661 0 l 66 0 l 63 29 l 629 831 l 360 831 q 266 822 291 831 q 187 754 216 806 q 161 706 174 730 q 133 659 149 682 q 97 661 115 659 l 115 886 l 137 886 l 806 883 q 814 863 814 879 l 814 844 l 309 134 q 258 60 276 90 z "},"[":{"ha":449,"x_min":117,"x_max":553,"o":"m 125 198 l 117 983 q 132 1012 117 1000 q 176 1034 157 1034 q 486 1037 176 1034 q 547 1010 530 1037 q 553 987 553 1000 q 489 936 553 936 l 223 936 q 217 648 223 792 q 211 358 211 505 q 214 -42 211 212 l 463 -38 q 492 -53 479 -38 q 513 -102 513 -78 q 454 -145 513 -145 l 165 -135 q 130 -120 138 -135 q 121 -81 121 -104 l 125 198 z "},"\\":{"ha":467,"x_min":12,"x_max":437,"o":"m 12 935 q 66 951 31 951 q 109 884 94 924 q 131 821 124 844 q 146 774 138 797 l 418 49 q 432 -14 429 20 q 437 -79 434 -49 l 424 -79 q 385 -76 396 -79 q 330 65 359 -19 q 258 261 302 149 q 172 484 215 372 q 12 935 60 773 z "},"]":{"ha":450,"x_min":-100,"x_max":342,"o":"m 289 -135 l 0 -145 q -43 -136 -26 -145 q -60 -97 -60 -126 q 40 -37 -60 -37 l 141 -43 l 239 -43 q 243 358 243 212 q 237 648 243 505 q 231 936 231 792 l -45 936 q -83 950 -66 936 q -100 982 -100 964 q -94 1010 -100 1000 q -78 1025 -87 1019 q -33 1037 -60 1037 l 277 1034 q 330 1001 309 1034 q 336 983 336 991 l 331 298 q 337 103 331 186 q 342 -32 342 21 q 332 -110 342 -85 q 289 -135 321 -135 z "},"^":{"ha":808,"x_min":132,"x_max":674,"o":"m 674 500 q 610 490 646 490 q 517 618 558 549 q 451 728 475 686 q 403 809 427 770 q 352 728 377 769 q 302 647 328 688 q 195 490 243 551 q 132 500 159 490 q 241 713 170 589 q 330 869 313 838 q 389 944 356 918 q 443 928 417 944 q 503 825 471 879 q 564 716 534 771 q 674 500 636 587 z "},"_":{"ha":634,"x_min":30,"x_max":606,"o":"m 30 -46 q 133 -33 61 -33 l 566 -33 q 606 -87 606 -50 q 521 -100 579 -100 l 69 -100 q 40 -80 50 -92 q 30 -46 30 -68 z "},"`":{"ha":656,"x_min":157,"x_max":455,"o":"m 455 761 q 439 743 455 743 q 411 758 428 743 q 365 800 395 772 q 300 859 334 827 q 231 922 266 890 q 177 972 197 954 q 157 1005 157 990 q 161 1029 157 1019 q 174 1047 165 1039 q 206 1065 190 1065 q 252 1042 235 1065 q 294 986 269 1019 q 346 917 319 953 q 424 812 397 849 q 453 770 452 776 q 455 761 454 765 z "},"a":{"ha":687,"x_min":62,"x_max":670,"o":"m 279 63 q 427 136 351 63 l 427 309 q 386 295 410 302 q 336 278 362 288 q 285 256 311 268 q 240 228 260 243 q 195 150 195 192 q 217 86 195 109 q 279 63 239 63 m 429 87 q 218 -14 334 -14 q 75 62 114 -14 q 62 124 62 87 q 81 191 62 160 q 131 244 100 221 q 201 283 161 267 q 281 311 240 299 q 360 332 321 323 q 427 349 398 341 l 427 413 q 410 522 427 492 q 368 565 393 551 q 318 578 344 578 q 273 574 292 578 q 237 562 255 570 q 195 517 195 544 q 203 491 195 506 q 218 443 218 462 q 202 406 218 424 q 162 388 185 388 q 125 395 139 388 q 102 414 111 402 q 83 470 83 438 q 95 524 83 502 q 128 564 108 547 q 175 593 149 581 q 229 613 201 606 q 345 628 281 628 q 451 612 408 628 q 517 563 494 595 q 547 481 541 530 q 554 367 554 432 l 550 220 q 582 67 550 67 q 642 114 605 67 l 670 83 q 619 16 639 33 q 535 -14 582 -14 q 460 15 489 -14 q 429 87 432 43 z "},"b":{"ha":769,"x_min":-7,"x_max":713,"o":"m 233 451 l 233 84 q 315 43 233 54 q 370 39 338 39 q 442 51 402 39 q 514 90 481 62 q 587 279 587 153 q 536 467 587 395 q 396 538 485 538 q 233 451 307 538 m 233 514 q 452 628 338 628 q 643 529 567 628 q 713 313 713 436 q 518 16 713 90 q 371 -14 442 -14 q 256 -5 300 -14 q 179 17 212 3 q 107 91 107 48 l 107 789 q -7 850 89 817 l -5 873 l 175 927 l 233 933 l 233 514 z "},"c":{"ha":653,"x_min":56,"x_max":604,"o":"m 596 127 q 504 22 576 60 q 361 -14 439 -14 q 227 13 283 -14 q 133 83 171 39 q 56 304 56 172 q 146 533 56 441 q 388 628 240 628 q 586 557 534 628 q 604 508 604 533 q 597 471 604 483 q 581 450 590 458 q 537 435 561 435 q 503 446 513 435 q 487 472 492 456 q 479 507 482 488 q 467 541 477 525 q 378 578 446 578 q 240 518 296 578 q 180 340 180 452 q 235 159 180 231 q 395 81 294 81 q 534 115 479 81 q 574 143 554 127 l 596 127 z "},"d":{"ha":802,"x_min":54,"x_max":778,"o":"m 542 151 l 542 346 q 514 488 542 443 q 426 560 485 535 q 357 574 395 574 q 287 553 320 574 q 229 498 253 532 q 180 323 180 425 q 230 149 180 222 q 383 67 286 67 q 542 151 479 67 m 545 97 q 331 -14 447 -14 q 135 67 213 -14 q 54 281 54 151 q 144 530 54 433 q 369 626 234 626 q 457 611 416 626 q 542 576 498 596 l 542 797 q 427 859 524 825 l 428 882 l 619 928 l 668 933 l 668 135 q 708 75 668 94 q 778 59 739 59 l 778 22 l 597 -8 l 551 -8 l 545 97 z "},"e":{"ha":653,"x_min":56,"x_max":604,"o":"m 470 414 q 339 583 460 583 q 231 528 273 583 q 180 397 191 477 l 420 403 q 470 414 452 404 m 570 131 l 589 112 q 492 18 564 53 q 357 -14 425 -14 q 234 9 289 -14 q 140 75 180 33 q 56 303 56 163 q 146 538 56 444 q 355 628 232 628 q 518 570 452 628 q 597 420 583 513 q 604 363 604 386 l 604 357 l 176 357 q 175 347 175 351 q 175 337 175 342 q 243 143 175 210 q 396 82 304 82 q 570 131 488 82 z "},"f":{"ha":450,"x_min":31,"x_max":549,"o":"m 33 0 q 31 34 31 19 q 56 42 41 39 q 85 47 71 44 q 129 77 123 56 q 143 146 143 104 l 143 555 l 36 555 l 36 610 l 83 610 q 126 616 118 610 q 140 659 140 625 q 205 862 143 792 q 385 932 268 932 q 489 913 454 932 q 536 876 523 895 q 549 833 549 858 q 532 791 549 808 q 491 773 515 773 q 455 781 467 773 q 434 802 443 789 q 419 828 426 814 q 404 854 412 842 q 359 883 385 883 q 317 875 334 883 q 290 846 301 867 q 269 692 269 805 l 269 610 l 425 610 l 425 555 l 269 555 l 269 176 q 284 76 269 107 q 372 42 292 52 q 404 34 390 39 l 404 18 q 403 0 404 9 l 33 0 z "},"g":{"ha":679,"x_min":50,"x_max":636,"o":"m 203 10 q 138 -93 138 -45 q 282 -180 138 -167 q 325 -182 301 -182 q 389 -176 349 -182 q 463 -157 429 -170 q 543 -80 543 -128 q 378 1 543 -2 l 324 1 q 203 10 278 3 m 193 429 q 201 361 193 393 q 224 305 208 330 q 321 254 258 254 q 423 344 403 254 q 430 409 430 372 q 420 479 430 447 q 393 533 410 511 q 302 578 358 578 q 225 537 256 578 q 193 429 193 495 m 323 628 q 457 592 388 628 l 507 598 q 586 605 562 605 q 636 602 616 605 l 626 516 q 547 534 591 525 l 495 545 q 541 468 534 493 q 549 407 549 443 q 528 331 549 371 q 472 263 507 290 q 309 209 404 209 q 222 221 275 209 q 205 210 214 215 q 190 199 197 205 q 174 166 174 186 q 192 139 174 147 q 244 127 210 131 q 329 122 279 124 q 431 117 378 121 q 519 102 484 113 q 580 72 554 91 q 635 -35 635 33 q 534 -184 635 -127 q 298 -238 439 -238 q 113 -201 184 -238 q 50 -125 50 -169 q 153 16 50 -59 q 73 111 73 50 q 140 210 73 163 q 184 239 160 224 q 73 416 73 303 q 139 568 73 509 q 323 628 205 628 z "},"h":{"ha":825,"x_min":27,"x_max":808,"o":"m 27 34 q 146 158 146 43 l 146 789 q 56 845 129 814 q 30 853 39 852 l 30 877 l 224 928 l 273 933 l 273 521 q 363 593 328 574 q 485 628 429 628 q 578 614 541 628 q 644 571 616 600 q 705 385 705 508 l 705 150 q 808 34 705 44 l 806 0 l 473 0 q 471 18 471 7 l 471 34 q 519 51 498 46 q 552 64 539 55 q 578 145 578 80 l 578 391 q 509 543 578 507 q 448 555 484 555 q 273 464 360 555 l 273 158 q 300 68 273 97 q 391 34 328 39 l 390 13 l 390 0 l 28 0 q 27 18 27 7 l 27 34 z "},"i":{"ha":403,"x_min":33,"x_max":372,"o":"m 120 854 q 137 904 120 886 q 199 933 165 933 q 248 916 231 933 q 277 854 277 887 q 260 804 277 821 q 199 776 231 776 q 149 792 165 776 q 120 854 120 821 m 35 0 q 33 12 33 5 l 33 34 q 63 45 45 40 q 100 60 82 51 q 144 123 144 81 l 144 484 q 41 541 125 517 l 43 564 l 231 618 l 271 623 l 271 149 q 275 95 271 116 q 293 65 280 75 q 320 51 305 56 q 350 42 336 45 q 372 34 364 39 q 372 17 372 34 q 371 0 372 9 l 35 0 z "},"j":{"ha":375,"x_min":-1,"x_max":269,"o":"m 112 854 q 129 904 112 886 q 190 933 157 933 q 240 916 224 933 q 269 854 269 886 q 252 804 269 821 q 190 776 223 776 q 141 792 157 776 q 112 854 112 821 m 136 481 q 43 536 117 512 q 26 541 29 541 l 26 564 l 216 618 l 262 623 l 262 85 q 117 -183 262 -125 q 9 -209 70 -202 l -1 -170 q 66 -134 41 -151 q 107 -94 92 -117 q 136 60 131 -54 l 136 481 z "},"k":{"ha":793,"x_min":27,"x_max":784,"o":"m 45 0 q 43 11 43 5 q 52 20 43 16 q 73 29 60 25 q 101 36 86 33 q 130 46 117 40 q 160 81 160 60 l 160 761 q 94 806 160 789 q 38 822 50 817 q 27 833 27 827 q 30 844 27 839 l 300 891 l 300 322 l 342 322 l 559 535 q 560 544 560 537 q 554 557 560 551 q 537 566 547 564 q 516 570 528 569 q 495 572 505 571 q 473 586 473 576 q 475 610 473 596 l 762 610 l 764 587 q 724 564 764 573 q 639 532 661 551 l 452 340 l 665 64 q 710 41 675 52 q 757 27 745 31 q 784 10 784 17 q 782 0 784 3 l 446 0 l 443 8 q 457 22 443 19 q 483 26 472 24 q 502 30 493 27 q 522 50 522 36 q 513 66 522 56 l 344 285 l 300 285 l 300 79 q 351 35 300 45 q 403 9 403 24 q 400 0 403 5 l 45 0 z "},"l":{"ha":403,"x_min":27,"x_max":367,"o":"m 140 155 l 139 793 q 27 853 120 822 l 28 877 l 217 928 l 266 933 l 266 159 q 288 72 266 104 q 367 34 311 40 l 366 0 l 32 0 q 31 7 31 3 l 31 34 q 58 45 41 41 q 90 54 74 49 q 134 95 129 68 q 140 155 140 122 z "},"m":{"ha":1192,"x_min":27,"x_max":1174,"o":"m 777 34 l 775 0 l 436 0 q 435 18 435 7 l 435 34 q 457 42 443 39 q 487 50 472 45 q 530 79 524 60 q 545 155 545 109 l 545 391 q 527 501 545 471 q 488 543 509 531 q 436 555 466 555 q 383 547 406 555 q 340 526 360 539 q 266 460 307 505 l 266 159 q 281 72 266 84 q 311 54 296 60 q 341 44 326 48 q 369 34 357 40 l 368 0 l 33 0 q 33 7 33 3 l 33 34 q 57 43 41 39 q 88 52 73 47 q 132 92 126 66 q 139 151 139 120 l 139 491 q 27 551 119 528 l 29 574 l 218 621 l 260 621 l 266 523 q 417 621 338 602 q 483 628 447 628 q 659 519 613 628 q 741 592 709 573 q 855 627 800 627 q 946 617 910 627 q 1008 587 981 607 q 1072 458 1063 545 q 1077 330 1077 397 l 1077 153 q 1081 98 1077 117 q 1095 70 1084 79 q 1120 55 1106 60 q 1148 44 1134 49 q 1174 34 1163 40 l 1173 0 l 846 0 q 845 18 845 7 l 845 34 q 871 44 856 40 q 902 54 887 48 q 945 94 939 68 q 950 153 950 123 l 950 422 q 918 520 950 486 q 825 555 886 555 q 668 471 745 555 q 672 320 672 429 l 672 156 q 675 98 672 117 q 691 71 679 80 q 718 55 703 61 q 749 44 733 49 q 777 34 765 40 z "},"n":{"ha":814,"x_min":27,"x_max":796,"o":"m 441 555 q 261 453 356 555 l 261 151 q 330 43 261 66 q 380 34 352 37 l 379 0 l 30 0 q 29 7 29 2 l 29 30 q 30 37 29 33 q 103 60 87 50 q 135 125 135 81 l 135 493 q 27 550 119 524 l 29 573 l 214 619 l 256 622 l 263 512 q 416 618 321 591 q 484 628 448 628 q 636 573 581 628 q 695 406 690 519 q 697 317 697 362 l 697 166 q 718 67 697 87 q 748 51 729 56 q 795 37 767 46 q 796 30 796 33 l 796 22 l 795 7 l 795 0 l 461 0 q 460 18 460 7 l 460 34 q 490 43 473 39 q 524 54 507 47 q 567 101 561 70 q 570 153 570 120 l 570 304 q 556 477 570 438 q 516 535 542 516 q 441 555 490 555 z "},"o":{"ha":753,"x_min":56,"x_max":698,"o":"m 205 454 q 191 351 191 410 q 205 237 191 292 q 244 137 218 181 q 389 39 301 39 q 521 103 474 39 q 564 263 564 162 q 511 487 564 397 q 368 583 456 583 q 205 454 244 583 m 56 309 q 151 541 56 450 q 372 628 242 628 q 602 543 511 628 q 698 310 698 453 q 603 75 698 167 q 380 -14 513 -14 q 153 76 247 -14 q 56 309 56 169 z "},"p":{"ha":797,"x_min":27,"x_max":741,"o":"m 266 459 l 266 235 q 312 99 266 151 q 442 44 360 44 q 604 189 570 44 q 615 294 615 234 q 600 401 615 354 q 558 479 584 448 q 427 540 507 540 q 266 459 347 540 m 432 -13 q 266 51 340 -13 l 266 -98 q 336 -212 266 -188 q 391 -222 359 -219 l 389 -256 l 32 -256 q 31 -239 31 -249 l 31 -222 q 140 -104 140 -207 l 140 484 q 27 552 122 517 l 27 575 l 210 623 l 256 623 l 262 511 q 347 589 312 568 q 475 628 414 628 q 585 607 536 628 q 667 547 633 586 q 741 323 741 464 q 652 80 741 175 q 432 -13 566 -13 z "},"q":{"ha":768,"x_min":56,"x_max":766,"o":"m 535 160 l 535 423 q 427 567 522 532 q 355 578 395 578 q 281 560 314 578 q 225 509 248 542 q 178 336 178 444 q 235 145 178 218 q 370 77 288 77 q 535 160 452 77 m 766 -223 l 764 -256 l 414 -256 q 412 -239 412 -248 l 412 -223 q 451 -212 429 -217 q 491 -197 472 -206 q 536 -126 536 -173 l 536 98 q 437 16 475 35 q 210 11 317 -45 q 74 178 112 62 q 56 304 56 233 q 80 437 56 374 q 146 541 104 499 q 372 627 233 627 q 588 575 485 627 l 588 600 q 631 626 596 618 q 647 628 640 628 q 661 609 661 628 l 661 -94 q 684 -182 661 -151 q 766 -223 707 -213 z "},"r":{"ha":542,"x_min":27,"x_max":528,"o":"m 134 490 q 27 546 115 522 l 28 570 l 209 621 l 248 621 l 258 496 q 382 618 315 599 q 429 625 406 625 q 470 618 452 625 q 500 600 488 611 q 528 550 528 577 q 517 509 528 529 q 472 469 496 469 q 435 480 447 469 q 414 504 422 491 q 396 528 405 517 q 369 538 387 538 q 336 529 351 538 q 308 503 321 519 q 283 468 295 488 q 260 429 272 448 l 260 177 q 266 92 260 114 q 286 62 272 71 q 318 49 300 54 q 357 42 337 45 q 393 34 378 39 l 393 13 l 393 0 l 29 0 q 28 8 28 3 l 28 32 q 29 37 28 35 q 72 47 52 43 q 104 61 91 52 q 134 146 134 81 l 134 490 z "},"s":{"ha":579,"x_min":79,"x_max":512,"o":"m 90 201 q 125 204 115 204 q 225 47 149 86 q 283 34 253 34 q 335 40 314 34 q 372 58 356 47 q 405 118 405 83 q 387 173 405 153 q 339 212 370 193 q 269 251 309 231 q 182 300 229 271 q 79 464 79 364 q 138 586 79 542 q 280 628 193 628 q 465 578 384 628 l 469 428 q 453 427 461 427 l 437 427 q 276 583 392 583 q 209 562 235 583 q 184 508 184 542 q 201 452 184 473 q 245 413 218 431 q 303 379 271 395 q 369 346 336 363 q 430 308 402 328 q 475 266 457 288 q 512 169 512 221 q 496 85 512 117 q 450 30 479 52 q 296 -14 393 -14 q 90 35 167 -14 l 90 201 z "},"t":{"ha":464,"x_min":21,"x_max":439,"o":"m 232 779 q 248 753 248 779 l 248 610 l 418 610 l 418 553 l 249 553 l 249 213 q 259 94 249 115 q 288 65 270 73 q 347 58 306 58 q 433 73 389 58 l 439 24 q 301 -14 366 -14 q 204 -2 235 -14 q 155 37 172 10 q 122 215 122 85 l 122 553 l 21 553 l 21 583 q 167 698 111 619 q 198 744 183 721 q 219 773 212 767 q 232 779 225 779 z "},"u":{"ha":808,"x_min":18,"x_max":787,"o":"m 376 66 q 553 149 471 66 l 553 436 q 548 507 553 478 q 435 562 540 551 l 435 595 l 680 613 l 680 136 q 747 65 680 81 q 787 58 766 61 l 785 22 l 562 -10 l 557 98 q 332 -14 456 -14 q 137 177 162 -14 q 130 291 130 232 l 130 437 q 110 530 130 513 q 18 562 79 555 l 18 595 l 256 613 l 256 298 q 282 119 256 170 q 376 66 309 66 z "},"v":{"ha":669,"x_min":-16,"x_max":648,"o":"m 290 610 l 293 573 q 216 542 227 555 q 205 519 205 528 q 209 497 205 509 l 347 156 l 464 440 q 482 513 483 488 q 458 550 481 537 q 395 572 435 562 q 394 579 394 575 l 394 603 q 395 610 394 608 l 647 610 q 648 600 648 604 l 648 575 q 623 563 636 568 q 594 549 609 557 q 538 479 560 528 l 328 -8 q 307 -12 320 -12 q 288 -8 294 -12 l 80 491 q 43 550 59 541 q 15 563 28 559 q -16 574 3 566 l -16 610 l 290 610 z "},"w":{"ha":966,"x_min":-15,"x_max":960,"o":"m 198 515 q 202 488 198 496 l 328 165 l 452 467 q 338 577 420 572 l 339 610 l 639 610 q 640 577 640 592 q 614 567 627 571 q 589 557 600 563 q 562 521 562 545 q 574 473 562 504 l 685 170 l 791 456 q 804 510 804 490 q 798 541 804 531 q 782 557 793 551 q 756 566 772 562 q 722 575 741 569 q 720 591 720 582 q 722 610 720 600 l 960 610 l 960 574 q 869 513 913 568 q 852 484 857 498 l 669 -9 q 649 -14 662 -14 q 628 -9 636 -14 l 474 404 l 311 -9 q 289 -14 302 -14 q 268 -9 275 -14 l 79 474 q 47 538 60 522 q -15 576 23 568 l -14 610 l 266 610 q 267 593 267 601 l 267 577 q 198 515 198 555 z "},"x":{"ha":756,"x_min":34,"x_max":715,"o":"m 296 20 l 295 6 l 295 0 l 35 0 q 34 16 34 7 l 34 33 q 57 43 43 37 q 87 56 71 48 q 152 103 128 76 l 319 292 l 138 524 q 69 569 116 552 q 51 577 58 573 l 51 604 q 52 610 51 606 l 352 610 l 352 597 l 353 577 q 293 528 293 559 q 299 507 293 522 l 394 380 l 477 481 q 498 525 498 507 q 479 556 498 543 q 429 575 460 570 l 429 610 l 680 610 l 680 597 l 681 576 q 656 568 670 572 q 627 556 642 563 q 567 511 590 538 l 427 340 l 610 108 q 654 61 639 72 q 715 32 676 46 l 714 0 l 391 0 q 390 6 390 3 l 390 33 q 415 43 401 39 q 441 52 429 47 q 470 77 470 62 q 453 112 470 93 l 347 255 l 255 153 q 217 77 217 110 q 295 35 217 48 q 296 28 296 31 l 296 20 z "},"y":{"ha":678,"x_min":0,"x_max":665,"o":"m 665 597 l 665 575 q 640 561 654 566 q 612 549 626 557 q 564 479 578 529 l 323 -113 q 264 -216 294 -188 q 149 -268 211 -268 q 81 -252 103 -268 q 44 -193 44 -226 q 63 -143 44 -161 q 106 -126 83 -126 q 141 -134 130 -126 q 161 -151 152 -141 q 204 -174 184 -174 q 242 -159 225 -174 q 273 -120 258 -144 q 319 0 292 -85 l 107 483 q 55 558 79 545 q 31 566 43 564 q 0 574 18 567 l 0 610 l 318 610 l 321 588 q 296 568 321 578 q 286 563 290 566 q 230 526 230 559 q 233 510 230 519 q 239 489 235 500 l 379 154 l 494 458 q 504 509 504 484 q 416 572 504 557 q 415 579 415 575 l 415 603 q 416 610 415 608 l 665 610 l 665 597 z "},"z":{"ha":644,"x_min":55,"x_max":604,"o":"m 555 610 q 566 609 560 609 q 593 607 572 609 l 593 570 l 223 41 l 355 41 q 471 58 415 41 q 528 118 500 68 q 548 157 538 138 q 570 189 557 177 q 587 189 578 189 q 604 188 595 188 l 585 -7 l 477 0 l 64 0 l 55 22 l 446 568 l 332 568 q 247 562 272 568 q 176 514 211 558 q 148 478 161 496 q 119 449 135 460 l 88 450 l 102 627 q 216 610 149 610 l 555 610 z "},"{":{"ha":561,"x_min":130,"x_max":496,"o":"m 130 420 q 144 452 130 442 q 240 493 206 458 q 273 591 273 529 q 267 666 273 619 q 254 798 254 756 q 272 881 254 840 q 320 951 289 922 q 491 1015 382 1008 q 494 995 494 1004 q 491 977 494 987 q 405 948 429 968 q 361 855 361 913 q 370 776 361 821 q 389 651 389 691 q 376 575 389 612 q 338 511 362 539 q 206 429 290 454 q 376 281 336 389 q 389 210 389 245 q 385 150 389 175 q 374 99 380 124 q 359 -1 359 28 q 371 -52 359 -31 q 400 -85 382 -72 q 491 -119 432 -110 q 496 -139 496 -129 q 491 -158 496 -149 q 271 -18 320 -147 q 255 65 255 25 q 258 130 255 106 q 263 178 260 154 q 272 276 272 246 q 266 324 272 305 q 250 355 260 343 q 225 374 239 368 q 195 387 212 381 q 130 420 149 405 z "},"|":{"ha":559,"x_min":240,"x_max":318,"o":"m 297 -214 q 240 -192 271 -212 l 240 970 q 294 995 257 995 l 297 995 q 318 844 318 911 l 318 -60 q 297 -214 318 -164 z "},"}":{"ha":561,"x_min":65,"x_max":432,"o":"m 71 977 q 66 993 66 985 q 71 1015 66 1001 q 289 881 237 1004 q 307 800 307 840 q 303 735 307 760 q 297 686 300 711 q 288 587 288 616 q 322 492 288 526 q 416 452 357 457 q 432 420 432 442 q 396 400 414 408 q 362 387 378 393 q 333 373 347 380 q 309 353 319 366 q 288 286 288 326 q 290 224 288 247 q 297 178 293 201 q 306 86 306 122 q 245 -90 306 -29 q 71 -158 185 -151 q 65 -145 65 -153 q 71 -119 65 -127 q 201 -3 201 -98 q 191 77 201 28 q 172 207 172 169 q 185 281 172 245 q 223 347 199 318 q 355 429 272 404 q 184 575 224 468 q 172 646 172 612 q 176 706 172 681 q 186 755 180 731 q 200 853 200 821 q 190 907 200 886 q 163 942 180 928 q 71 977 131 968 z "},"~":{"ha":582,"x_min":4,"x_max":574,"o":"m 435 487 q 513 574 511 487 l 574 574 q 497 408 574 448 q 434 395 471 395 q 356 409 396 395 q 278 439 315 423 q 207 470 240 456 q 145 484 173 484 q 66 404 75 484 l 4 404 q 85 563 14 524 q 150 577 113 577 q 227 563 188 577 q 303 532 265 549 q 375 501 340 515 q 435 487 409 487 z "},"":{"ha":385,"x_min":104,"x_max":277,"o":"m 277 64 q 277 41 277 64 q 252 -1 277 17 q 188 -20 227 -20 q 127 -3 150 -20 q 104 51 104 14 q 107 130 104 88 q 117 216 111 171 q 130 310 123 262 q 144 403 137 357 q 158 490 151 449 q 166 551 164 532 q 170 582 169 571 q 172 602 170 592 q 192 629 177 629 q 213 571 208 629 q 223 499 214 557 q 240 397 233 442 q 253 304 247 352 q 265 212 260 256 q 277 64 277 111 m 110 808 q 127 859 110 842 q 192 890 158 890 q 244 872 226 890 q 276 816 276 842 q 269 775 276 790 q 251 749 262 760 q 200 724 227 724 q 159 730 174 724 q 134 749 144 737 q 110 808 110 774 z "},"":{"ha":711,"x_min":85,"x_max":633,"o":"m 414 574 q 273 519 328 574 q 211 357 211 459 q 240 198 211 256 q 329 112 269 141 l 414 574 m 357 -20 q 313 -172 345 -121 q 269 -136 281 -172 l 304 4 q 145 110 204 30 q 85 303 85 191 q 165 523 85 431 q 404 626 255 626 l 425 625 l 446 751 q 477 829 452 793 q 497 829 489 829 q 512 828 506 829 q 504 744 512 791 l 484 621 q 622 543 589 604 q 633 495 633 523 q 614 451 633 468 q 574 433 596 433 q 542 440 551 433 q 528 459 532 448 q 522 484 524 470 q 515 513 520 498 q 469 563 504 547 l 382 94 q 453 83 414 83 q 604 144 543 83 q 626 128 615 138 q 614 93 623 114 q 584 53 606 73 q 533 19 562 33 q 410 -13 472 -12 q 363 -20 387 -20 l 357 -20 z "},"":{"ha":840,"x_min":94,"x_max":705,"o":"m 545 446 q 549 412 549 433 q 545 383 549 390 l 390 383 l 400 237 q 387 158 400 199 q 426 141 404 151 q 469 123 447 132 q 551 102 521 102 q 600 110 581 102 q 632 129 618 118 q 654 154 646 140 q 670 179 663 168 q 692 205 685 205 q 705 202 699 205 q 682 64 696 94 q 653 19 669 35 q 556 -14 619 -14 q 395 39 487 -14 q 346 68 369 54 q 286 10 322 33 q 216 -14 250 -14 q 162 -4 182 -14 q 126 20 141 5 q 94 102 94 54 q 161 197 94 175 q 205 204 182 204 q 299 189 248 204 l 255 383 l 230 382 q 154 414 154 382 q 220 446 154 446 l 243 446 l 237 581 q 311 751 237 686 q 489 814 382 814 q 661 739 609 814 q 679 685 679 713 q 673 645 679 658 q 656 623 667 631 q 617 605 637 605 q 586 609 597 605 q 566 620 574 612 q 547 658 547 637 q 553 693 547 680 q 560 727 560 706 q 542 766 560 749 q 493 783 524 783 q 441 764 463 783 q 406 715 419 744 q 382 595 382 664 q 390 446 382 583 l 545 446 m 294 99 q 212 133 235 133 q 169 101 169 133 q 181 60 169 77 q 218 43 193 43 q 264 60 244 43 q 294 99 284 77 z "},"":{"ha":806,"x_min":96,"x_max":709,"o":"m 224 488 q 237 416 224 450 q 274 357 250 382 q 403 302 324 302 q 529 354 477 302 q 581 479 581 406 q 532 612 581 558 q 403 667 480 667 q 277 614 328 667 q 224 488 224 561 m 250 707 q 403 752 323 752 q 554 708 484 752 q 597 764 576 736 q 649 810 618 791 q 705 752 684 789 q 664 699 687 724 q 618 650 640 675 q 677 486 677 575 q 620 319 677 396 q 643 294 630 307 q 667 269 655 281 q 709 216 697 237 q 650 161 684 182 q 557 260 618 181 q 406 216 488 216 q 253 259 324 216 q 231 231 241 245 q 209 203 220 216 q 157 158 184 174 q 101 215 119 184 q 143 268 119 243 q 188 317 166 292 q 130 485 130 394 q 186 650 130 575 q 164 674 176 662 q 139 700 151 687 q 96 753 109 730 q 156 807 125 789 q 230 732 186 789 q 250 707 241 718 z "},"":{"ha":909,"x_min":31,"x_max":856,"o":"m 738 180 q 675 142 738 142 l 512 142 l 512 84 q 591 36 512 43 q 655 26 641 31 q 670 12 670 21 q 667 0 670 7 l 213 0 q 210 16 210 9 q 221 28 210 23 q 250 34 233 33 q 288 37 268 36 q 326 43 308 39 q 366 88 366 54 l 366 142 l 314 142 q 172 160 184 142 q 169 173 169 165 q 172 185 169 180 q 184 195 176 191 q 251 205 205 204 l 366 205 l 366 268 l 264 265 q 195 273 220 265 q 169 307 169 281 q 187 325 169 321 q 314 330 217 330 l 366 330 l 366 359 l 176 699 q 124 735 168 713 q 66 765 81 757 q 31 786 31 783 q 34 798 31 789 l 458 798 q 461 785 461 792 q 397 754 461 772 q 333 718 333 737 q 336 705 333 714 l 492 427 l 637 705 q 642 722 642 712 q 628 738 642 731 q 594 750 614 745 q 524 773 534 765 q 514 785 514 781 q 517 798 514 789 l 853 798 q 856 786 856 792 q 849 777 856 781 q 833 769 843 772 q 788 758 819 763 q 732 742 758 753 q 692 705 707 731 l 512 393 l 512 330 l 667 330 q 723 318 709 330 q 737 295 737 306 q 723 276 737 285 q 682 267 709 267 l 512 267 l 512 208 l 686 208 q 725 199 713 208 q 738 180 738 190 z "},"":{"ha":560,"x_min":241,"x_max":323,"o":"m 321 -12 q 297 -155 321 -117 q 262 -146 275 -155 q 241 -134 249 -138 l 241 276 q 297 300 256 300 q 323 124 323 250 l 321 -12 m 262 479 q 241 685 241 543 l 241 911 q 297 935 256 935 q 319 846 319 884 l 319 501 q 262 479 294 479 z "},"":{"ha":581,"x_min":71,"x_max":505,"o":"m 425 73 q 447 169 447 119 q 434 266 447 218 q 398 362 420 314 q 346 458 375 411 q 285 549 317 505 q 159 707 233 621 q 127 595 127 659 q 143 483 127 531 q 187 392 160 434 q 247 314 214 351 q 312 239 279 277 q 423 75 395 146 l 425 73 m 163 286 q 144 309 163 286 q 101 388 125 332 q 76 530 76 444 q 132 728 76 616 q 123 782 123 750 q 136 841 123 814 q 171 886 149 867 q 283 922 216 922 q 471 863 416 922 q 493 801 493 839 q 463 771 493 779 q 446 769 455 769 q 426 777 437 769 q 402 798 414 785 q 377 824 390 810 q 349 850 363 838 q 288 879 314 879 q 243 874 262 879 q 210 860 225 870 q 177 807 177 838 q 191 753 177 777 q 228 706 205 730 q 280 654 251 681 q 341 597 310 627 q 401 531 372 566 q 453 454 431 496 q 505 257 505 360 q 446 52 505 153 q 463 -16 463 16 q 448 -73 463 -47 q 408 -115 432 -98 q 293 -151 358 -151 q 111 -102 173 -151 q 71 -23 71 -71 q 85 10 71 -1 q 117 21 98 21 q 144 12 135 21 q 160 -11 153 3 q 174 -40 167 -24 q 195 -69 182 -56 q 291 -101 227 -101 q 399 -59 368 -101 q 410 -12 410 -43 q 386 55 410 19 q 323 126 361 90 q 243 201 286 162 q 163 286 200 239 z "},"":{"ha":760,"x_min":155,"x_max":602,"o":"m 177 861 q 182 866 177 861 q 200 877 186 871 q 229 882 214 882 q 258 877 244 882 q 281 861 271 871 q 303 816 303 839 q 297 779 303 793 q 281 755 292 766 q 236 734 259 734 q 200 740 214 734 q 176 755 186 746 q 155 800 155 777 q 161 837 155 823 q 177 861 167 850 m 527 882 q 574 867 558 882 q 602 816 602 839 q 596 779 602 793 q 580 755 590 766 q 527 734 557 734 q 481 750 496 734 q 454 800 454 777 q 459 837 454 823 q 475 861 465 850 q 527 882 496 882 z "},"":{"ha":1022,"x_min":50,"x_max":973,"o":"m 916 427 q 886 589 916 512 q 804 723 857 666 q 507 847 688 847 q 221 730 334 847 q 110 452 110 614 q 225 151 110 271 q 524 28 342 28 q 801 144 688 28 q 916 427 916 260 m 833 765 q 865 735 833 765 q 935 622 897 705 q 973 439 973 538 q 937 256 973 339 q 838 113 901 173 q 691 18 775 52 q 513 -16 606 -16 q 337 18 420 -16 q 190 112 254 52 q 87 255 125 172 q 50 437 50 338 q 87 620 50 536 q 189 763 125 703 q 336 857 253 823 q 511 891 420 891 q 686 858 602 891 q 833 765 769 825 m 592 733 q 610 729 592 733 q 643 719 627 724 q 670 715 659 715 q 689 732 682 715 l 732 732 l 747 570 q 739 568 743 568 l 726 568 q 526 715 673 715 q 376 644 433 715 q 319 460 319 573 q 449 209 319 264 q 533 191 490 191 q 603 196 576 191 q 652 211 629 201 q 738 266 690 227 q 755 255 747 263 q 590 146 713 173 q 503 139 553 139 q 395 161 452 139 q 298 222 339 183 q 210 439 210 308 q 299 652 210 566 q 513 743 385 735 q 592 733 557 743 z "},"":{"ha":480,"x_min":47,"x_max":449,"o":"m 196 420 q 298 467 243 420 l 298 580 q 249 565 277 572 q 197 546 222 557 q 139 470 139 518 q 156 432 139 444 q 196 420 172 420 m 299 437 q 154 370 220 370 q 57 418 83 370 q 47 459 47 435 q 60 505 47 484 q 95 539 73 525 q 143 563 116 553 q 197 580 170 573 q 251 593 225 587 q 298 606 277 599 l 298 650 q 285 721 298 701 q 213 758 262 758 q 148 735 174 758 q 139 720 139 728 q 141 706 139 711 q 146 696 144 701 q 155 675 155 682 q 149 660 155 667 q 134 647 143 653 q 104 634 115 634 q 86 640 93 634 q 74 655 79 646 q 62 695 62 673 q 81 737 62 718 q 126 768 100 756 q 226 789 174 789 q 307 780 278 789 q 353 751 336 771 q 384 629 384 718 l 380 529 q 388 440 380 450 q 406 430 395 430 q 438 441 416 430 l 449 408 q 361 370 427 370 q 317 390 332 370 q 299 437 301 410 z "},"":{"ha":538,"x_min":31,"x_max":487,"o":"m 300 58 q 271 43 287 43 q 230 84 252 55 l 31 344 l 235 600 q 253 623 244 612 q 269 642 261 635 q 304 625 292 642 q 230 474 288 571 q 155 344 172 376 q 193 273 172 311 q 235 197 214 235 q 300 58 286 104 m 250 344 q 451 609 393 539 q 487 591 475 609 q 470 548 479 566 l 366 344 l 467 136 q 481 91 475 120 q 454 77 469 77 q 416 117 437 87 l 250 344 z "},"":{"ha":912,"x_min":74,"x_max":812,"o":"m 156 503 q 74 524 97 503 q 82 566 74 548 q 96 606 90 584 l 213 606 l 711 607 q 802 600 756 607 q 812 420 812 533 l 812 273 q 791 194 812 215 q 744 202 769 194 q 707 213 718 211 l 707 503 l 156 503 z "},"":{"ha":524,"x_min":81,"x_max":467,"o":"m 102 265 q 82 289 83 275 q 81 314 81 303 q 84 356 81 343 q 150 359 108 359 l 397 359 q 465 355 436 359 q 467 319 467 342 q 465 267 467 280 q 397 265 444 265 l 102 265 z "},"":{"ha":1022,"x_min":50,"x_max":973,"o":"m 916 429 q 886 591 916 514 q 802 725 856 668 q 507 847 686 847 q 225 734 340 847 q 110 452 110 619 q 226 150 110 270 q 524 28 344 28 q 802 145 687 28 q 916 429 916 261 m 837 761 q 869 730 837 761 q 937 617 900 700 q 973 454 973 534 q 957 314 973 373 q 911 205 941 255 q 839 114 881 155 q 745 44 796 73 q 511 -16 637 -16 q 186 116 320 -16 q 50 438 50 249 q 86 616 50 534 q 186 760 123 699 q 333 856 249 821 q 511 891 416 891 q 690 857 606 891 q 837 761 774 822 m 427 461 q 548 477 514 463 q 599 515 581 492 q 617 574 617 538 q 605 632 617 610 q 574 669 593 654 q 473 694 536 694 q 427 690 450 694 l 427 461 m 642 163 q 475 437 523 350 l 427 437 l 427 229 q 481 186 427 195 q 505 180 494 183 l 505 163 l 256 163 l 255 180 q 280 187 267 184 q 304 195 294 190 q 329 237 329 208 l 329 645 q 284 699 329 681 q 260 709 272 703 l 261 725 l 506 725 q 701 650 644 725 q 722 586 722 623 q 708 525 722 549 q 673 484 694 501 q 568 442 634 455 q 590 407 576 429 q 620 358 603 385 q 654 303 636 331 q 690 251 673 275 q 752 191 730 197 q 758 184 754 186 q 766 180 762 182 q 777 163 777 175 l 642 163 z "},"":{"ha":524,"x_min":60,"x_max":469,"o":"m 60 708 l 60 795 l 469 795 l 469 708 l 60 708 z "},"":{"ha":477,"x_min":72,"x_max":402,"o":"m 402 709 q 354 593 402 642 q 238 545 307 545 q 120 593 168 545 q 72 709 72 641 q 120 824 72 776 q 238 873 169 873 q 354 824 307 873 q 402 709 402 775 m 368 708 q 358 757 368 734 q 330 798 348 781 q 239 836 291 836 q 146 798 186 836 q 109 709 109 761 q 146 617 109 654 q 239 580 185 580 q 330 618 292 580 q 368 708 368 656 z "},"":{"ha":745,"x_min":73,"x_max":673,"o":"m 326 212 l 327 342 l 108 342 q 78 375 83 357 q 73 419 73 393 q 218 435 117 435 l 327 433 l 326 564 q 332 686 326 635 q 368 688 353 688 q 412 686 398 688 q 420 559 420 637 l 418 433 l 532 434 q 671 427 617 434 q 673 386 673 406 q 671 347 673 366 q 549 341 616 341 l 418 342 l 419 229 q 412 90 419 144 q 372 87 391 87 q 332 90 352 87 q 326 212 326 144 z "},"":{"ha":656,"x_min":157,"x_max":455,"o":"m 172 743 q 157 761 157 743 q 171 790 157 771 q 212 845 185 809 q 266 917 239 880 q 352 1032 336 1010 q 400 1065 376 1065 q 450 1029 433 1065 q 455 1005 455 1019 q 435 972 455 990 q 380 922 415 954 q 312 859 346 890 q 209 766 235 788 q 172 743 184 743 z "},"":{"ha":698,"x_min":15,"x_max":682,"o":"m 567 -76 q 588 -92 567 -89 q 624 -97 610 -96 q 652 -99 639 -98 q 682 -107 682 -101 l 682 -152 l 505 -152 l 505 827 l 410 827 l 410 -152 l 212 -152 l 212 -107 q 255 -97 212 -99 q 312 -94 297 -96 q 347 -76 347 -89 l 347 391 q 118 438 199 391 q 15 634 15 498 q 197 864 15 812 q 363 884 267 884 l 680 884 l 682 857 q 639 844 673 849 q 589 834 605 839 q 566 817 573 829 l 567 -76 z "},"":{"ha":469,"x_min":119,"x_max":368,"o":"m 258 -182 q 155 -111 258 -118 l 186 7 l 243 7 l 259 -64 q 362 -133 340 -75 q 368 -173 368 -150 q 356 -218 368 -195 q 321 -256 343 -240 q 212 -288 276 -288 q 119 -267 168 -288 l 128 -228 q 184 -241 154 -241 q 236 -225 214 -241 q 258 -182 258 -208 z "},"":{"ha":536,"x_min":49,"x_max":488,"o":"m 268 759 q 238 759 268 759 q 175 720 209 759 q 142 621 142 682 q 153 523 142 559 q 182 461 163 486 q 277 408 220 408 q 362 446 329 408 q 399 548 399 486 q 366 688 399 627 q 268 759 327 759 m 49 583 q 67 668 49 630 q 115 732 85 706 q 266 789 179 789 q 422 734 360 789 q 488 582 488 676 q 422 427 488 488 q 271 371 361 371 q 116 429 180 371 q 49 583 49 490 z "},"":{"ha":538,"x_min":52,"x_max":507,"o":"m 239 58 q 345 275 263 138 q 384 344 366 309 q 345 409 366 375 q 302 479 323 444 q 234 625 252 567 q 270 642 245 642 q 408 475 337 570 q 507 344 478 380 l 313 90 q 267 43 286 56 q 239 58 251 43 m 57 91 q 141 285 71 160 q 172 344 159 316 q 141 400 159 369 q 106 463 123 431 q 52 591 62 543 q 87 608 64 608 q 202 462 142 547 q 288 344 263 376 q 267 314 281 335 q 235 267 253 294 q 196 211 216 241 q 155 155 175 181 q 85 76 109 94 q 57 91 69 76 z "},"":{"ha":1284,"x_min":78,"x_max":1203,"o":"m 275 409 q 278 402 275 409 q 292 388 281 395 q 314 380 303 380 q 339 379 326 379 q 357 372 353 379 l 357 347 l 78 347 l 78 371 q 115 381 98 381 q 142 385 131 382 q 168 450 168 393 l 168 735 q 141 795 168 783 q 114 803 130 801 q 79 813 98 806 l 81 837 q 247 882 178 849 q 270 878 258 882 l 269 465 q 275 409 269 423 m 368 -52 q 332 -55 355 -55 l 309 -55 q 327 5 319 -26 q 349 62 336 37 l 694 709 q 726 772 709 737 q 761 842 742 808 q 850 956 804 925 q 911 940 886 956 l 858 850 q 745 661 801 753 q 634 466 688 568 q 532 260 580 364 q 453 89 484 155 q 404 -3 422 22 q 368 -52 385 -28 m 994 220 l 994 486 l 815 220 l 994 220 m 1203 249 l 1183 170 l 1097 170 l 1097 105 q 1157 62 1097 72 q 1181 57 1171 60 l 1181 32 l 910 32 l 910 56 q 935 63 920 60 q 963 69 949 65 q 995 105 995 79 l 995 170 l 757 170 l 753 216 l 1002 570 q 1049 572 1025 571 q 1097 574 1073 574 l 1097 222 q 1155 230 1144 222 q 1170 245 1165 238 q 1183 262 1174 253 q 1203 249 1198 262 z "},"":{"ha":1242,"x_min":76,"x_max":1139,"o":"m 79 837 q 245 882 176 849 q 268 878 256 882 l 267 465 q 273 409 267 423 q 318 380 286 382 q 356 372 351 379 l 355 347 l 77 347 l 76 371 q 114 382 94 380 q 141 386 134 384 q 155 393 149 387 q 165 450 165 407 l 165 735 q 140 795 165 783 q 112 803 128 800 q 79 813 96 806 l 79 837 m 925 516 q 781 431 851 516 l 752 444 q 826 534 772 498 q 943 571 879 571 q 1105 487 1060 571 q 1121 424 1121 458 q 1106 359 1121 390 q 1068 300 1092 329 q 1016 242 1045 271 q 956 189 986 214 q 898 141 926 163 q 850 98 870 118 l 991 98 q 1053 106 1037 98 q 1101 171 1083 121 q 1109 182 1103 177 l 1139 182 l 1109 31 l 1065 31 l 859 31 q 807 31 833 31 q 755 31 781 31 l 753 60 q 799 108 772 81 q 854 165 825 135 q 911 227 883 195 q 962 292 939 259 q 1012 420 1012 366 q 962 509 1012 484 q 925 516 945 516 m 368 -52 q 332 -55 355 -55 l 309 -55 q 327 4 319 -26 q 349 62 334 33 l 694 709 q 726 773 710 738 q 760 843 741 808 q 850 956 802 924 q 911 940 886 956 q 770 706 841 821 q 651 497 700 590 q 571 337 602 405 q 510 203 541 270 q 368 -52 435 41 z "},"":{"ha":1310,"x_min":40,"x_max":1203,"o":"m 436 -52 q 399 -55 423 -55 l 377 -55 q 395 5 387 -26 q 417 62 404 37 l 762 709 q 793 772 777 737 q 829 842 810 808 q 918 956 872 925 q 979 940 954 956 l 926 850 q 812 661 869 753 q 702 466 756 568 q 600 260 648 364 q 520 89 551 155 q 471 -3 490 22 q 436 -52 453 -28 m 994 220 l 994 486 l 815 220 l 994 220 m 1203 249 l 1183 170 l 1097 170 l 1097 105 q 1157 62 1097 72 q 1181 57 1171 60 l 1181 32 l 910 32 l 910 56 q 935 63 920 60 q 963 69 949 65 q 995 105 995 79 l 995 170 l 757 170 l 753 216 l 1002 570 q 1049 572 1025 571 q 1097 574 1073 574 l 1097 222 q 1155 230 1144 222 q 1170 245 1165 238 q 1183 262 1174 253 q 1203 249 1198 262 m 105 802 q 96 814 96 802 q 98 823 96 817 q 218 895 135 877 q 267 900 242 900 q 317 892 292 900 q 361 870 342 885 q 404 781 404 837 q 363 686 404 725 q 269 644 326 650 q 406 593 354 644 q 458 456 458 540 q 381 319 458 370 q 222 275 313 275 q 60 326 111 275 q 40 371 40 345 q 56 413 40 397 q 86 429 71 429 q 110 426 102 429 q 125 415 118 422 q 139 387 139 401 q 134 362 139 372 q 129 342 129 352 q 189 305 129 316 q 223 303 203 303 q 268 315 243 303 q 311 349 294 328 q 347 454 347 391 q 278 595 347 559 q 226 608 254 608 q 170 602 198 608 l 147 627 q 252 686 222 665 q 323 780 323 734 q 252 852 323 852 q 190 835 220 852 q 141 809 159 817 q 105 802 124 802 z "},"":{"ha":547,"x_min":46,"x_max":495,"o":"m 400 765 q 391 755 400 765 q 367 739 382 746 q 335 732 352 732 q 302 739 317 732 q 275 758 287 746 q 250 808 250 782 q 257 850 250 834 q 275 876 264 865 q 335 901 301 901 q 387 883 370 901 q 418 817 418 850 q 400 765 418 783 m 367 650 q 380 576 371 612 q 389 511 389 540 q 370 466 389 483 q 324 430 351 448 q 264 393 296 412 q 203 349 231 373 q 139 225 139 291 q 189 114 139 161 q 302 66 239 66 q 341 79 325 66 q 373 108 358 92 q 405 136 389 123 q 438 149 421 149 q 464 144 454 149 q 480 132 473 140 q 495 89 495 115 q 478 44 495 64 q 435 13 461 24 q 329 -9 386 -9 q 223 11 272 -9 q 134 64 174 31 q 46 235 46 139 q 179 456 46 372 q 287 544 262 507 q 312 623 312 581 l 312 650 l 367 650 z "},"":{"ha":926,"x_min":-2,"x_max":939,"o":"m 548 420 l 414 754 l 290 420 l 548 420 m 613 63 q 622 68 613 63 q 643 87 631 73 q 655 116 655 102 q 650 148 655 130 q 637 189 645 166 q 620 238 629 212 q 601 288 610 264 q 573 361 578 346 l 267 361 q 257 334 264 351 q 241 293 250 316 q 223 245 232 271 q 206 197 214 220 q 189 121 189 144 q 200 85 189 98 q 230 64 212 72 q 318 39 253 52 l 318 0 l -2 0 l -2 35 q 26 53 12 47 q 55 64 41 58 q 103 104 90 79 q 123 147 116 128 q 138 185 130 166 l 391 835 q 394 850 394 842 q 395 867 395 859 q 404 898 397 889 q 510 866 468 898 l 821 119 q 871 64 838 81 q 903 51 886 56 q 939 35 920 45 l 937 0 l 543 0 l 541 35 q 613 63 595 53 m 616 1034 q 601 1016 616 1016 q 573 1030 589 1016 q 526 1073 556 1045 q 461 1132 496 1100 q 393 1195 427 1163 q 338 1245 358 1227 q 318 1277 318 1263 q 322 1302 318 1292 q 335 1320 327 1312 q 368 1337 351 1337 q 414 1315 397 1337 q 455 1259 431 1292 q 507 1190 480 1225 q 586 1085 558 1122 q 614 1043 613 1048 q 616 1034 616 1038 z "},"":{"ha":926,"x_min":-2,"x_max":939,"o":"m 548 420 l 414 754 l 290 420 l 548 420 m 613 63 q 622 68 613 63 q 643 87 631 73 q 655 116 655 102 q 650 148 655 130 q 637 189 645 166 q 620 238 629 212 q 601 288 610 264 q 573 361 578 346 l 267 361 q 257 334 264 351 q 241 293 250 316 q 223 245 232 271 q 206 197 214 220 q 189 121 189 144 q 200 85 189 98 q 230 64 212 72 q 318 39 253 52 l 318 0 l -2 0 l -2 35 q 26 53 12 47 q 55 64 41 58 q 103 104 90 79 q 123 147 116 128 q 138 185 130 166 l 391 835 q 394 850 394 842 q 395 867 395 859 q 404 898 397 889 q 510 866 468 898 l 821 119 q 871 64 838 81 q 903 51 886 56 q 939 35 920 45 l 937 0 l 543 0 l 541 35 q 613 63 595 53 m 334 1016 q 318 1034 318 1016 q 332 1063 318 1044 q 373 1117 347 1082 q 427 1190 400 1153 q 513 1305 497 1283 q 562 1337 538 1337 q 612 1302 595 1337 q 616 1277 616 1292 q 596 1245 616 1263 q 542 1195 576 1227 q 473 1131 507 1163 q 371 1038 396 1061 q 334 1016 345 1016 z "},"":{"ha":926,"x_min":-2,"x_max":939,"o":"m 548 420 l 414 754 l 290 420 l 548 420 m 613 63 q 622 68 613 63 q 643 87 631 73 q 655 116 655 102 q 650 148 655 130 q 637 189 645 166 q 620 238 629 212 q 601 288 610 264 q 573 361 578 346 l 267 361 q 257 334 264 351 q 241 293 250 316 q 223 245 232 271 q 206 197 214 220 q 189 121 189 144 q 200 85 189 98 q 230 64 212 72 q 318 39 253 52 l 318 0 l -2 0 l -2 35 q 26 53 12 47 q 55 64 41 58 q 103 104 90 79 q 123 147 116 128 q 138 185 130 166 l 391 835 q 394 850 394 842 q 395 867 395 859 q 404 898 397 889 q 510 866 468 898 l 821 119 q 871 64 838 81 q 903 51 886 56 q 939 35 920 45 l 937 0 l 543 0 l 541 35 q 613 63 595 53 m 656 997 q 467 1188 640 997 q 279 997 295 997 q 267 1008 267 997 q 336 1154 267 1021 q 412 1299 405 1288 q 467 1338 435 1338 q 525 1295 503 1338 q 541 1264 528 1287 q 568 1210 553 1241 l 602 1144 q 667 1004 667 1012 q 656 997 667 997 z "},"":{"ha":926,"x_min":-2,"x_max":939,"o":"m 548 420 l 414 754 l 290 420 l 548 420 m 613 63 q 622 68 613 63 q 643 87 631 73 q 655 116 655 102 q 650 148 655 130 q 637 189 645 166 q 620 238 629 212 q 601 288 610 264 q 573 361 578 346 l 267 361 q 257 334 264 351 q 241 293 250 316 q 223 245 232 271 q 206 197 214 220 q 189 121 189 144 q 200 85 189 98 q 230 64 212 72 q 318 39 253 52 l 318 0 l -2 0 l -2 35 q 26 53 12 47 q 55 64 41 58 q 103 104 90 79 q 123 147 116 128 q 138 185 130 166 l 391 835 q 394 850 394 842 q 395 867 395 859 q 404 898 397 889 q 510 866 468 898 l 821 119 q 871 64 838 81 q 903 51 886 56 q 939 35 920 45 l 937 0 l 543 0 l 541 35 q 613 63 595 53 m 345 1112 q 291 1040 303 1112 l 265 1040 q 374 1198 269 1198 q 465 1172 415 1198 q 540 1135 515 1146 q 585 1123 565 1123 q 644 1196 630 1123 l 669 1196 q 640 1074 668 1115 q 560 1033 611 1033 q 467 1060 519 1033 q 390 1099 415 1087 q 345 1112 364 1112 z "},"":{"ha":926,"x_min":-2,"x_max":939,"o":"m 548 420 l 414 754 l 290 420 l 548 420 m 613 63 q 622 68 613 63 q 643 87 631 73 q 655 116 655 102 q 650 148 655 130 q 637 189 645 166 q 620 238 629 212 q 601 288 610 264 q 573 361 578 346 l 267 361 q 257 334 264 351 q 241 293 250 316 q 223 245 232 271 q 206 197 214 220 q 189 121 189 144 q 200 85 189 98 q 230 64 212 72 q 318 39 253 52 l 318 0 l -2 0 l -2 35 q 26 53 12 47 q 55 64 41 58 q 103 104 90 79 q 123 147 116 128 q 138 185 130 166 l 391 835 q 394 850 394 842 q 395 867 395 859 q 404 898 397 889 q 510 866 468 898 l 821 119 q 871 64 838 81 q 903 51 886 56 q 939 35 920 45 l 937 0 l 543 0 l 541 35 q 613 63 595 53 m 266 1133 q 270 1138 266 1133 q 289 1149 275 1143 q 318 1155 302 1155 q 347 1149 333 1155 q 370 1133 360 1143 q 392 1088 392 1112 q 386 1052 392 1065 q 370 1028 380 1038 q 325 1007 348 1007 q 289 1013 302 1007 q 265 1028 275 1019 q 244 1073 244 1050 q 250 1109 244 1096 q 266 1133 256 1123 m 616 1155 q 663 1139 647 1155 q 690 1088 690 1112 q 685 1052 690 1065 q 669 1028 679 1038 q 616 1007 646 1007 q 570 1023 585 1007 q 543 1073 543 1050 q 548 1109 543 1096 q 564 1133 554 1123 q 616 1155 585 1155 z "},"":{"ha":926,"x_min":-2,"x_max":939,"o":"m 548 420 l 414 754 l 290 420 l 548 420 m 613 63 q 622 68 613 63 q 643 87 631 73 q 655 116 655 102 q 650 148 655 130 q 637 189 645 166 q 620 238 629 212 q 601 288 610 264 q 573 361 578 346 l 267 361 q 257 334 264 351 q 241 293 250 316 q 223 245 232 271 q 206 197 214 220 q 189 121 189 144 q 200 85 189 98 q 230 64 212 72 q 318 39 253 52 l 318 0 l -2 0 l -2 35 q 26 53 12 47 q 55 64 41 58 q 103 104 90 79 q 123 147 116 128 q 138 185 130 166 l 391 835 q 394 850 394 842 q 395 867 395 859 q 404 898 397 889 q 510 866 468 898 l 821 119 q 871 64 838 81 q 903 51 886 56 q 939 35 920 45 l 937 0 l 543 0 l 541 35 q 613 63 595 53 m 531 1205 q 523 1214 531 1205 q 499 1230 514 1223 q 467 1236 484 1236 q 435 1230 450 1236 q 410 1213 420 1223 q 387 1156 387 1188 q 404 1105 387 1122 q 459 1076 433 1076 q 499 1082 484 1076 q 525 1100 514 1088 q 549 1156 549 1124 q 531 1205 549 1187 m 467 1286 q 561 1247 522 1286 q 600 1156 600 1210 q 561 1065 600 1103 q 467 1025 522 1025 q 373 1064 412 1025 q 335 1156 335 1102 q 374 1247 335 1210 q 467 1286 413 1286 z "},"":{"ha":1333,"x_min":-33,"x_max":1281,"o":"m 1145 316 q 1106 315 1125 315 q 1040 391 1060 372 q 960 433 998 431 l 719 433 l 774 174 q 785 131 781 151 q 796 95 790 111 q 836 53 810 60 q 869 48 852 48 q 909 47 887 48 l 998 50 q 1121 68 1074 50 q 1160 93 1145 75 q 1185 133 1174 111 q 1210 179 1197 155 q 1244 220 1223 203 q 1281 218 1259 220 l 1243 -14 q 1199 -15 1215 -15 q 1179 -13 1183 -15 q 1171 -7 1175 -10 q 1147 0 1160 0 l 498 0 l 498 27 q 499 35 498 31 q 579 63 558 50 q 622 131 622 90 l 618 163 l 573 413 l 313 413 l 219 243 q 201 212 210 227 q 184 182 192 197 q 166 122 166 146 q 178 84 166 98 q 210 62 191 71 q 252 49 229 54 q 297 37 275 44 q 296 27 297 32 q 295 17 296 22 l 294 0 l -32 0 l -33 17 q -31 35 -33 26 q -1 50 -18 43 q 34 66 16 56 q 98 130 75 90 q 401 682 304 505 q 431 777 431 741 q 408 830 431 812 q 445 898 438 891 q 548 885 513 898 l 1048 885 q 1087 897 1065 885 q 1143 895 1118 897 l 1181 676 q 1146 675 1163 675 q 1112 710 1125 688 q 1086 754 1098 732 q 1059 794 1074 776 q 1023 819 1045 812 q 830 835 946 835 l 762 835 q 629 820 681 835 q 668 653 647 736 q 709 488 689 571 l 887 488 q 985 494 941 488 q 1036 573 1022 504 q 1044 606 1040 591 q 1081 604 1059 606 l 1145 316 m 564 465 l 505 766 l 340 465 l 564 465 z "},"":{"ha":976,"x_min":76,"x_max":903,"o":"m 595 55 q 870 206 789 55 l 903 201 l 897 73 q 633 -11 785 10 q 547 -18 587 -18 q 212 102 342 -18 q 76 434 76 227 q 214 764 76 633 q 586 900 357 900 q 868 844 724 900 l 896 640 l 864 638 q 833 683 851 651 q 784 758 799 743 q 567 848 694 848 q 336 748 430 848 q 235 461 235 641 q 332 165 235 275 q 595 55 431 55 m 565 -182 q 462 -111 565 -118 l 494 7 l 550 7 l 566 -64 q 669 -133 647 -75 q 675 -173 675 -150 q 663 -218 675 -195 q 629 -256 650 -240 q 519 -288 583 -288 q 427 -267 475 -288 l 435 -228 q 491 -241 461 -241 q 543 -225 522 -241 q 565 -182 565 -208 z "},"":{"ha":929,"x_min":46,"x_max":888,"o":"m 812 890 q 838 887 825 890 l 838 676 l 802 675 q 777 711 786 690 q 760 754 768 733 q 738 793 751 775 q 702 818 725 810 q 650 829 679 825 q 591 835 622 833 q 495 838 551 838 q 339 831 391 838 q 336 762 336 796 l 336 486 l 532 486 q 630 502 608 486 q 665 537 652 518 q 693 586 677 556 l 703 604 l 742 604 l 742 313 l 703 311 q 658 393 682 370 q 558 435 614 435 l 336 435 l 336 206 q 376 72 336 104 q 491 47 404 47 l 557 47 q 684 60 643 47 q 753 93 726 73 q 794 140 780 112 q 817 191 808 168 q 845 232 827 214 l 888 232 l 843 -6 q 821 -8 831 -8 l 743 0 l 47 0 l 46 33 q 110 56 77 50 q 155 66 143 62 q 175 81 167 70 q 191 181 191 106 l 191 694 q 157 807 191 784 q 113 826 140 819 q 46 848 85 833 l 47 883 l 739 883 l 812 890 m 616 1034 q 600 1016 616 1016 q 572 1030 589 1016 q 525 1073 555 1045 q 461 1132 495 1100 q 392 1195 427 1163 q 337 1245 357 1227 q 317 1277 317 1263 q 322 1302 317 1292 q 334 1320 326 1312 q 367 1337 351 1337 q 413 1315 396 1337 q 455 1259 430 1292 q 507 1190 479 1225 q 585 1085 557 1122 q 614 1043 612 1048 q 616 1034 615 1038 z "},"":{"ha":929,"x_min":46,"x_max":888,"o":"m 812 890 q 838 887 825 890 l 838 676 l 802 675 q 777 711 786 690 q 760 754 768 733 q 738 793 751 775 q 702 818 725 810 q 650 829 679 825 q 591 835 622 833 q 495 838 551 838 q 339 831 391 838 q 336 762 336 796 l 336 486 l 532 486 q 630 502 608 486 q 665 537 652 518 q 693 586 677 556 l 703 604 l 742 604 l 742 313 l 703 311 q 658 393 682 370 q 558 435 614 435 l 336 435 l 336 206 q 376 72 336 104 q 491 47 404 47 l 557 47 q 684 60 643 47 q 753 93 726 73 q 794 140 780 112 q 817 191 808 168 q 845 232 827 214 l 888 232 l 843 -6 q 821 -8 831 -8 l 743 0 l 47 0 l 46 33 q 110 56 77 50 q 155 66 143 62 q 175 81 167 70 q 191 181 191 106 l 191 694 q 157 807 191 784 q 113 826 140 819 q 46 848 85 833 l 47 883 l 739 883 l 812 890 m 333 1016 q 317 1034 317 1016 q 332 1063 317 1044 q 373 1117 346 1082 q 427 1190 399 1153 q 513 1305 496 1283 q 561 1337 537 1337 q 611 1302 594 1337 q 616 1277 616 1292 q 596 1245 616 1263 q 541 1195 576 1227 q 473 1131 507 1163 q 370 1038 395 1061 q 333 1016 345 1016 z "},"":{"ha":929,"x_min":46,"x_max":888,"o":"m 812 890 q 838 887 825 890 l 838 676 l 802 675 q 777 711 786 690 q 760 754 768 733 q 738 793 751 775 q 702 818 725 810 q 650 829 679 825 q 591 835 622 833 q 495 838 551 838 q 339 831 391 838 q 336 762 336 796 l 336 486 l 532 486 q 630 502 608 486 q 665 537 652 518 q 693 586 677 556 l 703 604 l 742 604 l 742 313 l 703 311 q 658 393 682 370 q 558 435 614 435 l 336 435 l 336 206 q 376 72 336 104 q 491 47 404 47 l 557 47 q 684 60 643 47 q 753 93 726 73 q 794 140 780 112 q 817 191 808 168 q 845 232 827 214 l 888 232 l 843 -6 q 821 -8 831 -8 l 743 0 l 47 0 l 46 33 q 110 56 77 50 q 155 66 143 62 q 175 81 167 70 q 191 181 191 106 l 191 694 q 157 807 191 784 q 113 826 140 819 q 46 848 85 833 l 47 883 l 739 883 l 812 890 m 655 997 q 467 1188 639 997 q 278 997 294 997 q 267 1008 267 997 q 335 1154 267 1021 q 411 1299 404 1288 q 467 1338 434 1338 q 524 1295 502 1338 q 540 1264 528 1287 q 568 1210 552 1241 l 601 1144 q 667 1004 667 1012 q 655 997 667 997 z "},"":{"ha":929,"x_min":46,"x_max":888,"o":"m 812 890 q 838 887 825 890 l 838 676 l 802 675 q 777 711 786 690 q 760 754 768 733 q 738 793 751 775 q 702 818 725 810 q 650 829 679 825 q 591 835 622 833 q 495 838 551 838 q 339 831 391 838 q 336 762 336 796 l 336 486 l 532 486 q 630 502 608 486 q 665 537 652 518 q 693 586 677 556 l 703 604 l 742 604 l 742 313 l 703 311 q 658 393 682 370 q 558 435 614 435 l 336 435 l 336 206 q 376 72 336 104 q 491 47 404 47 l 557 47 q 684 60 643 47 q 753 93 726 73 q 794 140 780 112 q 817 191 808 168 q 845 232 827 214 l 888 232 l 843 -6 q 821 -8 831 -8 l 743 0 l 47 0 l 46 33 q 110 56 77 50 q 155 66 143 62 q 175 81 167 70 q 191 181 191 106 l 191 694 q 157 807 191 784 q 113 826 140 819 q 46 848 85 833 l 47 883 l 739 883 l 812 890 m 265 1133 q 270 1138 265 1133 q 288 1149 275 1143 q 317 1155 302 1155 q 346 1149 332 1155 q 370 1133 359 1143 q 391 1088 391 1112 q 386 1052 391 1065 q 370 1028 380 1038 q 325 1007 347 1007 q 288 1013 302 1007 q 264 1028 275 1019 q 243 1073 243 1050 q 249 1109 243 1096 q 265 1133 255 1123 m 615 1155 q 662 1139 646 1155 q 690 1088 690 1112 q 684 1052 690 1065 q 668 1028 678 1038 q 615 1007 646 1007 q 569 1023 585 1007 q 542 1073 542 1050 q 548 1109 542 1096 q 563 1133 553 1123 q 615 1155 584 1155 z "},"":{"ha":544,"x_min":46,"x_max":501,"o":"m 345 176 q 358 90 345 109 q 384 66 371 71 q 415 57 397 60 q 454 50 432 54 q 501 36 475 45 l 500 0 l 49 0 l 49 35 q 114 54 79 50 q 162 63 149 59 q 183 81 174 68 q 199 189 199 107 l 199 699 q 154 819 199 806 q 123 826 140 823 q 46 848 73 833 l 47 883 l 497 883 l 498 848 q 447 833 474 840 q 397 817 420 827 q 345 733 345 791 l 345 176 m 423 1034 q 408 1016 423 1016 q 379 1030 396 1016 q 333 1073 363 1045 q 268 1132 302 1100 q 199 1195 234 1163 q 145 1245 165 1227 q 125 1277 125 1263 q 129 1302 125 1292 q 142 1320 134 1312 q 174 1337 158 1337 q 220 1315 203 1337 q 262 1259 237 1292 q 314 1190 287 1225 q 392 1085 365 1122 q 421 1043 420 1048 q 423 1034 422 1038 z "},"":{"ha":544,"x_min":46,"x_max":501,"o":"m 345 176 q 358 90 345 109 q 384 66 371 71 q 415 57 397 60 q 454 50 432 54 q 501 36 475 45 l 500 0 l 49 0 l 49 35 q 114 54 79 50 q 162 63 149 59 q 183 81 174 68 q 199 189 199 107 l 199 699 q 154 819 199 806 q 123 826 140 823 q 46 848 73 833 l 47 883 l 497 883 l 498 848 q 447 833 474 840 q 397 817 420 827 q 345 733 345 791 l 345 176 m 140 1016 q 125 1034 125 1016 q 139 1063 125 1044 q 180 1117 153 1082 q 234 1190 207 1153 q 320 1305 304 1283 q 368 1337 345 1337 q 418 1302 401 1337 q 423 1277 423 1292 q 403 1245 423 1263 q 349 1195 383 1227 q 280 1131 314 1163 q 177 1038 203 1061 q 140 1016 152 1016 z "},"":{"ha":544,"x_min":46,"x_max":501,"o":"m 345 176 q 358 90 345 109 q 384 66 371 71 q 415 57 397 60 q 454 50 432 54 q 501 36 475 45 l 500 0 l 49 0 l 49 35 q 114 54 79 50 q 162 63 149 59 q 183 81 174 68 q 199 189 199 107 l 199 699 q 154 819 199 806 q 123 826 140 823 q 46 848 73 833 l 47 883 l 497 883 l 498 848 q 447 833 474 840 q 397 817 420 827 q 345 733 345 791 l 345 176 m 463 997 q 274 1188 446 997 q 85 997 102 997 q 74 1008 74 997 q 143 1154 74 1021 q 218 1299 212 1288 q 274 1338 241 1338 q 332 1295 309 1338 q 347 1264 335 1287 q 375 1210 359 1241 l 408 1144 q 474 1004 474 1012 q 463 997 474 997 z "},"":{"ha":544,"x_min":46,"x_max":501,"o":"m 345 176 q 358 90 345 109 q 384 66 371 71 q 415 57 397 60 q 454 50 432 54 q 501 36 475 45 l 500 0 l 49 0 l 49 35 q 114 54 79 50 q 162 63 149 59 q 183 81 174 68 q 199 189 199 107 l 199 699 q 154 819 199 806 q 123 826 140 823 q 46 848 73 833 l 47 883 l 497 883 l 498 848 q 447 833 474 840 q 397 817 420 827 q 345 733 345 791 l 345 176 m 72 1133 q 77 1138 72 1133 q 96 1149 82 1143 q 124 1155 109 1155 q 153 1149 140 1155 q 177 1133 167 1143 q 199 1088 199 1112 q 193 1052 199 1065 q 177 1028 187 1038 q 132 1007 155 1007 q 96 1013 109 1007 q 72 1028 82 1019 q 51 1073 51 1050 q 57 1109 51 1096 q 72 1133 62 1123 m 422 1155 q 469 1139 454 1155 q 497 1088 497 1112 q 491 1052 497 1065 q 475 1028 486 1038 q 422 1007 453 1007 q 376 1023 392 1007 q 349 1073 349 1050 q 355 1109 349 1096 q 370 1133 361 1123 q 422 1155 391 1155 z "},"":{"ha":1094,"x_min":46,"x_max":1025,"o":"m 198 432 l 75 432 l 75 519 l 198 519 l 198 685 q 171 800 198 779 q 103 833 142 823 q 46 848 64 842 l 47 883 l 449 883 q 981 650 854 883 q 1025 464 1025 566 q 994 280 1025 361 q 902 138 963 200 q 535 0 766 0 l 47 0 l 46 35 q 97 48 71 43 q 146 64 124 54 q 198 149 198 88 l 198 432 m 344 432 l 344 184 q 360 100 344 125 q 444 54 389 57 q 542 52 473 52 q 675 84 610 52 q 781 167 739 116 q 864 413 864 268 q 768 709 864 600 q 458 831 662 831 l 344 831 l 344 519 l 484 519 l 484 432 l 344 432 z "},"":{"ha":1169,"x_min":46,"x_max":1123,"o":"m 992 -6 q 920 -6 964 -18 q 809 121 860 66 l 273 684 l 273 208 q 309 77 273 102 q 378 52 338 58 q 439 36 419 46 q 437 0 439 18 l 54 0 q 53 11 53 5 l 53 37 q 110 51 81 45 q 161 70 138 58 q 219 162 213 97 l 219 740 q 142 812 188 790 q 98 829 121 822 q 46 848 74 836 l 46 883 l 283 883 l 921 223 l 921 650 q 907 752 921 712 q 878 804 894 792 q 843 823 863 817 q 803 833 824 829 q 764 847 783 838 q 766 883 764 865 l 1123 883 l 1123 846 q 1071 824 1093 833 q 1033 805 1048 814 q 1006 785 1017 796 q 990 757 996 774 q 978 558 980 726 q 977 283 977 391 q 984 116 977 176 q 992 -6 991 56 m 462 1112 q 408 1040 420 1112 l 382 1040 q 491 1198 387 1198 q 582 1172 532 1198 q 657 1135 632 1146 q 703 1123 682 1123 q 761 1196 747 1123 l 787 1196 q 757 1074 785 1115 q 677 1033 728 1033 q 584 1060 636 1033 q 507 1099 532 1087 q 462 1112 481 1112 z "},"":{"ha":1087,"x_min":76,"x_max":1011,"o":"m 234 484 q 259 309 234 391 q 328 165 283 226 q 568 35 422 35 q 772 130 693 35 q 853 397 853 229 q 761 718 853 589 q 522 848 667 848 q 320 757 399 848 q 234 484 234 660 m 76 435 q 95 574 76 509 q 146 691 113 640 q 223 782 178 743 q 320 848 268 821 q 545 900 425 900 q 873 775 741 900 q 994 571 960 694 q 1011 423 1011 510 q 973 251 1011 336 q 869 107 935 167 q 532 -18 731 -18 q 215 102 346 -18 q 76 435 76 229 m 692 1034 q 677 1016 692 1016 q 649 1030 665 1016 q 602 1073 632 1045 q 537 1132 572 1100 q 469 1195 503 1163 q 414 1245 434 1227 q 394 1277 394 1263 q 398 1302 394 1292 q 411 1320 403 1312 q 444 1337 427 1337 q 490 1315 473 1337 q 531 1259 507 1292 q 583 1190 556 1225 q 662 1085 634 1122 q 690 1043 689 1048 q 692 1034 692 1038 z "},"":{"ha":1087,"x_min":76,"x_max":1011,"o":"m 234 484 q 259 309 234 391 q 328 165 283 226 q 568 35 422 35 q 772 130 693 35 q 853 397 853 229 q 761 718 853 589 q 522 848 667 848 q 320 757 399 848 q 234 484 234 660 m 76 435 q 95 574 76 509 q 146 691 113 640 q 223 782 178 743 q 320 848 268 821 q 545 900 425 900 q 873 775 741 900 q 994 571 960 694 q 1011 423 1011 510 q 973 251 1011 336 q 869 107 935 167 q 532 -18 731 -18 q 215 102 346 -18 q 76 435 76 229 m 410 1016 q 394 1034 394 1016 q 408 1063 394 1044 q 449 1117 422 1082 q 503 1190 476 1153 q 589 1305 573 1283 q 637 1337 614 1337 q 688 1302 671 1337 q 692 1277 692 1292 q 672 1245 692 1263 q 618 1195 652 1227 q 549 1131 583 1163 q 447 1038 472 1061 q 410 1016 421 1016 z "},"":{"ha":1087,"x_min":76,"x_max":1011,"o":"m 234 484 q 259 309 234 391 q 328 165 283 226 q 568 35 422 35 q 772 130 693 35 q 853 397 853 229 q 761 718 853 589 q 522 848 667 848 q 320 757 399 848 q 234 484 234 660 m 76 435 q 95 574 76 509 q 146 691 113 640 q 223 782 178 743 q 320 848 268 821 q 545 900 425 900 q 873 775 741 900 q 994 571 960 694 q 1011 423 1011 510 q 973 251 1011 336 q 869 107 935 167 q 532 -18 731 -18 q 215 102 346 -18 q 76 435 76 229 m 732 997 q 543 1188 715 997 q 355 997 371 997 q 343 1008 343 997 q 412 1154 343 1021 q 488 1299 481 1288 q 543 1338 511 1338 q 601 1295 578 1338 q 616 1264 604 1287 q 644 1210 629 1241 l 677 1144 q 743 1004 743 1012 q 732 997 743 997 z "},"":{"ha":1087,"x_min":76,"x_max":1011,"o":"m 234 484 q 259 309 234 391 q 328 165 283 226 q 568 35 422 35 q 772 130 693 35 q 853 397 853 229 q 761 718 853 589 q 522 848 667 848 q 320 757 399 848 q 234 484 234 660 m 76 435 q 95 574 76 509 q 146 691 113 640 q 223 782 178 743 q 320 848 268 821 q 545 900 425 900 q 873 775 741 900 q 994 571 960 694 q 1011 423 1011 510 q 973 251 1011 336 q 869 107 935 167 q 532 -18 731 -18 q 215 102 346 -18 q 76 435 76 229 m 420 1112 q 367 1040 379 1112 l 341 1040 q 450 1198 345 1198 q 541 1172 491 1198 q 616 1135 591 1146 q 661 1123 641 1123 q 720 1196 706 1123 l 745 1196 q 715 1074 744 1115 q 636 1033 687 1033 q 543 1060 595 1033 q 466 1099 491 1087 q 420 1112 440 1112 z "},"":{"ha":1087,"x_min":76,"x_max":1011,"o":"m 234 484 q 259 309 234 391 q 328 165 283 226 q 568 35 422 35 q 772 130 693 35 q 853 397 853 229 q 761 718 853 589 q 522 848 667 848 q 320 757 399 848 q 234 484 234 660 m 76 435 q 95 574 76 509 q 146 691 113 640 q 223 782 178 743 q 320 848 268 821 q 545 900 425 900 q 873 775 741 900 q 994 571 960 694 q 1011 423 1011 510 q 973 251 1011 336 q 869 107 935 167 q 532 -18 731 -18 q 215 102 346 -18 q 76 435 76 229 m 341 1133 q 346 1138 341 1133 q 365 1149 351 1143 q 394 1155 378 1155 q 422 1149 409 1155 q 446 1133 436 1143 q 468 1088 468 1112 q 462 1052 468 1065 q 446 1028 456 1038 q 401 1007 424 1007 q 365 1013 378 1007 q 341 1028 351 1019 q 320 1073 320 1050 q 326 1109 320 1096 q 341 1133 332 1123 m 692 1155 q 739 1139 723 1155 q 766 1088 766 1112 q 761 1052 766 1065 q 745 1028 755 1038 q 692 1007 722 1007 q 646 1023 661 1007 q 618 1073 618 1050 q 624 1109 618 1096 q 640 1133 630 1123 q 692 1155 661 1155 z "},"":{"ha":745,"x_min":96,"x_max":649,"o":"m 159 144 q 97 206 123 170 q 146 260 119 233 l 305 419 l 146 578 q 96 632 108 616 q 159 694 120 666 q 278 581 211 649 q 372 486 346 513 q 586 694 518 636 q 649 632 617 671 q 599 578 637 617 l 439 419 q 648 205 614 245 q 586 143 622 170 q 532 193 570 154 l 372 352 l 214 193 q 159 144 186 166 z "},"":{"ha":1087,"x_min":76,"x_max":1011,"o":"m 386 116 q 568 35 459 35 q 772 130 693 35 q 853 397 853 229 q 765 709 853 580 q 386 116 570 437 m 716 764 q 522 848 637 848 q 319 754 399 848 q 234 490 234 655 q 332 168 234 290 l 716 764 m 560 900 q 768 842 671 900 q 787 879 779 861 q 804 913 795 897 q 859 958 825 945 q 905 920 886 951 l 832 806 q 998 552 962 709 q 1011 434 1011 498 q 994 309 1011 370 q 944 198 976 248 q 868 107 913 147 q 770 39 824 67 q 538 -18 662 -18 q 332 39 414 -18 q 309 -4 319 16 q 286 -41 298 -24 q 231 -92 260 -78 q 191 -48 204 -80 q 221 -3 205 -26 l 267 71 q 76 435 76 198 q 214 774 76 643 q 560 900 349 900 z "},"":{"ha":1112,"x_min":18,"x_max":1102,"o":"m 162 450 l 165 694 q 160 769 165 745 q 137 805 154 793 q 100 825 121 817 q 56 837 79 832 q 18 848 34 842 l 20 883 l 467 883 l 469 848 q 417 833 440 838 q 377 824 395 828 q 348 813 360 820 q 327 793 335 807 q 311 694 311 768 l 311 404 q 372 155 311 240 q 602 56 444 56 q 893 416 893 56 l 893 682 q 882 779 893 757 q 859 808 871 800 q 829 822 847 817 q 788 833 812 827 q 735 848 765 838 l 735 883 l 1101 883 l 1102 848 q 1064 836 1086 839 q 1021 827 1042 832 q 960 780 970 816 q 949 693 949 743 l 951 484 q 933 256 951 329 q 888 136 914 182 q 818 54 861 89 q 557 -18 725 -18 q 301 51 404 -18 q 170 272 186 128 q 162 450 162 339 m 709 1034 q 693 1016 709 1016 q 665 1030 682 1016 q 618 1073 648 1045 q 554 1132 588 1100 q 485 1195 519 1163 q 430 1245 450 1227 q 410 1277 410 1263 q 415 1302 410 1292 q 427 1320 419 1312 q 460 1337 444 1337 q 506 1315 489 1337 q 548 1259 523 1292 q 600 1190 572 1225 q 678 1085 650 1122 q 707 1043 705 1048 q 709 1034 708 1038 z "},"":{"ha":1112,"x_min":18,"x_max":1102,"o":"m 162 450 l 165 694 q 160 769 165 745 q 137 805 154 793 q 100 825 121 817 q 56 837 79 832 q 18 848 34 842 l 20 883 l 467 883 l 469 848 q 417 833 440 838 q 377 824 395 828 q 348 813 360 820 q 327 793 335 807 q 311 694 311 768 l 311 404 q 372 155 311 240 q 602 56 444 56 q 893 416 893 56 l 893 682 q 882 779 893 757 q 859 808 871 800 q 829 822 847 817 q 788 833 812 827 q 735 848 765 838 l 735 883 l 1101 883 l 1102 848 q 1064 836 1086 839 q 1021 827 1042 832 q 960 780 970 816 q 949 693 949 743 l 951 484 q 933 256 951 329 q 888 136 914 182 q 818 54 861 89 q 557 -18 725 -18 q 301 51 404 -18 q 170 272 186 128 q 162 450 162 339 m 426 1016 q 410 1034 410 1016 q 425 1063 410 1044 q 466 1117 439 1082 q 519 1190 492 1153 q 606 1305 589 1283 q 654 1337 630 1337 q 704 1302 687 1337 q 709 1277 709 1292 q 689 1245 709 1263 q 634 1195 669 1227 q 566 1131 600 1163 q 463 1038 488 1061 q 426 1016 437 1016 z "},"":{"ha":1112,"x_min":18,"x_max":1102,"o":"m 162 450 l 165 694 q 160 769 165 745 q 137 805 154 793 q 100 825 121 817 q 56 837 79 832 q 18 848 34 842 l 20 883 l 467 883 l 469 848 q 417 833 440 838 q 377 824 395 828 q 348 813 360 820 q 327 793 335 807 q 311 694 311 768 l 311 404 q 372 155 311 240 q 602 56 444 56 q 893 416 893 56 l 893 682 q 882 779 893 757 q 859 808 871 800 q 829 822 847 817 q 788 833 812 827 q 735 848 765 838 l 735 883 l 1101 883 l 1102 848 q 1064 836 1086 839 q 1021 827 1042 832 q 960 780 970 816 q 949 693 949 743 l 951 484 q 933 256 951 329 q 888 136 914 182 q 818 54 861 89 q 557 -18 725 -18 q 301 51 404 -18 q 170 272 186 128 q 162 450 162 339 m 748 997 q 559 1188 732 997 q 371 997 387 997 q 359 1008 359 997 q 428 1154 359 1021 q 504 1299 497 1288 q 559 1338 527 1338 q 617 1295 595 1338 q 633 1264 621 1287 q 661 1210 645 1241 l 694 1144 q 760 1004 760 1012 q 748 997 760 997 z "},"":{"ha":1112,"x_min":18,"x_max":1102,"o":"m 162 450 l 165 694 q 160 769 165 745 q 137 805 154 793 q 100 825 121 817 q 56 837 79 832 q 18 848 34 842 l 20 883 l 467 883 l 469 848 q 417 833 440 838 q 377 824 395 828 q 348 813 360 820 q 327 793 335 807 q 311 694 311 768 l 311 404 q 372 155 311 240 q 602 56 444 56 q 893 416 893 56 l 893 682 q 882 779 893 757 q 859 808 871 800 q 829 822 847 817 q 788 833 812 827 q 735 848 765 838 l 735 883 l 1101 883 l 1102 848 q 1064 836 1086 839 q 1021 827 1042 832 q 960 780 970 816 q 949 693 949 743 l 951 484 q 933 256 951 329 q 888 136 914 182 q 818 54 861 89 q 557 -18 725 -18 q 301 51 404 -18 q 170 272 186 128 q 162 450 162 339 m 358 1133 q 363 1138 358 1133 q 381 1149 368 1143 q 410 1155 395 1155 q 439 1149 425 1155 q 463 1133 452 1143 q 484 1088 484 1112 q 478 1052 484 1065 q 463 1028 473 1038 q 417 1007 440 1007 q 381 1013 395 1007 q 357 1028 368 1019 q 336 1073 336 1050 q 342 1109 336 1096 q 358 1133 348 1123 m 708 1155 q 755 1139 739 1155 q 783 1088 783 1112 q 777 1052 783 1065 q 761 1028 771 1038 q 708 1007 739 1007 q 662 1023 677 1007 q 635 1073 635 1050 q 641 1109 635 1096 q 656 1133 646 1123 q 708 1155 677 1155 z "},"":{"ha":902,"x_min":-1,"x_max":909,"o":"m 568 863 q 569 883 568 872 l 909 883 l 909 848 q 817 805 839 819 q 748 736 775 777 l 526 395 l 526 167 q 539 85 526 102 q 567 64 553 68 q 596 57 580 60 q 673 35 648 47 l 671 0 l 233 0 l 232 35 q 291 54 258 50 q 337 63 323 59 q 360 79 351 67 q 380 172 380 102 l 380 381 l 132 769 q 33 837 108 807 q -1 848 13 845 l -1 883 l 419 883 l 420 848 q 323 805 353 838 q 311 778 311 792 q 323 739 311 764 q 355 683 336 715 q 397 616 374 652 q 441 548 420 581 q 480 490 463 516 q 505 452 497 465 q 524 481 509 460 q 558 533 539 503 q 600 597 578 563 q 639 665 621 632 q 681 767 681 743 q 668 803 681 791 q 638 823 656 815 q 601 836 621 831 q 569 845 582 841 l 568 863 m 320 1016 q 304 1034 304 1016 q 319 1063 304 1044 q 360 1117 333 1082 q 414 1190 387 1153 q 500 1305 484 1283 q 548 1337 524 1337 q 598 1302 581 1337 q 603 1277 603 1292 q 583 1245 603 1263 q 528 1195 563 1227 q 460 1131 494 1163 q 357 1038 382 1061 q 320 1016 332 1016 z "},"":{"ha":879,"x_min":46,"x_max":842,"o":"m 333 258 q 453 254 409 254 q 539 265 498 254 q 613 298 581 275 q 684 444 684 347 q 564 623 684 579 q 435 647 499 646 q 333 649 370 649 l 333 258 m 333 209 q 341 111 333 132 q 360 79 349 89 q 388 62 371 69 q 430 50 406 56 q 489 35 455 43 l 488 0 l 47 0 l 46 35 q 94 50 69 43 q 140 66 119 56 q 186 145 186 90 l 186 711 q 174 793 186 775 q 149 815 161 810 q 121 823 136 820 q 47 848 71 836 l 47 883 l 477 883 l 478 848 q 427 831 453 838 q 380 813 401 825 q 333 727 333 787 l 333 701 l 387 701 q 685 665 581 701 q 842 453 842 612 q 651 225 842 283 q 494 203 578 203 q 333 209 410 203 z "},"":{"ha":814,"x_min":26,"x_max":762,"o":"m 28 0 q 26 12 26 5 l 26 35 q 53 48 37 43 q 84 58 68 52 q 127 106 121 73 q 134 171 134 141 l 134 539 l 73 539 l 72 557 q 91 576 72 576 l 98 576 q 125 585 117 576 q 141 642 136 611 q 155 705 146 673 q 218 822 174 782 q 308 880 261 863 q 417 897 355 897 q 529 882 479 897 q 614 842 578 868 q 692 702 692 785 q 649 574 692 619 q 518 505 605 529 l 518 503 q 697 414 630 488 q 762 248 762 343 q 700 72 762 147 q 518 -12 631 -12 q 389 50 422 -12 q 379 91 379 68 q 395 130 379 114 q 432 146 412 146 q 462 139 453 146 q 475 123 471 133 q 479 101 479 113 q 481 78 480 89 q 505 50 486 53 q 535 40 513 40 q 574 53 556 40 q 605 88 591 66 q 635 222 635 138 q 588 371 635 306 q 450 457 542 435 q 396 479 427 466 q 405 522 396 503 q 570 692 570 537 q 521 806 570 763 q 421 845 476 845 q 337 828 366 845 q 292 779 309 812 q 260 587 260 719 l 260 169 q 276 79 260 104 q 289 56 278 61 q 311 48 299 50 q 331 41 322 45 q 340 26 340 37 l 340 10 q 339 0 340 5 l 28 0 z "},"":{"ha":687,"x_min":62,"x_max":670,"o":"m 279 63 q 427 136 351 63 l 427 309 q 386 295 410 302 q 336 278 362 288 q 285 256 311 268 q 240 228 260 243 q 195 150 195 192 q 217 86 195 109 q 279 63 239 63 m 429 87 q 218 -14 334 -14 q 75 62 114 -14 q 62 124 62 87 q 81 191 62 160 q 131 244 100 221 q 201 283 161 267 q 281 311 240 299 q 360 332 321 323 q 427 349 398 341 l 427 413 q 410 522 427 492 q 368 565 393 551 q 318 578 344 578 q 273 574 292 578 q 237 562 255 570 q 195 517 195 544 q 203 491 195 506 q 218 443 218 462 q 202 406 218 424 q 162 388 185 388 q 125 395 139 388 q 102 414 111 402 q 83 470 83 438 q 95 524 83 502 q 128 564 108 547 q 175 593 149 581 q 229 613 201 606 q 345 628 281 628 q 451 612 408 628 q 517 563 494 595 q 547 481 541 530 q 554 367 554 432 l 550 220 q 582 67 550 67 q 642 114 605 67 l 670 83 q 619 16 639 33 q 535 -14 582 -14 q 460 15 489 -14 q 429 87 432 43 m 515 761 q 499 743 515 743 q 471 758 488 743 q 424 800 454 772 q 360 859 394 827 q 291 922 326 890 q 236 972 256 954 q 216 1005 216 990 q 221 1029 216 1019 q 233 1047 225 1039 q 266 1065 250 1065 q 312 1042 295 1065 q 354 986 329 1019 q 406 917 378 953 q 484 812 456 849 q 513 770 511 776 q 515 761 514 765 z "},"":{"ha":687,"x_min":62,"x_max":670,"o":"m 279 63 q 427 136 351 63 l 427 309 q 386 295 410 302 q 336 278 362 288 q 285 256 311 268 q 240 228 260 243 q 195 150 195 192 q 217 86 195 109 q 279 63 239 63 m 429 87 q 218 -14 334 -14 q 75 62 114 -14 q 62 124 62 87 q 81 191 62 160 q 131 244 100 221 q 201 283 161 267 q 281 311 240 299 q 360 332 321 323 q 427 349 398 341 l 427 413 q 410 522 427 492 q 368 565 393 551 q 318 578 344 578 q 273 574 292 578 q 237 562 255 570 q 195 517 195 544 q 203 491 195 506 q 218 443 218 462 q 202 406 218 424 q 162 388 185 388 q 125 395 139 388 q 102 414 111 402 q 83 470 83 438 q 95 524 83 502 q 128 564 108 547 q 175 593 149 581 q 229 613 201 606 q 345 628 281 628 q 451 612 408 628 q 517 563 494 595 q 547 481 541 530 q 554 367 554 432 l 550 220 q 582 67 550 67 q 642 114 605 67 l 670 83 q 619 16 639 33 q 535 -14 582 -14 q 460 15 489 -14 q 429 87 432 43 m 232 743 q 216 761 216 743 q 231 790 216 771 q 272 845 245 809 q 326 917 298 880 q 412 1032 395 1010 q 460 1065 436 1065 q 510 1029 493 1065 q 515 1005 515 1019 q 495 972 515 990 q 440 922 475 954 q 372 859 406 890 q 269 766 294 788 q 232 743 243 743 z "},"":{"ha":687,"x_min":62,"x_max":670,"o":"m 279 63 q 427 136 351 63 l 427 309 q 386 295 410 302 q 336 278 362 288 q 285 256 311 268 q 240 228 260 243 q 195 150 195 192 q 217 86 195 109 q 279 63 239 63 m 429 87 q 218 -14 334 -14 q 75 62 114 -14 q 62 124 62 87 q 81 191 62 160 q 131 244 100 221 q 201 283 161 267 q 281 311 240 299 q 360 332 321 323 q 427 349 398 341 l 427 413 q 410 522 427 492 q 368 565 393 551 q 318 578 344 578 q 273 574 292 578 q 237 562 255 570 q 195 517 195 544 q 203 491 195 506 q 218 443 218 462 q 202 406 218 424 q 162 388 185 388 q 125 395 139 388 q 102 414 111 402 q 83 470 83 438 q 95 524 83 502 q 128 564 108 547 q 175 593 149 581 q 229 613 201 606 q 345 628 281 628 q 451 612 408 628 q 517 563 494 595 q 547 481 541 530 q 554 367 554 432 l 550 220 q 582 67 550 67 q 642 114 605 67 l 670 83 q 619 16 639 33 q 535 -14 582 -14 q 460 15 489 -14 q 429 87 432 43 m 554 724 q 366 916 538 724 q 177 724 193 724 q 165 736 165 724 q 234 882 165 748 q 310 1027 303 1015 q 366 1065 333 1065 q 423 1022 401 1065 q 439 991 427 1015 q 467 937 451 968 l 500 871 q 566 732 566 739 q 554 724 566 724 z "},"":{"ha":687,"x_min":62,"x_max":670,"o":"m 279 63 q 427 136 351 63 l 427 309 q 386 295 410 302 q 336 278 362 288 q 285 256 311 268 q 240 228 260 243 q 195 150 195 192 q 217 86 195 109 q 279 63 239 63 m 429 87 q 218 -14 334 -14 q 75 62 114 -14 q 62 124 62 87 q 81 191 62 160 q 131 244 100 221 q 201 283 161 267 q 281 311 240 299 q 360 332 321 323 q 427 349 398 341 l 427 413 q 410 522 427 492 q 368 565 393 551 q 318 578 344 578 q 273 574 292 578 q 237 562 255 570 q 195 517 195 544 q 203 491 195 506 q 218 443 218 462 q 202 406 218 424 q 162 388 185 388 q 125 395 139 388 q 102 414 111 402 q 83 470 83 438 q 95 524 83 502 q 128 564 108 547 q 175 593 149 581 q 229 613 201 606 q 345 628 281 628 q 451 612 408 628 q 517 563 494 595 q 547 481 541 530 q 554 367 554 432 l 550 220 q 582 67 550 67 q 642 114 605 67 l 670 83 q 619 16 639 33 q 535 -14 582 -14 q 460 15 489 -14 q 429 87 432 43 m 227 839 q 173 767 185 839 l 147 767 q 256 925 151 925 q 347 899 297 925 q 422 862 397 873 q 467 850 447 850 q 526 924 512 850 l 551 924 q 522 801 550 842 q 442 760 493 760 q 349 787 401 760 q 272 827 297 814 q 227 839 246 839 z "},"":{"ha":687,"x_min":62,"x_max":670,"o":"m 279 63 q 427 136 351 63 l 427 309 q 386 295 410 302 q 336 278 362 288 q 285 256 311 268 q 240 228 260 243 q 195 150 195 192 q 217 86 195 109 q 279 63 239 63 m 429 87 q 218 -14 334 -14 q 75 62 114 -14 q 62 124 62 87 q 81 191 62 160 q 131 244 100 221 q 201 283 161 267 q 281 311 240 299 q 360 332 321 323 q 427 349 398 341 l 427 413 q 410 522 427 492 q 368 565 393 551 q 318 578 344 578 q 273 574 292 578 q 237 562 255 570 q 195 517 195 544 q 203 491 195 506 q 218 443 218 462 q 202 406 218 424 q 162 388 185 388 q 125 395 139 388 q 102 414 111 402 q 83 470 83 438 q 95 524 83 502 q 128 564 108 547 q 175 593 149 581 q 229 613 201 606 q 345 628 281 628 q 451 612 408 628 q 517 563 494 595 q 547 481 541 530 q 554 367 554 432 l 550 220 q 582 67 550 67 q 642 114 605 67 l 670 83 q 619 16 639 33 q 535 -14 582 -14 q 460 15 489 -14 q 429 87 432 43 m 132 861 q 137 866 132 861 q 155 877 142 871 q 184 882 169 882 q 213 877 199 882 q 237 861 227 871 q 258 816 258 839 q 253 779 258 793 q 237 755 247 766 q 192 734 214 734 q 155 740 169 734 q 132 755 142 746 q 111 800 111 777 q 116 837 111 823 q 132 861 122 850 m 482 882 q 529 867 513 882 q 557 816 557 839 q 551 779 557 793 q 535 755 545 766 q 482 734 513 734 q 436 750 452 734 q 409 800 409 777 q 415 837 409 823 q 430 861 420 850 q 482 882 451 882 z "},"":{"ha":687,"x_min":62,"x_max":670,"o":"m 279 63 q 427 136 351 63 l 427 309 q 386 295 410 302 q 336 278 362 288 q 285 256 311 268 q 240 228 260 243 q 195 150 195 192 q 217 86 195 109 q 279 63 239 63 m 429 87 q 218 -14 334 -14 q 75 62 114 -14 q 62 124 62 87 q 81 191 62 160 q 131 244 100 221 q 201 283 161 267 q 281 311 240 299 q 360 332 321 323 q 427 349 398 341 l 427 413 q 410 522 427 492 q 368 565 393 551 q 318 578 344 578 q 273 574 292 578 q 237 562 255 570 q 195 517 195 544 q 203 491 195 506 q 218 443 218 462 q 202 406 218 424 q 162 388 185 388 q 125 395 139 388 q 102 414 111 402 q 83 470 83 438 q 95 524 83 502 q 128 564 108 547 q 175 593 149 581 q 229 613 201 606 q 345 628 281 628 q 451 612 408 628 q 517 563 494 595 q 547 481 541 530 q 554 367 554 432 l 550 220 q 582 67 550 67 q 642 114 605 67 l 670 83 q 619 16 639 33 q 535 -14 582 -14 q 460 15 489 -14 q 429 87 432 43 m 430 933 q 421 942 430 933 q 397 957 412 951 q 365 964 382 964 q 333 957 348 964 q 308 940 319 951 q 285 884 285 916 q 302 833 285 850 q 357 803 332 803 q 397 809 382 803 q 423 827 412 816 q 447 884 447 852 q 430 933 447 915 m 366 1013 q 459 975 420 1013 q 498 884 498 937 q 459 792 498 830 q 366 753 420 753 q 272 791 310 753 q 233 884 233 829 q 272 975 233 937 q 366 1013 311 1013 z "},"":{"ha":981,"x_min":47,"x_max":937,"o":"m 755 395 q 812 416 787 401 q 774 537 802 496 q 688 578 745 578 q 546 369 549 578 l 755 395 m 446 125 q 418 302 420 192 q 237 242 273 266 q 189 195 200 218 q 178 146 178 172 q 185 106 178 121 q 204 82 192 92 q 363 82 256 41 q 446 125 412 100 m 515 536 q 711 628 579 628 q 878 553 814 628 q 937 376 937 482 l 545 330 l 545 313 q 583 142 545 193 q 734 87 625 87 q 875 118 817 87 q 912 141 893 128 q 932 121 925 132 q 835 19 906 56 q 692 -14 770 -14 q 468 90 555 -14 q 269 -7 384 16 q 201 -14 234 -14 q 58 60 94 -14 q 47 122 47 85 q 62 189 47 159 q 104 239 78 218 q 167 274 131 260 q 244 299 203 288 q 329 319 285 310 q 416 340 373 328 l 416 422 q 304 578 416 578 q 243 567 273 578 q 184 515 184 546 q 193 488 184 503 q 208 454 208 461 q 201 437 208 448 q 182 416 193 427 q 136 392 154 392 q 106 401 117 392 q 87 425 96 410 q 70 482 70 454 q 83 532 70 510 q 119 569 97 553 q 170 596 142 585 q 227 614 198 608 q 330 627 283 627 q 515 536 471 627 z "},"":{"ha":653,"x_min":56,"x_max":604,"o":"m 596 127 q 504 22 576 60 q 361 -14 439 -14 q 227 13 283 -14 q 133 83 171 39 q 56 304 56 172 q 146 533 56 441 q 388 628 240 628 q 586 557 534 628 q 604 508 604 533 q 597 471 604 483 q 581 450 590 458 q 537 435 561 435 q 503 446 513 435 q 487 472 492 456 q 479 507 482 488 q 467 541 477 525 q 378 578 446 578 q 240 518 296 578 q 180 340 180 452 q 235 159 180 231 q 395 81 294 81 q 534 115 479 81 q 574 143 554 127 l 596 127 m 378 -182 q 275 -111 378 -118 l 307 7 l 363 7 l 379 -64 q 482 -133 460 -75 q 488 -173 488 -150 q 476 -218 488 -195 q 441 -256 463 -240 q 332 -288 396 -288 q 239 -267 288 -288 l 248 -228 q 304 -241 274 -241 q 356 -225 334 -241 q 378 -182 378 -208 z "},"":{"ha":653,"x_min":56,"x_max":604,"o":"m 470 414 q 339 583 460 583 q 231 528 273 583 q 180 397 191 477 l 420 403 q 470 414 452 404 m 570 131 l 589 112 q 492 18 564 53 q 357 -14 425 -14 q 234 9 289 -14 q 140 75 180 33 q 56 303 56 163 q 146 538 56 444 q 355 628 232 628 q 518 570 452 628 q 597 420 583 513 q 604 363 604 386 l 604 357 l 176 357 q 175 347 175 351 q 175 337 175 342 q 243 143 175 210 q 396 82 304 82 q 570 131 488 82 m 503 761 q 488 743 503 743 q 459 758 476 743 q 413 800 443 772 q 348 859 382 827 q 279 922 314 890 q 225 972 245 954 q 205 1005 205 990 q 209 1029 205 1019 q 222 1047 214 1039 q 254 1065 238 1065 q 300 1042 283 1065 q 342 986 317 1019 q 394 917 367 953 q 472 812 445 849 q 501 770 500 776 q 503 761 503 765 z "},"":{"ha":653,"x_min":56,"x_max":604,"o":"m 470 414 q 339 583 460 583 q 231 528 273 583 q 180 397 191 477 l 420 403 q 470 414 452 404 m 570 131 l 589 112 q 492 18 564 53 q 357 -14 425 -14 q 234 9 289 -14 q 140 75 180 33 q 56 303 56 163 q 146 538 56 444 q 355 628 232 628 q 518 570 452 628 q 597 420 583 513 q 604 363 604 386 l 604 357 l 176 357 q 175 347 175 351 q 175 337 175 342 q 243 143 175 210 q 396 82 304 82 q 570 131 488 82 m 220 743 q 205 761 205 743 q 219 790 205 771 q 260 845 233 809 q 314 917 287 880 q 400 1032 384 1010 q 448 1065 425 1065 q 498 1029 481 1065 q 503 1005 503 1019 q 483 972 503 990 q 429 922 463 954 q 360 859 394 890 q 257 766 283 788 q 220 743 232 743 z "},"":{"ha":653,"x_min":56,"x_max":604,"o":"m 470 414 q 339 583 460 583 q 231 528 273 583 q 180 397 191 477 l 420 403 q 470 414 452 404 m 570 131 l 589 112 q 492 18 564 53 q 357 -14 425 -14 q 234 9 289 -14 q 140 75 180 33 q 56 303 56 163 q 146 538 56 444 q 355 628 232 628 q 518 570 452 628 q 597 420 583 513 q 604 363 604 386 l 604 357 l 176 357 q 175 347 175 351 q 175 337 175 342 q 243 143 175 210 q 396 82 304 82 q 570 131 488 82 m 543 724 q 354 916 526 724 q 165 724 182 724 q 154 736 154 724 q 223 882 154 748 q 298 1027 292 1015 q 354 1065 321 1065 q 412 1022 389 1065 q 427 991 415 1015 q 455 937 439 968 l 488 871 q 554 732 554 739 q 543 724 554 724 z "},"":{"ha":653,"x_min":56,"x_max":604,"o":"m 470 414 q 339 583 460 583 q 231 528 273 583 q 180 397 191 477 l 420 403 q 470 414 452 404 m 570 131 l 589 112 q 492 18 564 53 q 357 -14 425 -14 q 234 9 289 -14 q 140 75 180 33 q 56 303 56 163 q 146 538 56 444 q 355 628 232 628 q 518 570 452 628 q 597 420 583 513 q 604 363 604 386 l 604 357 l 176 357 q 175 347 175 351 q 175 337 175 342 q 243 143 175 210 q 396 82 304 82 q 570 131 488 82 m 153 861 q 158 866 153 861 q 176 877 163 871 q 205 882 190 882 q 234 877 220 882 q 258 861 248 871 q 279 816 279 839 q 274 779 279 793 q 258 755 268 766 q 213 734 235 734 q 176 740 190 734 q 153 755 163 746 q 132 800 132 777 q 137 837 132 823 q 153 861 143 850 m 503 882 q 550 867 534 882 q 578 816 578 839 q 572 779 578 793 q 556 755 566 766 q 503 734 534 734 q 457 750 473 734 q 430 800 430 777 q 436 837 430 823 q 451 861 441 850 q 503 882 472 882 z "},"":{"ha":399,"x_min":32,"x_max":379,"o":"m 33 0 q 32 12 32 5 l 32 34 q 62 45 43 40 q 102 60 82 51 q 149 123 149 81 l 149 479 q 109 508 137 499 q 67 523 81 517 q 45 536 53 528 q 47 560 45 547 l 235 614 l 275 618 l 275 149 q 279 94 275 114 q 297 65 284 75 q 326 51 310 56 q 356 43 341 46 q 379 34 372 39 q 378 0 379 18 l 33 0 m 350 761 q 334 743 350 743 q 306 758 323 743 q 259 800 290 772 q 195 859 229 827 q 126 922 161 890 q 72 972 92 954 q 52 1005 52 990 q 56 1029 52 1019 q 68 1047 60 1039 q 101 1065 85 1065 q 147 1042 130 1065 q 189 986 164 1019 q 241 917 214 953 q 319 812 292 849 q 348 770 347 776 q 350 761 349 765 z "},"":{"ha":399,"x_min":32,"x_max":379,"o":"m 33 0 q 32 12 32 5 l 32 34 q 62 45 43 40 q 102 60 82 51 q 149 123 149 81 l 149 479 q 109 508 137 499 q 67 523 81 517 q 45 536 53 528 q 47 560 45 547 l 235 614 l 275 618 l 275 149 q 279 94 275 114 q 297 65 284 75 q 326 51 310 56 q 356 43 341 46 q 379 34 372 39 q 378 0 379 18 l 33 0 m 67 743 q 52 761 52 743 q 66 790 52 771 q 107 845 80 809 q 161 917 134 880 q 247 1032 231 1010 q 295 1065 271 1065 q 345 1029 328 1065 q 350 1005 350 1019 q 330 972 350 990 q 275 922 310 954 q 207 859 241 890 q 104 766 130 788 q 67 743 79 743 z "},"":{"ha":399,"x_min":1,"x_max":401,"o":"m 33 0 q 32 12 32 5 l 32 34 q 62 45 43 40 q 102 60 82 51 q 149 123 149 81 l 149 479 q 109 508 137 499 q 67 523 81 517 q 45 536 53 528 q 47 560 45 547 l 235 614 l 275 618 l 275 149 q 279 94 275 114 q 297 65 284 75 q 326 51 310 56 q 356 43 341 46 q 379 34 372 39 q 378 0 379 18 l 33 0 m 389 724 q 201 916 373 724 q 12 724 28 724 q 1 736 1 724 q 70 882 1 748 q 145 1027 138 1015 q 201 1065 168 1065 q 258 1022 236 1065 q 274 991 262 1015 q 302 937 286 968 l 335 871 q 401 732 401 739 q 389 724 401 724 z "},"":{"ha":399,"x_min":-22,"x_max":424,"o":"m 33 0 q 32 12 32 5 l 32 34 q 62 45 43 40 q 102 60 82 51 q 149 123 149 81 l 149 479 q 109 508 137 499 q 67 523 81 517 q 45 536 53 528 q 47 560 45 547 l 235 614 l 275 618 l 275 149 q 279 94 275 114 q 297 65 284 75 q 326 51 310 56 q 356 43 341 46 q 379 34 372 39 q 378 0 379 18 l 33 0 m -1 861 q 4 866 -1 861 q 22 877 9 871 q 51 882 36 882 q 80 877 66 882 q 104 861 94 871 q 125 816 125 839 q 120 779 125 793 q 104 755 114 766 q 59 734 81 734 q 22 740 36 734 q -1 755 9 746 q -22 800 -22 777 q -17 837 -22 823 q -1 861 -11 850 m 349 882 q 396 867 380 882 q 424 816 424 839 q 418 779 424 793 q 402 755 412 766 q 349 734 380 734 q 303 750 319 734 q 276 800 276 777 q 282 837 276 823 q 297 861 288 850 q 349 882 318 882 z "},"":{"ha":740,"x_min":56,"x_max":683,"o":"m 282 936 q 470 826 404 889 l 585 886 q 642 856 637 886 q 573 814 625 836 q 509 786 522 792 q 672 465 637 656 q 683 339 683 404 q 662 210 683 274 q 600 95 640 145 q 368 -14 511 -14 q 146 78 237 -14 q 56 300 56 170 q 135 530 56 437 q 353 628 219 628 q 507 568 435 628 l 509 569 q 427 749 491 663 q 352 715 388 733 q 279 681 317 698 q 253 715 260 692 q 358 776 280 744 q 394 791 378 783 q 250 913 344 850 l 282 936 m 225 496 q 216 478 225 496 q 199 417 206 460 q 191 340 191 374 q 195 275 191 307 q 209 210 199 243 q 232 147 218 178 q 266 92 246 116 q 367 39 311 39 q 457 62 422 39 q 511 122 491 85 q 549 290 549 191 q 539 422 549 386 q 511 485 529 459 q 469 530 493 511 q 363 576 416 576 q 277 553 310 576 q 225 496 245 531 z "},"":{"ha":814,"x_min":27,"x_max":796,"o":"m 441 555 q 261 453 356 555 l 261 151 q 330 43 261 66 q 380 34 352 37 l 379 0 l 30 0 q 29 7 29 2 l 29 30 q 30 37 29 33 q 103 60 87 50 q 135 125 135 81 l 135 493 q 27 550 119 524 l 29 573 l 214 619 l 256 622 l 263 512 q 416 618 321 591 q 484 628 448 628 q 636 573 581 628 q 695 406 690 519 q 697 317 697 362 l 697 166 q 718 67 697 87 q 748 51 729 56 q 795 37 767 46 q 796 30 796 33 l 796 22 l 795 7 l 795 0 l 461 0 q 460 18 460 7 l 460 34 q 490 43 473 39 q 524 54 507 47 q 567 101 561 70 q 570 153 570 120 l 570 304 q 556 477 570 438 q 516 535 542 516 q 441 555 490 555 m 289 839 q 235 767 248 839 l 210 767 q 318 925 214 925 q 409 899 359 925 q 484 862 459 873 q 530 850 509 850 q 588 924 574 850 l 614 924 q 584 801 612 842 q 505 760 555 760 q 411 787 463 760 q 334 827 359 814 q 289 839 309 839 z "},"":{"ha":753,"x_min":56,"x_max":698,"o":"m 205 454 q 191 351 191 410 q 205 237 191 292 q 244 137 218 181 q 389 39 301 39 q 521 103 474 39 q 564 263 564 162 q 511 487 564 397 q 368 583 456 583 q 205 454 244 583 m 56 309 q 151 541 56 450 q 372 628 242 628 q 602 543 511 628 q 698 310 698 453 q 603 75 698 167 q 380 -14 513 -14 q 153 76 247 -14 q 56 309 56 169 m 526 761 q 510 743 526 743 q 482 758 498 743 q 435 800 465 772 q 371 859 405 827 q 302 922 336 890 q 247 972 267 954 q 227 1005 227 990 q 232 1029 227 1019 q 244 1047 236 1039 q 277 1065 260 1065 q 323 1042 306 1065 q 365 986 340 1019 q 416 917 389 953 q 495 812 467 849 q 524 770 522 776 q 526 761 525 765 z "},"":{"ha":753,"x_min":56,"x_max":698,"o":"m 205 454 q 191 351 191 410 q 205 237 191 292 q 244 137 218 181 q 389 39 301 39 q 521 103 474 39 q 564 263 564 162 q 511 487 564 397 q 368 583 456 583 q 205 454 244 583 m 56 309 q 151 541 56 450 q 372 628 242 628 q 602 543 511 628 q 698 310 698 453 q 603 75 698 167 q 380 -14 513 -14 q 153 76 247 -14 q 56 309 56 169 m 243 743 q 227 761 227 743 q 241 790 227 771 q 282 845 256 809 q 336 917 309 880 q 422 1032 406 1010 q 471 1065 447 1065 q 521 1029 504 1065 q 526 1005 526 1019 q 506 972 526 990 q 451 922 486 954 q 382 859 416 890 q 280 766 305 788 q 243 743 254 743 z "},"":{"ha":753,"x_min":56,"x_max":698,"o":"m 205 454 q 191 351 191 410 q 205 237 191 292 q 244 137 218 181 q 389 39 301 39 q 521 103 474 39 q 564 263 564 162 q 511 487 564 397 q 368 583 456 583 q 205 454 244 583 m 56 309 q 151 541 56 450 q 372 628 242 628 q 602 543 511 628 q 698 310 698 453 q 603 75 698 167 q 380 -14 513 -14 q 153 76 247 -14 q 56 309 56 169 m 565 724 q 376 916 549 724 q 188 724 204 724 q 176 736 176 724 q 245 882 176 748 q 321 1027 314 1015 q 376 1065 344 1065 q 434 1022 412 1065 q 450 991 437 1015 q 477 937 462 968 l 511 871 q 576 732 576 739 q 565 724 576 724 z "},"":{"ha":753,"x_min":56,"x_max":698,"o":"m 205 454 q 191 351 191 410 q 205 237 191 292 q 244 137 218 181 q 389 39 301 39 q 521 103 474 39 q 564 263 564 162 q 511 487 564 397 q 368 583 456 583 q 205 454 244 583 m 56 309 q 151 541 56 450 q 372 628 242 628 q 602 543 511 628 q 698 310 698 453 q 603 75 698 167 q 380 -14 513 -14 q 153 76 247 -14 q 56 309 56 169 m 254 839 q 200 767 212 839 l 174 767 q 283 925 178 925 q 374 899 324 925 q 449 862 424 873 q 494 850 474 850 q 553 924 539 850 l 578 924 q 549 801 577 842 q 469 760 520 760 q 376 787 428 760 q 299 827 324 814 q 254 839 273 839 z "},"":{"ha":753,"x_min":56,"x_max":698,"o":"m 205 454 q 191 351 191 410 q 205 237 191 292 q 244 137 218 181 q 389 39 301 39 q 521 103 474 39 q 564 263 564 162 q 511 487 564 397 q 368 583 456 583 q 205 454 244 583 m 56 309 q 151 541 56 450 q 372 628 242 628 q 602 543 511 628 q 698 310 698 453 q 603 75 698 167 q 380 -14 513 -14 q 153 76 247 -14 q 56 309 56 169 m 175 861 q 180 866 175 861 q 199 877 185 871 q 228 882 212 882 q 256 877 243 882 q 280 861 270 871 q 302 816 302 839 q 296 779 302 793 q 280 755 290 766 q 235 734 258 734 q 199 740 212 734 q 175 755 185 746 q 154 800 154 777 q 160 837 154 823 q 175 861 165 850 m 526 882 q 572 867 557 882 q 600 816 600 839 q 594 779 600 793 q 578 755 589 766 q 526 734 556 734 q 479 750 495 734 q 452 800 452 777 q 458 837 452 823 q 473 861 464 850 q 526 882 494 882 z "},"":{"ha":856,"x_min":72,"x_max":783,"o":"m 427 602 q 376 620 395 602 q 346 682 346 649 q 363 732 346 715 q 427 764 395 764 q 479 746 461 764 q 510 691 510 715 q 504 652 510 667 q 486 627 497 637 q 427 602 462 602 m 427 85 q 376 102 395 85 q 346 165 346 132 q 363 215 346 197 q 427 245 394 245 q 479 228 462 245 q 510 165 510 197 q 492 115 510 133 q 427 85 462 85 m 165 372 q 72 393 97 372 q 82 444 72 422 q 94 474 92 467 l 690 475 q 783 454 734 475 q 762 374 783 395 l 165 372 z "},"":{"ha":753,"x_min":56,"x_max":698,"o":"m 283 98 q 380 42 329 42 q 466 59 432 42 q 522 106 499 77 q 566 237 566 164 q 517 473 566 380 q 283 98 408 321 m 480 524 q 363 583 437 583 q 231 509 277 583 q 191 355 191 448 q 240 149 191 234 l 480 524 m 376 -14 q 236 28 303 -14 q 222 -2 229 14 q 207 -33 216 -18 q 160 -77 186 -67 q 125 -24 137 -70 l 178 62 q 56 312 56 157 q 146 537 56 445 q 372 628 237 628 q 526 588 454 628 q 551 631 536 598 q 593 696 578 689 q 644 658 633 686 q 612 607 630 632 q 578 557 593 583 q 698 309 698 469 q 608 79 698 170 q 376 -14 517 -14 z "},"":{"ha":808,"x_min":18,"x_max":787,"o":"m 376 66 q 553 149 471 66 l 553 436 q 548 507 553 478 q 435 562 540 551 l 435 595 l 680 613 l 680 136 q 747 65 680 81 q 787 58 766 61 l 785 22 l 562 -10 l 557 98 q 332 -14 456 -14 q 137 177 162 -14 q 130 291 130 232 l 130 437 q 110 530 130 513 q 18 562 79 555 l 18 595 l 256 613 l 256 298 q 282 119 256 170 q 376 66 309 66 m 551 761 q 536 743 551 743 q 508 758 524 743 q 461 800 491 772 q 396 859 431 827 q 328 922 362 890 q 273 972 293 954 q 253 1005 253 990 q 257 1029 253 1019 q 270 1047 262 1039 q 302 1065 286 1065 q 349 1042 332 1065 q 390 986 366 1019 q 442 917 415 953 q 520 812 493 849 q 549 770 548 776 q 551 761 551 765 z "},"":{"ha":808,"x_min":18,"x_max":787,"o":"m 376 66 q 553 149 471 66 l 553 436 q 548 507 553 478 q 435 562 540 551 l 435 595 l 680 613 l 680 136 q 747 65 680 81 q 787 58 766 61 l 785 22 l 562 -10 l 557 98 q 332 -14 456 -14 q 137 177 162 -14 q 130 291 130 232 l 130 437 q 110 530 130 513 q 18 562 79 555 l 18 595 l 256 613 l 256 298 q 282 119 256 170 q 376 66 309 66 m 269 743 q 253 761 253 743 q 267 790 253 771 q 308 845 281 809 q 362 917 335 880 q 448 1032 432 1010 q 496 1065 473 1065 q 547 1029 530 1065 q 551 1005 551 1019 q 531 972 551 990 q 477 922 511 954 q 408 859 442 890 q 306 766 331 788 q 269 743 280 743 z "},"":{"ha":808,"x_min":18,"x_max":787,"o":"m 376 66 q 553 149 471 66 l 553 436 q 548 507 553 478 q 435 562 540 551 l 435 595 l 680 613 l 680 136 q 747 65 680 81 q 787 58 766 61 l 785 22 l 562 -10 l 557 98 q 332 -14 456 -14 q 137 177 162 -14 q 130 291 130 232 l 130 437 q 110 530 130 513 q 18 562 79 555 l 18 595 l 256 613 l 256 298 q 282 119 256 170 q 376 66 309 66 m 591 724 q 402 916 574 724 q 214 724 230 724 q 202 736 202 724 q 271 882 202 748 q 347 1027 340 1015 q 402 1065 370 1065 q 460 1022 437 1065 q 475 991 463 1015 q 503 937 488 968 l 536 871 q 602 732 602 739 q 591 724 602 724 z "},"":{"ha":808,"x_min":18,"x_max":787,"o":"m 376 66 q 553 149 471 66 l 553 436 q 548 507 553 478 q 435 562 540 551 l 435 595 l 680 613 l 680 136 q 747 65 680 81 q 787 58 766 61 l 785 22 l 562 -10 l 557 98 q 332 -14 456 -14 q 137 177 162 -14 q 130 291 130 232 l 130 437 q 110 530 130 513 q 18 562 79 555 l 18 595 l 256 613 l 256 298 q 282 119 256 170 q 376 66 309 66 m 200 861 q 205 866 200 861 q 224 877 210 871 q 253 882 237 882 q 281 877 268 882 q 305 861 295 871 q 327 816 327 839 q 321 779 327 793 q 305 755 315 766 q 260 734 283 734 q 224 740 237 734 q 200 755 210 746 q 179 800 179 777 q 185 837 179 823 q 200 861 191 850 m 551 882 q 597 867 582 882 q 625 816 625 839 q 620 779 625 793 q 604 755 614 766 q 551 734 581 734 q 505 750 520 734 q 477 800 477 777 q 483 837 477 823 q 498 861 489 850 q 551 882 519 882 z "},"":{"ha":678,"x_min":0,"x_max":665,"o":"m 665 597 l 665 575 q 640 561 654 566 q 612 549 626 557 q 564 479 578 529 l 323 -113 q 264 -216 294 -188 q 149 -268 211 -268 q 81 -252 103 -268 q 44 -193 44 -226 q 63 -143 44 -161 q 106 -126 83 -126 q 141 -134 130 -126 q 161 -151 152 -141 q 204 -174 184 -174 q 242 -159 225 -174 q 273 -120 258 -144 q 319 0 292 -85 l 107 483 q 55 558 79 545 q 31 566 43 564 q 0 574 18 567 l 0 610 l 318 610 l 321 588 q 296 568 321 578 q 286 563 290 566 q 230 526 230 559 q 233 510 230 519 q 239 489 235 500 l 379 154 l 494 458 q 504 509 504 484 q 416 572 504 557 q 415 579 415 575 l 415 603 q 416 610 415 608 l 665 610 l 665 597 m 199 743 q 183 761 183 743 q 197 790 183 771 q 238 845 212 809 q 292 917 265 880 q 378 1032 362 1010 q 427 1065 403 1065 q 477 1029 460 1065 q 481 1005 481 1019 q 461 972 481 990 q 407 922 441 954 q 338 859 372 890 q 236 766 261 788 q 199 743 210 743 z "},"":{"ha":766,"x_min":-1,"x_max":711,"o":"m 239 459 l 239 230 q 270 98 239 139 q 410 45 310 45 q 540 110 494 45 q 585 287 585 175 q 527 481 585 414 q 400 540 477 540 q 239 459 323 540 m 391 -12 q 239 24 316 -12 l 239 -98 q 264 -191 239 -175 q 319 -210 288 -204 q 363 -222 351 -216 q 362 -256 363 -237 l 5 -256 q 3 -222 3 -238 q 25 -214 11 -217 q 54 -206 39 -211 q 98 -173 92 -195 q 113 -99 113 -140 l 113 790 q 70 819 102 806 q 22 838 38 832 q -1 852 6 844 l -1 868 q 1 875 -1 871 q 95 902 48 888 q 190 928 142 915 l 239 933 l 239 518 q 453 628 339 628 q 636 543 562 628 q 711 326 711 457 q 618 77 711 171 q 391 -12 532 -12 z "},"":{"ha":678,"x_min":0,"x_max":665,"o":"m 665 597 l 665 575 q 640 561 654 566 q 612 549 626 557 q 564 479 578 529 l 323 -113 q 264 -216 294 -188 q 149 -268 211 -268 q 81 -252 103 -268 q 44 -193 44 -226 q 63 -143 44 -161 q 106 -126 83 -126 q 141 -134 130 -126 q 161 -151 152 -141 q 204 -174 184 -174 q 242 -159 225 -174 q 273 -120 258 -144 q 319 0 292 -85 l 107 483 q 55 558 79 545 q 31 566 43 564 q 0 574 18 567 l 0 610 l 318 610 l 321 588 q 296 568 321 578 q 286 563 290 566 q 230 526 230 559 q 233 510 230 519 q 239 489 235 500 l 379 154 l 494 458 q 504 509 504 484 q 416 572 504 557 q 415 579 415 575 l 415 603 q 416 610 415 608 l 665 610 l 665 597 m 131 861 q 136 866 131 861 q 155 877 141 871 q 183 882 168 882 q 212 877 199 882 q 236 861 226 871 q 258 816 258 839 q 252 779 258 793 q 236 755 246 766 q 191 734 214 734 q 155 740 168 734 q 131 755 141 746 q 110 800 110 777 q 116 837 110 823 q 131 861 121 850 m 481 882 q 528 867 513 882 q 556 816 556 839 q 550 779 556 793 q 534 755 545 766 q 481 734 512 734 q 435 750 451 734 q 408 800 408 777 q 414 837 408 823 q 429 861 420 850 q 481 882 450 882 z "},"":{"ha":926,"x_min":-2,"x_max":939,"o":"m 548 420 l 414 754 l 290 420 l 548 420 m 613 63 q 622 68 613 63 q 643 87 631 73 q 655 116 655 102 q 650 148 655 130 q 637 189 645 166 q 620 238 629 212 q 601 288 610 264 q 573 361 578 346 l 267 361 q 257 334 264 351 q 241 293 250 316 q 223 245 232 271 q 206 197 214 220 q 189 121 189 144 q 200 85 189 98 q 230 64 212 72 q 318 39 253 52 l 318 0 l -2 0 l -2 35 q 26 53 12 47 q 55 64 41 58 q 103 104 90 79 q 123 147 116 128 q 138 185 130 166 l 391 835 q 394 850 394 842 q 395 867 395 859 q 404 898 397 889 q 510 866 468 898 l 821 119 q 871 64 838 81 q 903 51 886 56 q 939 35 920 45 l 937 0 l 543 0 l 541 35 q 613 63 595 53 m 259 981 l 259 1068 l 667 1068 l 667 981 l 259 981 z "},"":{"ha":687,"x_min":62,"x_max":670,"o":"m 279 63 q 427 136 351 63 l 427 309 q 386 295 410 302 q 336 278 362 288 q 285 256 311 268 q 240 228 260 243 q 195 150 195 192 q 217 86 195 109 q 279 63 239 63 m 429 87 q 218 -14 334 -14 q 75 62 114 -14 q 62 124 62 87 q 81 191 62 160 q 131 244 100 221 q 201 283 161 267 q 281 311 240 299 q 360 332 321 323 q 427 349 398 341 l 427 413 q 410 522 427 492 q 368 565 393 551 q 318 578 344 578 q 273 574 292 578 q 237 562 255 570 q 195 517 195 544 q 203 491 195 506 q 218 443 218 462 q 202 406 218 424 q 162 388 185 388 q 125 395 139 388 q 102 414 111 402 q 83 470 83 438 q 95 524 83 502 q 128 564 108 547 q 175 593 149 581 q 229 613 201 606 q 345 628 281 628 q 451 612 408 628 q 517 563 494 595 q 547 481 541 530 q 554 367 554 432 l 550 220 q 582 67 550 67 q 642 114 605 67 l 670 83 q 619 16 639 33 q 535 -14 582 -14 q 460 15 489 -14 q 429 87 432 43 m 138 708 l 138 795 l 546 795 l 546 708 l 138 708 z "},"":{"ha":926,"x_min":-2,"x_max":939,"o":"m 548 420 l 414 754 l 290 420 l 548 420 m 613 63 q 622 68 613 63 q 643 87 631 73 q 655 116 655 102 q 650 148 655 130 q 637 189 645 166 q 620 238 629 212 q 601 288 610 264 q 573 361 578 346 l 267 361 q 257 334 264 351 q 241 293 250 316 q 223 245 232 271 q 206 197 214 220 q 189 121 189 144 q 200 85 189 98 q 230 64 212 72 q 318 39 253 52 l 318 0 l -2 0 l -2 35 q 26 53 12 47 q 55 64 41 58 q 103 104 90 79 q 123 147 116 128 q 138 185 130 166 l 391 835 q 394 850 394 842 q 395 867 395 859 q 404 898 397 889 q 510 866 468 898 l 821 119 q 871 64 838 81 q 903 51 886 56 q 939 35 920 45 l 937 0 l 543 0 l 541 35 q 613 63 595 53 m 353 1142 q 487 1063 388 1063 q 609 1142 587 1063 l 648 1142 q 604 1020 648 1065 q 480 975 560 975 q 358 1019 400 975 q 314 1142 316 1063 l 353 1142 z "},"":{"ha":687,"x_min":62,"x_max":670,"o":"m 279 63 q 427 136 351 63 l 427 309 q 386 295 410 302 q 336 278 362 288 q 285 256 311 268 q 240 228 260 243 q 195 150 195 192 q 217 86 195 109 q 279 63 239 63 m 429 87 q 218 -14 334 -14 q 75 62 114 -14 q 62 124 62 87 q 81 191 62 160 q 131 244 100 221 q 201 283 161 267 q 281 311 240 299 q 360 332 321 323 q 427 349 398 341 l 427 413 q 410 522 427 492 q 368 565 393 551 q 318 578 344 578 q 273 574 292 578 q 237 562 255 570 q 195 517 195 544 q 203 491 195 506 q 218 443 218 462 q 202 406 218 424 q 162 388 185 388 q 125 395 139 388 q 102 414 111 402 q 83 470 83 438 q 95 524 83 502 q 128 564 108 547 q 175 593 149 581 q 229 613 201 606 q 345 628 281 628 q 451 612 408 628 q 517 563 494 595 q 547 481 541 530 q 554 367 554 432 l 550 220 q 582 67 550 67 q 642 114 605 67 l 670 83 q 619 16 639 33 q 535 -14 582 -14 q 460 15 489 -14 q 429 87 432 43 m 251 869 q 386 791 286 791 q 507 869 485 791 l 547 869 q 503 747 547 793 q 378 702 458 702 q 256 746 298 702 q 212 869 214 790 l 251 869 z "},"":{"ha":926,"x_min":-2,"x_max":939,"o":"m 548 420 l 414 754 l 290 420 l 548 420 m 613 63 q 622 68 613 63 q 643 87 631 73 q 655 116 655 102 q 650 148 655 130 q 637 189 645 166 q 620 238 629 212 q 601 288 610 264 q 573 361 578 346 l 267 361 q 257 334 264 351 q 241 293 250 316 q 223 245 232 271 q 206 197 214 220 q 189 121 189 144 q 200 85 189 98 q 230 64 212 72 q 318 39 253 52 l 318 0 l -2 0 l -2 35 q 26 53 12 47 q 55 64 41 58 q 103 104 90 79 q 123 147 116 128 q 138 185 130 166 l 391 835 q 394 850 394 842 q 395 867 395 859 q 404 898 397 889 q 510 866 468 898 l 821 119 q 871 64 838 81 q 903 51 886 56 q 939 35 920 45 l 937 0 l 543 0 l 541 35 q 613 63 595 53 m 938 -213 q 808 -252 869 -252 q 708 -220 749 -252 q 664 -127 664 -186 q 705 -29 664 -68 q 802 16 740 3 q 790 -13 798 -1 q 774 -37 782 -25 q 753 -98 753 -68 q 817 -174 753 -156 q 860 -179 835 -179 q 930 -159 884 -179 l 938 -213 z "},"":{"ha":687,"x_min":62,"x_max":670,"o":"m 279 63 q 427 136 351 63 l 427 309 q 386 295 410 302 q 336 278 362 288 q 285 256 311 268 q 240 228 260 243 q 195 150 195 192 q 217 86 195 109 q 279 63 239 63 m 429 87 q 218 -14 334 -14 q 75 62 114 -14 q 62 124 62 87 q 81 191 62 160 q 131 244 100 221 q 201 283 161 267 q 281 311 240 299 q 360 332 321 323 q 427 349 398 341 l 427 413 q 410 522 427 492 q 368 565 393 551 q 318 578 344 578 q 273 574 292 578 q 237 562 255 570 q 195 517 195 544 q 203 491 195 506 q 218 443 218 462 q 202 406 218 424 q 162 388 185 388 q 125 395 139 388 q 102 414 111 402 q 83 470 83 438 q 95 524 83 502 q 128 564 108 547 q 175 593 149 581 q 229 613 201 606 q 345 628 281 628 q 451 612 408 628 q 517 563 494 595 q 547 481 541 530 q 554 367 554 432 l 550 220 q 582 67 550 67 q 642 114 605 67 l 670 83 q 619 16 639 33 q 535 -14 582 -14 q 460 15 489 -14 q 429 87 432 43 m 670 -213 q 540 -252 601 -252 q 440 -220 481 -252 q 396 -127 396 -186 q 437 -29 396 -68 q 534 16 472 3 q 522 -13 530 -1 q 506 -37 514 -25 q 486 -98 486 -68 q 549 -174 486 -156 q 592 -179 567 -179 q 663 -159 616 -179 l 670 -213 z "},"":{"ha":976,"x_min":76,"x_max":903,"o":"m 595 55 q 870 206 789 55 l 903 201 l 897 73 q 633 -11 785 10 q 547 -18 587 -18 q 212 102 342 -18 q 76 434 76 227 q 214 764 76 633 q 586 900 357 900 q 868 844 724 900 l 896 640 l 864 638 q 833 683 851 651 q 784 758 799 743 q 567 848 694 848 q 336 748 430 848 q 235 461 235 641 q 332 165 235 275 q 595 55 431 55 m 356 1016 q 340 1034 340 1016 q 355 1063 340 1044 q 396 1117 369 1082 q 450 1190 422 1153 q 536 1305 519 1283 q 584 1337 560 1337 q 634 1302 617 1337 q 639 1277 639 1292 q 619 1245 639 1263 q 564 1195 599 1227 q 496 1131 530 1163 q 393 1038 418 1061 q 356 1016 368 1016 z "},"":{"ha":653,"x_min":56,"x_max":604,"o":"m 596 127 q 504 22 576 60 q 361 -14 439 -14 q 227 13 283 -14 q 133 83 171 39 q 56 304 56 172 q 146 533 56 441 q 388 628 240 628 q 586 557 534 628 q 604 508 604 533 q 597 471 604 483 q 581 450 590 458 q 537 435 561 435 q 503 446 513 435 q 487 472 492 456 q 479 507 482 488 q 467 541 477 525 q 378 578 446 578 q 240 518 296 578 q 180 340 180 452 q 235 159 180 231 q 395 81 294 81 q 534 115 479 81 q 574 143 554 127 l 596 127 m 196 743 q 180 761 180 743 q 195 790 180 771 q 236 845 209 809 q 290 917 262 880 q 376 1032 359 1010 q 424 1065 400 1065 q 474 1029 457 1065 q 479 1005 479 1019 q 459 972 479 990 q 404 922 439 954 q 336 859 370 890 q 233 766 258 788 q 196 743 208 743 z "},"":{"ha":976,"x_min":76,"x_max":903,"o":"m 595 55 q 870 206 789 55 l 903 201 l 897 73 q 633 -11 785 10 q 547 -18 587 -18 q 212 102 342 -18 q 76 434 76 227 q 214 764 76 633 q 586 900 357 900 q 868 844 724 900 l 896 640 l 864 638 q 833 683 851 651 q 784 758 799 743 q 567 848 694 848 q 336 748 430 848 q 235 461 235 641 q 332 165 235 275 q 595 55 431 55 m 563 1137 q 610 1120 594 1137 q 637 1070 637 1093 q 632 1034 637 1047 q 616 1010 626 1020 q 563 989 593 989 q 517 1004 533 989 q 489 1054 489 1031 q 495 1091 489 1078 q 511 1115 500 1105 q 563 1137 532 1137 z "},"":{"ha":653,"x_min":56,"x_max":604,"o":"m 596 127 q 504 22 576 60 q 361 -14 439 -14 q 227 13 283 -14 q 133 83 171 39 q 56 304 56 172 q 146 533 56 441 q 388 628 240 628 q 586 557 534 628 q 604 508 604 533 q 597 471 604 483 q 581 450 590 458 q 537 435 561 435 q 503 446 513 435 q 487 472 492 456 q 479 507 482 488 q 467 541 477 525 q 378 578 446 578 q 240 518 296 578 q 180 340 180 452 q 235 159 180 231 q 395 81 294 81 q 534 115 479 81 q 574 143 554 127 l 596 127 m 326 864 q 374 848 357 864 q 401 798 401 821 q 395 761 401 774 q 379 738 389 747 q 326 716 357 716 q 280 732 296 716 q 252 782 252 758 q 258 819 252 805 q 274 842 264 832 q 326 864 296 864 z "},"":{"ha":976,"x_min":76,"x_max":903,"o":"m 595 55 q 870 206 789 55 l 903 201 l 897 73 q 633 -11 785 10 q 547 -18 587 -18 q 212 102 342 -18 q 76 434 76 227 q 214 764 76 633 q 586 900 357 900 q 868 844 724 900 l 896 640 l 864 638 q 833 683 851 651 q 784 758 799 743 q 567 848 694 848 q 336 748 430 848 q 235 461 235 641 q 332 165 235 275 q 595 55 431 55 m 294 1205 q 319 1214 300 1214 q 455 1084 363 1191 q 491 1044 477 1059 q 525 1086 505 1061 q 565 1135 544 1110 q 646 1214 616 1195 q 671 1205 665 1214 q 600 1063 644 1139 q 540 957 556 987 q 447 943 488 943 q 334 1121 410 972 q 294 1205 309 1171 z "},"":{"ha":653,"x_min":56,"x_max":604,"o":"m 596 127 q 504 22 576 60 q 361 -14 439 -14 q 227 13 283 -14 q 133 83 171 39 q 56 304 56 172 q 146 533 56 441 q 388 628 240 628 q 586 557 534 628 q 604 508 604 533 q 597 471 604 483 q 581 450 590 458 q 537 435 561 435 q 503 446 513 435 q 487 472 492 456 q 479 507 482 488 q 467 541 477 525 q 378 578 446 578 q 240 518 296 578 q 180 340 180 452 q 235 159 180 231 q 395 81 294 81 q 534 115 479 81 q 574 143 554 127 l 596 127 m 135 932 q 159 941 140 941 q 296 812 203 918 q 332 771 317 787 q 365 813 346 789 q 406 863 385 838 q 487 941 456 922 q 511 932 506 941 q 441 790 485 866 q 380 684 397 715 q 288 671 329 671 q 175 848 251 700 q 135 932 149 899 z "},"":{"ha":1101,"x_min":46,"x_max":1025,"o":"m 344 831 l 344 184 q 360 100 344 125 q 444 54 389 57 q 542 52 473 52 q 675 84 610 52 q 781 167 739 116 q 864 413 864 268 q 768 709 864 600 q 458 831 662 831 l 344 831 m 198 685 q 171 800 198 779 q 103 833 142 823 q 46 848 64 842 l 47 883 l 449 883 q 981 650 854 883 q 1025 464 1025 566 q 994 280 1025 361 q 902 138 963 200 q 535 0 766 0 l 47 0 l 46 35 q 97 48 71 43 q 146 64 124 54 q 198 149 198 88 l 198 685 m 353 1206 q 377 1215 358 1215 q 513 1085 421 1192 q 549 1044 535 1060 q 583 1086 564 1062 q 623 1136 602 1111 q 705 1215 674 1196 q 729 1206 724 1215 q 659 1064 703 1139 q 598 958 614 988 q 505 944 547 944 q 393 1122 469 973 q 353 1206 367 1172 z "},"":{"ha":802,"x_min":54,"x_max":1097,"o":"m 542 151 l 542 346 q 514 488 542 443 q 426 560 485 535 q 357 574 395 574 q 287 553 320 574 q 229 498 253 532 q 180 323 180 425 q 230 149 180 222 q 383 67 286 67 q 542 151 479 67 m 545 97 q 331 -14 447 -14 q 135 67 213 -14 q 54 281 54 151 q 144 530 54 433 q 369 626 234 626 q 457 611 416 626 q 542 576 498 596 l 542 797 q 427 859 524 825 l 428 882 l 619 928 l 668 933 l 668 135 q 708 75 668 94 q 778 59 739 59 l 778 22 l 597 -8 l 551 -8 l 545 97 m 912 538 q 888 576 893 555 q 931 600 909 589 q 970 624 953 610 q 1009 701 1009 654 q 951 736 989 730 q 880 813 880 748 q 936 894 880 872 q 977 901 953 901 q 1024 890 1002 901 q 1063 862 1047 880 q 1097 774 1097 823 q 1084 688 1097 725 q 1048 621 1072 652 q 912 538 996 553 z "},"":{"ha":1101,"x_min":46,"x_max":1025,"o":"m 344 831 l 344 184 q 360 100 344 125 q 444 54 389 57 q 542 52 473 52 q 675 84 610 52 q 781 167 739 116 q 864 413 864 268 q 768 709 864 600 q 458 831 662 831 l 344 831 m 198 685 q 171 800 198 779 q 103 833 142 823 q 46 848 64 842 l 47 883 l 449 883 q 981 650 854 883 q 1025 464 1025 566 q 994 280 1025 361 q 902 138 963 200 q 535 0 766 0 l 47 0 l 46 35 q 97 48 71 43 q 146 64 124 54 q 198 149 198 88 l 198 685 m 345 981 l 345 1068 l 753 1068 l 753 981 l 345 981 z "},"":{"ha":0,"x_min":0,"x_max":0,"o":""},"":{"ha":929,"x_min":46,"x_max":888,"o":"m 812 890 q 838 887 825 890 l 838 676 l 802 675 q 777 711 786 690 q 760 754 768 733 q 738 793 751 775 q 702 818 725 810 q 650 829 679 825 q 591 835 622 833 q 495 838 551 838 q 339 831 391 838 q 336 762 336 796 l 336 486 l 532 486 q 630 502 608 486 q 665 537 652 518 q 693 586 677 556 l 703 604 l 742 604 l 742 313 l 703 311 q 658 393 682 370 q 558 435 614 435 l 336 435 l 336 206 q 376 72 336 104 q 491 47 404 47 l 557 47 q 684 60 643 47 q 753 93 726 73 q 794 140 780 112 q 817 191 808 168 q 845 232 827 214 l 888 232 l 843 -6 q 821 -8 831 -8 l 743 0 l 47 0 l 46 33 q 110 56 77 50 q 155 66 143 62 q 175 81 167 70 q 191 181 191 106 l 191 694 q 157 807 191 784 q 113 826 140 819 q 46 848 85 833 l 47 883 l 739 883 l 812 890 m 262 981 l 262 1068 l 670 1068 l 670 981 l 262 981 z "},"":{"ha":653,"x_min":56,"x_max":604,"o":"m 470 414 q 339 583 460 583 q 231 528 273 583 q 180 397 191 477 l 420 403 q 470 414 452 404 m 570 131 l 589 112 q 492 18 564 53 q 357 -14 425 -14 q 234 9 289 -14 q 140 75 180 33 q 56 303 56 163 q 146 538 56 444 q 355 628 232 628 q 518 570 452 628 q 597 420 583 513 q 604 363 604 386 l 604 357 l 176 357 q 175 347 175 351 q 175 337 175 342 q 243 143 175 210 q 396 82 304 82 q 570 131 488 82 m 121 708 l 121 795 l 529 795 l 529 708 l 121 708 z "},"":{"ha":929,"x_min":46,"x_max":888,"o":"m 812 890 q 838 887 825 890 l 838 676 l 802 675 q 777 711 786 690 q 760 754 768 733 q 738 793 751 775 q 702 818 725 810 q 650 829 679 825 q 591 835 622 833 q 495 838 551 838 q 339 831 391 838 q 336 762 336 796 l 336 486 l 532 486 q 630 502 608 486 q 665 537 652 518 q 693 586 677 556 l 703 604 l 742 604 l 742 313 l 703 311 q 658 393 682 370 q 558 435 614 435 l 336 435 l 336 206 q 376 72 336 104 q 491 47 404 47 l 557 47 q 684 60 643 47 q 753 93 726 73 q 794 140 780 112 q 817 191 808 168 q 845 232 827 214 l 888 232 l 843 -6 q 821 -8 831 -8 l 743 0 l 47 0 l 46 33 q 110 56 77 50 q 155 66 143 62 q 175 81 167 70 q 191 181 191 106 l 191 694 q 157 807 191 784 q 113 826 140 819 q 46 848 85 833 l 47 883 l 739 883 l 812 890 m 888 -213 q 758 -252 819 -252 q 658 -220 699 -252 q 614 -127 614 -186 q 655 -29 614 -68 q 752 16 690 3 q 740 -13 748 -1 q 724 -37 732 -25 q 703 -98 703 -68 q 766 -174 703 -156 q 809 -179 785 -179 q 880 -159 834 -179 l 888 -213 z "},"":{"ha":653,"x_min":56,"x_max":604,"o":"m 470 414 q 339 583 460 583 q 231 528 273 583 q 180 397 191 477 l 420 403 q 470 414 452 404 m 570 131 l 589 112 q 492 18 564 53 q 357 -14 425 -14 q 234 9 289 -14 q 140 75 180 33 q 56 303 56 163 q 146 538 56 444 q 355 628 232 628 q 518 570 452 628 q 597 420 583 513 q 604 363 604 386 l 604 357 l 176 357 q 175 347 175 351 q 175 337 175 342 q 243 143 175 210 q 396 82 304 82 q 570 131 488 82 m 604 -213 q 474 -252 535 -252 q 374 -220 415 -252 q 330 -127 330 -186 q 372 -29 330 -68 q 469 16 406 3 q 456 -13 465 -1 q 440 -37 448 -25 q 420 -98 420 -68 q 483 -174 420 -156 q 526 -179 501 -179 q 597 -159 551 -179 l 604 -213 z "},"":{"ha":929,"x_min":46,"x_max":888,"o":"m 812 890 q 838 887 825 890 l 838 676 l 802 675 q 777 711 786 690 q 760 754 768 733 q 738 793 751 775 q 702 818 725 810 q 650 829 679 825 q 591 835 622 833 q 495 838 551 838 q 339 831 391 838 q 336 762 336 796 l 336 486 l 532 486 q 630 502 608 486 q 665 537 652 518 q 693 586 677 556 l 703 604 l 742 604 l 742 313 l 703 311 q 658 393 682 370 q 558 435 614 435 l 336 435 l 336 206 q 376 72 336 104 q 491 47 404 47 l 557 47 q 684 60 643 47 q 753 93 726 73 q 794 140 780 112 q 817 191 808 168 q 845 232 827 214 l 888 232 l 843 -6 q 821 -8 831 -8 l 743 0 l 47 0 l 46 33 q 110 56 77 50 q 155 66 143 62 q 175 81 167 70 q 191 181 191 106 l 191 694 q 157 807 191 784 q 113 826 140 819 q 46 848 85 833 l 47 883 l 739 883 l 812 890 m 271 1205 q 296 1214 277 1214 q 432 1084 340 1191 q 468 1044 454 1059 q 502 1086 482 1061 q 542 1135 521 1110 q 623 1214 593 1195 q 648 1205 642 1214 q 577 1063 621 1139 q 517 957 533 987 q 424 943 465 943 q 311 1121 387 972 q 271 1205 286 1171 z "},"":{"ha":653,"x_min":56,"x_max":604,"o":"m 470 414 q 339 583 460 583 q 231 528 273 583 q 180 397 191 477 l 420 403 q 470 414 452 404 m 570 131 l 589 112 q 492 18 564 53 q 357 -14 425 -14 q 234 9 289 -14 q 140 75 180 33 q 56 303 56 163 q 146 538 56 444 q 355 628 232 628 q 518 570 452 628 q 597 420 583 513 q 604 363 604 386 l 604 357 l 176 357 q 175 347 175 351 q 175 337 175 342 q 243 143 175 210 q 396 82 304 82 q 570 131 488 82 m 159 932 q 183 941 164 941 q 319 812 227 918 q 355 771 341 787 q 389 813 370 789 q 429 863 408 838 q 511 941 480 922 q 535 932 530 941 q 465 790 509 866 q 404 684 420 715 q 311 671 353 671 q 199 848 275 700 q 159 932 173 899 z "},"":{"ha":1071,"x_min":76,"x_max":1054,"o":"m 1053 464 l 1054 429 q 1013 413 1033 420 q 976 395 992 406 q 940 314 940 369 l 940 64 q 590 -18 782 -18 q 217 106 357 -18 q 76 433 76 230 q 151 680 76 570 q 346 842 221 782 q 615 900 469 900 q 913 846 760 900 l 933 641 q 894 639 911 639 q 866 678 880 650 q 827 746 836 736 q 597 848 741 848 q 339 736 441 848 q 238 458 238 625 q 339 160 238 277 q 602 42 440 42 q 783 86 711 42 q 791 222 791 155 q 772 375 791 322 q 715 413 762 403 q 677 420 696 417 q 644 429 658 422 l 644 446 q 646 464 644 456 l 1053 464 m 450 1142 q 585 1063 486 1063 q 707 1142 684 1063 l 746 1142 q 702 1020 746 1065 q 578 975 658 975 q 456 1019 498 975 q 412 1142 414 1063 l 450 1142 z "},"":{"ha":677,"x_min":52,"x_max":638,"o":"m 205 10 q 140 -93 140 -45 q 284 -180 140 -167 q 327 -182 303 -182 q 391 -176 351 -182 q 465 -157 431 -170 q 545 -80 545 -128 q 380 1 545 -2 l 326 1 q 205 10 280 3 m 195 429 q 203 361 195 393 q 226 305 210 330 q 323 254 260 254 q 425 344 405 254 q 432 409 432 372 q 422 479 432 447 q 395 533 412 511 q 304 578 360 578 q 227 537 258 578 q 195 429 195 495 m 325 628 q 459 592 390 628 l 509 598 q 588 605 564 605 q 638 602 618 605 l 628 516 q 549 534 593 525 l 497 545 q 543 468 536 493 q 551 407 551 443 q 530 331 551 371 q 474 263 509 290 q 311 209 406 209 q 224 221 277 209 q 207 210 216 215 q 192 199 199 205 q 176 166 176 186 q 194 139 176 147 q 246 127 212 131 q 331 122 281 124 q 433 117 380 121 q 521 102 486 113 q 582 72 556 91 q 637 -35 637 33 q 536 -184 637 -127 q 300 -238 441 -238 q 115 -201 186 -238 q 52 -125 52 -169 q 155 16 52 -59 q 75 111 75 50 q 142 210 75 163 q 186 239 162 224 q 75 416 75 303 q 141 568 75 509 q 325 628 207 628 m 230 869 q 365 791 265 791 q 486 869 464 791 l 526 869 q 481 747 526 793 q 357 702 437 702 q 235 746 277 702 q 191 869 193 790 l 230 869 z "},"":{"ha":1071,"x_min":76,"x_max":1054,"o":"m 1053 464 l 1054 429 q 1013 413 1033 420 q 976 395 992 406 q 940 314 940 369 l 940 64 q 590 -18 782 -18 q 217 106 357 -18 q 76 433 76 230 q 151 680 76 570 q 346 842 221 782 q 615 900 469 900 q 913 846 760 900 l 933 641 q 894 639 911 639 q 866 678 880 650 q 827 746 836 736 q 597 848 741 848 q 339 736 441 848 q 238 458 238 625 q 339 160 238 277 q 602 42 440 42 q 783 86 711 42 q 791 222 791 155 q 772 375 791 322 q 715 413 762 403 q 677 420 696 417 q 644 429 658 422 l 644 446 q 646 464 644 456 l 1053 464 m 536 1137 q 583 1121 567 1137 q 610 1071 610 1094 q 605 1034 610 1048 q 589 1011 599 1021 q 536 989 566 989 q 490 1005 506 989 q 462 1055 462 1031 q 468 1092 462 1078 q 484 1116 473 1105 q 536 1137 505 1137 z "},"":{"ha":677,"x_min":52,"x_max":638,"o":"m 205 10 q 140 -93 140 -45 q 284 -180 140 -167 q 327 -182 303 -182 q 391 -176 351 -182 q 465 -157 431 -170 q 545 -80 545 -128 q 380 1 545 -2 l 326 1 q 205 10 280 3 m 195 429 q 203 361 195 393 q 226 305 210 330 q 323 254 260 254 q 425 344 405 254 q 432 409 432 372 q 422 479 432 447 q 395 533 412 511 q 304 578 360 578 q 227 537 258 578 q 195 429 195 495 m 325 628 q 459 592 390 628 l 509 598 q 588 605 564 605 q 638 602 618 605 l 628 516 q 549 534 593 525 l 497 545 q 543 468 536 493 q 551 407 551 443 q 530 331 551 371 q 474 263 509 290 q 311 209 406 209 q 224 221 277 209 q 207 210 216 215 q 192 199 199 205 q 176 166 176 186 q 194 139 176 147 q 246 127 212 131 q 331 122 281 124 q 433 117 380 121 q 521 102 486 113 q 582 72 556 91 q 637 -35 637 33 q 536 -184 637 -127 q 300 -238 441 -238 q 115 -201 186 -238 q 52 -125 52 -169 q 155 16 52 -59 q 75 111 75 50 q 142 210 75 163 q 186 239 162 224 q 75 416 75 303 q 141 568 75 509 q 325 628 207 628 m 335 864 q 382 848 366 864 q 410 798 410 821 q 404 761 410 774 q 388 738 398 747 q 335 716 366 716 q 289 732 305 716 q 261 782 261 758 q 267 819 261 805 q 283 842 273 832 q 335 864 304 864 z "},"":{"ha":1071,"x_min":76,"x_max":1054,"o":"m 513 -417 q 485 -391 485 -417 q 500 -371 485 -378 q 527 -359 516 -363 q 548 -345 538 -354 q 570 -288 570 -324 q 464 -226 488 -288 q 457 -188 457 -208 q 465 -150 457 -168 q 486 -118 472 -132 q 561 -87 515 -87 q 673 -237 673 -87 q 614 -373 673 -321 q 513 -417 566 -417 m 1053 464 l 1054 429 q 1013 413 1033 420 q 976 395 992 406 q 940 314 940 369 l 940 64 q 590 -18 782 -18 q 217 106 357 -18 q 76 433 76 230 q 151 680 76 570 q 346 842 221 782 q 615 900 469 900 q 913 846 760 900 l 933 641 q 894 639 911 639 q 866 678 880 650 q 827 746 836 736 q 597 848 741 848 q 339 736 441 848 q 238 458 238 625 q 339 160 238 277 q 602 42 440 42 q 783 86 711 42 q 791 222 791 155 q 772 375 791 322 q 715 413 762 403 q 677 420 696 417 q 644 429 658 422 l 644 446 q 646 464 644 456 l 1053 464 z "},"":{"ha":654,"x_min":52,"x_max":638,"o":"m 205 10 q 140 -93 140 -45 q 285 -180 140 -167 q 327 -182 303 -182 q 391 -176 351 -182 q 465 -157 431 -170 q 545 -80 545 -128 q 380 1 545 -2 l 326 1 q 205 10 280 3 m 195 429 q 203 361 195 393 q 227 305 210 330 q 323 254 260 254 q 426 344 405 254 q 432 409 432 372 q 422 479 432 447 q 395 533 412 511 q 304 578 360 578 q 227 537 258 578 q 195 429 195 495 m 325 628 q 459 592 390 628 l 509 598 q 587 605 564 605 q 638 602 618 605 l 628 516 q 549 534 593 525 l 497 545 q 543 468 536 493 q 551 407 551 443 q 530 331 551 371 q 475 263 509 290 q 311 209 406 209 q 224 221 277 209 q 207 210 216 215 q 191 199 199 205 q 176 166 176 186 q 194 139 176 147 q 246 127 212 131 q 331 122 281 124 q 433 117 380 121 q 521 102 486 113 q 582 72 556 91 q 637 -35 637 33 q 536 -184 637 -127 q 300 -238 441 -238 q 115 -201 186 -238 q 52 -125 52 -169 q 155 16 52 -59 q 75 111 75 50 q 142 210 75 163 q 186 239 162 224 q 75 416 75 303 q 141 568 75 509 q 325 628 207 628 m 418 1082 q 443 1044 437 1066 q 400 1021 421 1031 q 361 996 378 1010 q 321 920 321 965 q 380 884 342 890 q 451 807 451 870 q 395 726 451 747 q 353 719 378 719 q 307 729 329 719 q 268 758 284 739 q 234 846 234 797 q 246 932 234 895 q 282 999 258 968 q 418 1082 334 1066 z "},"":{"ha":1109,"x_min":46,"x_max":1063,"o":"m 477 798 q 481 785 477 798 q 453 764 481 770 q 406 755 425 758 q 370 745 387 751 q 331 699 331 730 l 331 627 l 777 627 l 777 699 q 705 754 777 740 q 647 769 660 763 q 635 783 635 776 q 637 798 635 789 l 1057 798 l 1061 785 q 1035 764 1061 770 q 991 754 1009 758 q 958 743 974 750 q 922 699 922 729 l 922 84 q 993 36 922 44 q 1050 26 1037 31 q 1063 12 1063 21 q 1060 0 1063 7 l 637 0 q 634 16 634 9 q 645 28 634 23 q 671 34 655 33 q 705 37 687 36 q 739 43 724 39 q 777 88 777 54 l 777 391 l 331 391 l 331 84 q 407 36 331 44 q 469 26 456 31 q 483 12 483 21 q 480 0 483 7 l 50 0 q 46 16 46 9 q 56 28 46 23 q 82 34 66 33 q 116 37 98 36 q 149 43 134 39 q 185 88 185 54 l 185 699 q 116 753 185 739 q 59 769 72 762 q 47 783 47 776 q 50 798 47 789 l 477 798 m 777 431 l 777 547 l 331 547 l 331 431 l 777 431 z "},"":{"ha":807,"x_min":1,"x_max":789,"o":"m 127 789 q 11 853 109 819 l 12 877 l 205 928 l 254 933 l 254 738 l 409 738 l 409 679 l 254 679 l 254 521 q 345 593 309 574 q 466 628 410 628 q 560 614 522 628 q 627 571 598 600 q 686 385 686 508 l 686 150 q 692 94 686 115 q 710 64 698 73 q 737 51 722 56 q 767 42 752 45 q 789 34 781 39 l 788 0 l 454 0 q 453 18 453 7 l 453 34 q 480 42 464 39 q 511 52 496 46 q 554 92 549 66 q 560 145 560 119 l 560 391 q 490 543 560 507 q 430 555 465 555 q 254 464 342 555 l 254 158 q 277 66 254 82 q 329 45 298 51 q 372 34 360 39 l 372 13 l 372 0 l 10 0 q 9 18 9 7 l 9 34 q 29 42 15 40 q 59 47 43 45 q 104 74 100 56 q 127 158 127 100 l 127 679 l 1 679 l 1 738 l 127 738 l 127 789 z "},"":{"ha":547,"x_min":46,"x_max":501,"o":"m 345 176 q 358 90 345 109 q 384 66 371 71 q 415 57 397 60 q 454 50 432 54 q 501 36 475 45 l 500 0 l 49 0 l 49 35 q 114 54 79 50 q 162 63 149 59 q 183 81 174 68 q 199 189 199 107 l 199 699 q 154 819 199 806 q 123 826 140 823 q 46 848 73 833 l 47 883 l 497 883 l 498 848 q 447 833 474 840 q 397 817 420 827 q 345 733 345 791 l 345 176 m 151 1112 q 98 1040 110 1112 l 72 1040 q 180 1198 76 1198 q 272 1172 222 1198 q 347 1135 321 1146 q 392 1123 372 1123 q 450 1196 437 1123 l 476 1196 q 446 1074 475 1115 q 367 1033 418 1033 q 274 1060 326 1033 q 196 1099 222 1087 q 151 1112 171 1112 z "},"":{"ha":399,"x_min":-1,"x_max":403,"o":"m 33 0 q 32 12 32 5 l 32 34 q 62 45 43 40 q 102 60 82 51 q 149 123 149 81 l 149 479 q 109 508 137 499 q 67 523 81 517 q 45 536 53 528 q 47 560 45 547 l 235 614 l 275 618 l 275 149 q 279 94 275 114 q 297 65 284 75 q 326 51 310 56 q 356 43 341 46 q 379 34 372 39 q 378 0 379 18 l 33 0 m 78 839 q 24 767 37 839 l -1 767 q 107 925 3 925 q 198 899 149 925 q 273 862 248 873 q 319 850 298 850 q 377 924 363 850 l 403 924 q 373 801 401 842 q 294 760 345 760 q 200 787 252 760 q 123 827 149 814 q 78 839 98 839 z "},"":{"ha":547,"x_min":46,"x_max":501,"o":"m 345 176 q 358 90 345 109 q 384 66 371 71 q 415 57 397 60 q 454 50 432 54 q 501 36 475 45 l 500 0 l 49 0 l 49 35 q 114 54 79 50 q 162 63 149 59 q 183 81 174 68 q 199 189 199 107 l 199 699 q 154 819 199 806 q 123 826 140 823 q 46 848 73 833 l 47 883 l 497 883 l 498 848 q 447 833 474 840 q 397 817 420 827 q 345 733 345 791 l 345 176 m 69 981 l 69 1067 l 477 1067 l 477 981 l 69 981 z "},"":{"ha":399,"x_min":-3,"x_max":405,"o":"m 33 0 q 32 12 32 5 l 32 34 q 62 45 43 40 q 102 60 82 51 q 149 123 149 81 l 149 479 q 109 508 137 499 q 67 523 81 517 q 45 536 53 528 q 47 560 45 547 l 235 614 l 275 618 l 275 149 q 279 94 275 114 q 297 65 284 75 q 326 51 310 56 q 356 43 341 46 q 379 34 372 39 q 378 0 379 18 l 33 0 m -3 708 l -3 795 l 405 795 l 405 708 l -3 708 z "},"":{"ha":547,"x_min":46,"x_max":501,"o":"m 345 176 q 358 90 345 109 q 384 66 371 71 q 415 57 397 60 q 454 50 432 54 q 501 36 475 45 l 500 0 l 49 0 l 49 35 q 114 54 79 50 q 162 63 149 59 q 183 81 174 68 q 199 189 199 107 l 199 699 q 154 819 199 806 q 123 826 140 823 q 46 848 73 833 l 47 883 l 497 883 l 498 848 q 447 833 474 840 q 397 817 420 827 q 345 733 345 791 l 345 176 m 159 1142 q 293 1063 194 1063 q 415 1142 393 1063 l 454 1142 q 410 1020 454 1065 q 286 975 366 975 q 164 1019 206 975 q 120 1142 122 1063 l 159 1142 z "},"":{"ha":399,"x_min":32,"x_max":381,"o":"m 33 0 q 32 12 32 5 l 32 34 q 62 45 43 40 q 102 60 82 51 q 149 123 149 81 l 149 479 q 109 508 137 499 q 67 523 81 517 q 45 536 53 528 q 47 560 45 547 l 235 614 l 275 618 l 275 149 q 279 94 275 114 q 297 65 284 75 q 326 51 310 56 q 356 43 341 46 q 379 34 372 39 q 378 0 379 18 l 33 0 m 85 869 q 220 791 121 791 q 342 869 319 791 l 381 869 q 337 747 381 793 q 213 702 293 702 q 91 746 133 702 q 47 869 49 790 l 85 869 z "},"":{"ha":547,"x_min":46,"x_max":501,"o":"m 345 176 q 358 90 345 109 q 384 66 371 71 q 415 57 397 60 q 454 50 432 54 q 501 36 475 45 l 500 0 l 49 0 l 49 35 q 114 54 79 50 q 162 63 149 59 q 183 81 174 68 q 199 189 199 107 l 199 699 q 154 819 199 806 q 123 826 140 823 q 46 848 73 833 l 47 883 l 497 883 l 498 848 q 447 833 474 840 q 397 817 420 827 q 345 733 345 791 l 345 176 m 440 -213 q 310 -252 371 -252 q 210 -220 251 -252 q 166 -127 166 -186 q 208 -29 166 -68 q 304 16 242 3 q 292 -13 300 -1 q 276 -37 284 -25 q 256 -98 256 -68 q 319 -174 256 -156 q 362 -179 337 -179 q 433 -159 387 -179 l 440 -213 z "},"":{"ha":395,"x_min":33,"x_max":372,"o":"m 120 854 q 137 904 120 886 q 199 933 165 933 q 248 916 231 933 q 277 854 277 887 q 260 804 277 821 q 199 776 231 776 q 149 792 165 776 q 120 854 120 821 m 35 0 q 33 12 33 5 l 33 34 q 63 45 45 40 q 100 60 82 51 q 144 123 144 81 l 144 484 q 41 541 125 517 l 43 564 l 231 618 l 271 623 l 271 149 q 275 95 271 116 q 293 65 280 75 q 320 51 305 56 q 350 42 336 45 q 372 34 364 39 q 372 17 372 34 q 371 0 372 9 l 35 0 m 371 -213 q 241 -252 302 -252 q 141 -220 182 -252 q 97 -127 97 -186 q 138 -29 97 -68 q 235 16 173 3 q 223 -13 231 -1 q 207 -37 215 -25 q 186 -98 186 -68 q 250 -174 186 -156 q 293 -179 268 -179 q 363 -159 317 -179 l 371 -213 z "},"":{"ha":0,"x_min":0,"x_max":0,"o":""},"":{"ha":399,"x_min":32,"x_max":379,"o":"m 33 0 q 32 12 32 5 l 32 34 q 62 45 43 40 q 102 60 82 51 q 149 123 149 81 l 149 479 q 109 508 137 499 q 67 523 81 517 q 45 536 53 528 q 47 560 45 547 l 235 614 l 275 618 l 275 149 q 279 94 275 114 q 297 65 284 75 q 326 51 310 56 q 356 43 341 46 q 379 34 372 39 q 378 0 379 18 l 33 0 z "},"":{"ha":1076,"x_min":46,"x_max":1029,"o":"m 345 176 q 358 90 345 109 q 384 66 371 71 q 415 57 397 60 q 454 50 432 54 q 501 36 475 45 l 500 0 l 49 0 l 49 35 q 114 54 79 50 q 162 63 149 59 q 183 81 174 68 q 199 189 199 107 l 199 699 q 154 819 199 806 q 123 826 140 823 q 46 848 73 833 l 47 883 l 497 883 l 498 848 q 447 833 474 840 q 397 817 420 827 q 345 733 345 791 l 345 176 m 676 -170 q 730 4 730 -170 l 730 702 q 717 789 730 770 q 692 815 705 809 q 662 825 679 821 q 623 834 645 829 q 575 848 602 838 l 577 883 l 1029 883 l 1029 848 q 966 830 1002 837 q 917 818 930 823 q 894 800 903 812 q 876 708 876 775 l 876 115 q 723 -212 876 -149 q 654 -226 687 -226 q 597 -222 621 -226 q 553 -208 574 -218 q 505 -140 505 -185 q 522 -98 505 -114 q 565 -83 539 -83 q 605 -96 591 -83 q 627 -126 618 -110 q 646 -157 636 -143 q 676 -170 656 -170 z "},"":{"ha":761,"x_min":33,"x_max":663,"o":"m 120 854 q 137 904 120 886 q 199 933 165 933 q 248 916 231 933 q 277 854 277 887 q 260 804 277 821 q 199 776 231 776 q 149 792 165 776 q 120 854 120 821 m 35 0 q 33 12 33 5 l 33 34 q 63 45 45 40 q 100 60 82 51 q 144 123 144 81 l 144 484 q 41 541 125 517 l 43 564 l 231 618 l 271 623 l 271 149 q 275 95 271 116 q 293 65 280 75 q 320 51 305 56 q 350 42 336 45 q 372 34 364 39 q 372 17 372 34 q 371 0 372 9 l 35 0 m 507 854 q 524 904 507 886 q 585 933 551 933 q 635 916 618 933 q 663 854 663 886 q 647 804 663 821 q 585 776 618 776 q 536 792 552 776 q 507 854 507 821 m 531 481 q 438 536 511 512 q 421 541 424 541 l 421 564 l 611 618 l 657 623 l 657 85 q 511 -183 657 -125 q 404 -209 465 -202 l 394 -170 q 461 -134 435 -151 q 502 -94 487 -117 q 531 60 526 -54 l 531 481 z "},"":{"ha":532,"x_min":-39,"x_max":486,"o":"m 132 -170 q 186 4 186 -170 l 186 702 q 173 789 186 770 q 148 815 161 809 q 118 825 135 821 q 79 834 101 829 q 31 848 58 838 l 33 883 l 486 883 l 486 848 q 422 830 458 837 q 373 818 386 823 q 350 800 359 812 q 332 708 332 775 l 332 115 q 179 -212 332 -149 q 110 -226 143 -226 q 53 -222 77 -226 q 9 -208 30 -218 q -39 -140 -39 -185 q -22 -98 -39 -114 q 21 -83 -5 -83 q 61 -96 47 -83 q 83 -126 74 -110 q 102 -157 92 -143 q 132 -170 113 -170 m 445 997 q 256 1188 429 997 q 68 997 84 997 q 56 1008 56 997 q 125 1154 56 1021 q 201 1299 194 1288 q 256 1338 224 1338 q 314 1295 292 1338 q 330 1264 317 1287 q 357 1210 342 1241 l 391 1144 q 456 1004 456 1012 q 445 997 456 997 z "},"":{"ha":366,"x_min":-16,"x_max":384,"o":"m 136 481 q 43 536 117 512 q 26 541 29 541 l 26 564 l 216 618 l 262 623 l 262 85 q 117 -183 262 -125 q 9 -209 70 -202 l -1 -170 q 66 -134 41 -151 q 107 -94 92 -117 q 136 60 131 -54 l 136 481 m 372 724 q 184 916 356 724 q -5 724 12 724 q -16 736 -16 724 q 53 882 -16 748 q 128 1027 121 1015 q 184 1065 151 1065 q 241 1022 219 1065 q 257 991 245 1015 q 285 937 269 968 l 318 871 q 384 732 384 739 q 372 724 384 724 z "},"":{"ha":1004,"x_min":46,"x_max":1015,"o":"m 46 871 q 50 883 46 871 l 501 883 q 504 868 504 875 q 492 857 504 861 q 463 849 481 852 q 425 843 446 846 q 387 834 405 840 q 347 791 347 821 l 347 492 l 405 492 l 714 799 q 717 817 717 806 q 708 833 717 827 q 686 843 699 840 q 658 848 673 846 q 630 850 643 849 q 600 871 600 854 q 603 883 600 871 l 985 883 l 988 871 q 949 849 988 859 q 884 833 910 839 q 795 795 828 821 l 532 525 l 850 88 q 913 58 863 73 q 978 37 962 43 q 1015 14 1015 22 q 1013 0 1015 5 l 549 0 q 545 14 545 8 q 553 24 545 20 q 575 31 562 28 q 604 36 588 34 q 632 41 619 37 q 663 69 663 50 q 651 91 663 76 l 408 448 l 347 448 l 347 84 q 427 35 347 39 q 494 28 480 33 q 507 13 507 24 q 504 0 507 12 l 50 0 q 47 15 47 7 q 58 26 47 22 q 87 33 70 31 q 124 38 104 35 q 161 45 144 40 q 201 88 201 57 l 201 791 q 123 843 201 833 q 46 871 46 853 m 489 -391 q 460 -366 460 -391 q 476 -345 460 -353 q 503 -333 492 -338 q 523 -319 514 -328 q 545 -262 545 -298 q 440 -200 464 -262 q 433 -162 433 -182 q 440 -124 433 -142 q 461 -92 448 -106 q 536 -61 491 -61 q 649 -212 649 -61 q 591 -347 649 -295 q 489 -391 541 -391 z "},"":{"ha":793,"x_min":27,"x_max":784,"o":"m 45 0 q 43 11 43 5 q 52 20 43 16 q 73 29 60 25 q 101 36 86 33 q 130 46 117 40 q 160 81 160 60 l 160 761 q 94 806 160 789 q 38 822 50 817 q 27 833 27 827 q 30 844 27 839 l 300 891 l 300 322 l 342 322 l 559 535 q 560 544 560 537 q 554 557 560 551 q 537 566 547 564 q 516 570 528 569 q 495 572 505 571 q 473 586 473 576 q 475 610 473 596 l 762 610 l 764 587 q 724 564 764 573 q 639 532 661 551 l 452 340 l 665 64 q 710 41 675 52 q 757 27 745 31 q 784 10 784 17 q 782 0 784 3 l 446 0 l 443 8 q 457 22 443 19 q 483 26 472 24 q 502 30 493 27 q 522 50 522 36 q 513 66 522 56 l 344 285 l 300 285 l 300 79 q 351 35 300 45 q 403 9 403 24 q 400 0 403 5 l 45 0 m 328 -391 q 299 -366 299 -391 q 315 -345 299 -353 q 341 -333 330 -338 q 361 -319 353 -328 q 384 -262 384 -298 q 279 -200 302 -262 q 271 -162 271 -182 q 279 -124 271 -142 q 300 -92 286 -106 q 375 -61 330 -61 q 488 -212 488 -61 q 429 -347 488 -295 q 328 -391 380 -391 z "},"":{"ha":773,"x_min":27,"x_max":768,"o":"m 29 0 q 27 11 27 5 q 36 20 27 16 q 58 29 45 25 q 86 36 71 33 q 114 46 101 40 q 144 81 144 60 l 144 529 q 86 574 144 559 q 27 602 27 589 q 29 610 27 605 l 385 610 q 387 599 387 605 q 379 589 387 593 q 360 582 372 585 q 336 576 349 578 q 311 568 322 573 q 284 532 284 556 l 284 322 l 326 322 l 564 549 q 565 558 565 551 q 558 572 565 566 q 542 581 552 578 q 521 584 532 583 q 500 587 510 585 q 477 602 477 590 q 479 610 477 605 l 747 610 l 749 602 q 708 578 749 587 q 623 547 646 566 l 422 354 l 649 64 q 694 41 659 52 q 742 27 730 31 q 768 10 768 17 q 766 0 768 3 l 431 0 l 427 8 q 442 22 427 19 q 467 26 456 24 q 486 30 477 27 q 507 50 507 36 q 498 66 507 56 l 328 285 l 284 285 l 284 79 q 336 35 284 45 q 387 9 387 24 q 385 0 387 5 l 29 0 z "},"":{"ha":879,"x_min":46,"x_max":885,"o":"m 842 -7 q 694 0 760 0 l 47 0 l 46 37 q 102 53 74 46 q 153 71 130 59 q 203 163 203 96 l 203 701 q 191 790 203 771 q 166 817 179 810 q 137 827 154 823 q 97 836 119 831 q 47 848 75 840 l 48 883 l 507 883 l 507 848 q 440 829 478 836 q 389 818 402 823 q 367 800 376 812 q 349 705 349 776 l 349 212 q 357 120 349 153 q 389 72 364 87 q 461 53 414 56 q 563 50 508 50 q 648 53 618 50 q 705 66 678 56 q 794 147 763 88 q 816 192 806 169 q 844 233 827 215 l 885 232 l 842 -7 m 307 1017 q 292 1034 292 1017 q 306 1063 292 1044 q 347 1118 320 1082 q 401 1190 374 1154 q 487 1305 471 1284 q 535 1338 511 1338 q 585 1303 568 1338 q 590 1278 590 1293 q 570 1245 590 1263 q 515 1196 550 1227 q 447 1132 481 1164 q 344 1039 370 1061 q 307 1017 319 1017 z "},"":{"ha":394,"x_min":27,"x_max":367,"o":"m 140 155 l 139 793 q 27 853 120 822 l 28 877 l 217 928 l 266 933 l 266 159 q 288 72 266 104 q 367 34 311 40 l 366 0 l 32 0 q 31 7 31 3 l 31 34 q 58 45 41 41 q 90 54 74 49 q 134 95 129 68 q 140 155 140 122 m 64 743 q 49 761 49 743 q 63 790 49 771 q 104 845 77 809 q 158 917 131 880 q 244 1032 228 1010 q 292 1065 269 1065 q 342 1029 326 1065 q 347 1005 347 1019 q 327 972 347 990 q 273 922 307 954 q 204 859 238 890 q 101 766 127 788 q 64 743 76 743 z "},"":{"ha":879,"x_min":46,"x_max":885,"o":"m 842 -7 q 694 0 760 0 l 47 0 l 46 37 q 102 53 74 46 q 153 71 130 59 q 203 163 203 96 l 203 701 q 191 790 203 771 q 166 817 179 810 q 137 827 154 823 q 97 836 119 831 q 47 848 75 840 l 48 883 l 507 883 l 507 848 q 440 829 478 836 q 389 818 402 823 q 367 800 376 812 q 349 705 349 776 l 349 212 q 357 120 349 153 q 389 72 364 87 q 461 53 414 56 q 563 50 508 50 q 648 53 618 50 q 705 66 678 56 q 794 147 763 88 q 816 192 806 169 q 844 233 827 215 l 885 232 l 842 -7 m 389 -391 q 361 -366 361 -391 q 376 -345 361 -353 q 403 -333 392 -338 q 423 -319 414 -328 q 446 -262 446 -298 q 340 -200 364 -262 q 333 -162 333 -182 q 340 -124 333 -142 q 361 -92 348 -106 q 437 -61 391 -61 q 549 -212 549 -61 q 491 -347 549 -295 q 389 -391 441 -391 z "},"":{"ha":394,"x_min":27,"x_max":367,"o":"m 140 155 l 139 793 q 27 853 120 822 l 28 877 l 217 928 l 266 933 l 266 159 q 288 72 266 104 q 367 34 311 40 l 366 0 l 32 0 q 31 7 31 3 l 31 34 q 58 45 41 41 q 90 54 74 49 q 134 95 129 68 q 140 155 140 122 m 146 -391 q 117 -366 117 -391 q 133 -345 117 -353 q 160 -333 149 -338 q 180 -319 171 -328 q 202 -262 202 -298 q 97 -200 121 -262 q 90 -162 90 -182 q 97 -124 90 -142 q 118 -92 104 -106 q 193 -61 148 -61 q 306 -212 306 -61 q 248 -347 306 -295 q 146 -391 198 -391 z "},"":{"ha":879,"x_min":46,"x_max":885,"o":"m 842 -7 q 694 0 760 0 l 47 0 l 46 37 q 102 53 74 46 q 153 71 130 59 q 203 163 203 96 l 203 701 q 191 790 203 771 q 166 817 179 810 q 137 827 154 823 q 97 836 119 831 q 47 848 75 840 l 48 883 l 507 883 l 507 848 q 440 829 478 836 q 389 818 402 823 q 367 800 376 812 q 349 705 349 776 l 349 212 q 357 120 349 153 q 389 72 364 87 q 461 53 414 56 q 563 50 508 50 q 648 53 618 50 q 705 66 678 56 q 794 147 763 88 q 816 192 806 169 q 844 233 827 215 l 885 232 l 842 -7 m 365 811 q 340 850 346 829 q 384 873 362 862 q 422 897 406 884 q 462 974 462 928 q 404 1009 441 1003 q 332 1086 332 1021 q 389 1167 332 1145 q 430 1174 406 1174 q 477 1164 454 1174 q 516 1135 500 1154 q 549 1047 549 1097 q 537 962 549 998 q 501 895 525 925 q 365 811 449 827 z "},"":{"ha":763,"x_min":27,"x_max":690,"o":"m 140 155 l 139 793 q 27 853 120 822 l 28 877 l 217 928 l 266 933 l 266 159 q 288 72 266 104 q 367 34 311 40 l 366 0 l 32 0 q 31 7 31 3 l 31 34 q 58 45 41 41 q 90 54 74 49 q 134 95 129 68 q 140 155 140 122 m 506 538 q 481 576 487 555 q 525 600 503 589 q 564 624 547 610 q 603 701 603 654 q 545 736 583 730 q 473 813 473 748 q 530 894 473 872 q 571 901 547 901 q 618 890 595 901 q 657 862 641 880 q 690 774 690 823 q 678 688 690 725 q 642 621 666 652 q 506 538 590 553 z "},"":{"ha":879,"x_min":46,"x_max":885,"o":"m 842 -7 q 694 0 760 0 l 47 0 l 46 37 q 102 53 74 46 q 153 71 130 59 q 203 163 203 96 l 203 701 q 191 790 203 771 q 166 817 179 810 q 137 827 154 823 q 97 836 119 831 q 47 848 75 840 l 48 883 l 507 883 l 507 848 q 440 829 478 836 q 389 818 402 823 q 367 800 376 812 q 349 705 349 776 l 349 212 q 357 120 349 153 q 389 72 364 87 q 461 53 414 56 q 563 50 508 50 q 648 53 618 50 q 705 66 678 56 q 794 147 763 88 q 816 192 806 169 q 844 233 827 215 l 885 232 l 842 -7 m 561 510 q 569 548 561 530 q 591 581 577 566 q 665 611 622 611 q 739 581 707 611 q 768 511 768 550 q 739 441 768 473 q 665 410 708 410 q 591 439 622 410 q 561 510 561 469 z "},"":{"ha":732,"x_min":27,"x_max":667,"o":"m 140 155 l 139 793 q 27 853 120 822 l 28 877 l 217 928 l 266 933 l 266 159 q 288 72 266 104 q 367 34 311 40 l 366 0 l 32 0 q 31 7 31 3 l 31 34 q 58 45 41 41 q 90 54 74 49 q 134 95 129 68 q 140 155 140 122 m 459 511 q 467 549 459 531 q 489 582 475 568 q 563 612 520 612 q 637 582 606 612 q 667 512 667 551 q 637 443 667 474 q 563 412 606 412 q 490 441 520 412 q 459 511 459 471 z "},"":{"ha":878,"x_min":46,"x_max":748,"o":"m 549 564 q 578 534 578 564 q 537 500 578 517 q 502 486 523 494 l 348 423 l 348 92 q 378 38 348 38 l 586 45 q 647 61 631 47 q 688 140 673 83 q 732 235 710 235 l 748 231 l 729 -14 q 724 -18 727 -18 q 616 0 664 0 l 49 0 q 46 17 46 6 q 58 33 46 28 q 86 41 69 39 q 124 45 104 44 q 161 52 144 47 q 202 96 202 62 l 202 364 l 180 355 q 110 333 123 333 q 88 341 96 333 q 80 362 80 349 q 96 385 80 374 q 155 413 113 396 l 202 432 l 202 704 q 137 755 202 747 q 47 786 62 765 q 50 798 47 789 l 505 798 q 507 783 507 792 q 495 768 507 773 q 466 762 484 764 q 428 758 448 760 q 389 752 407 757 q 348 708 348 741 l 348 491 l 478 544 q 549 564 528 564 z "},"":{"ha":392,"x_min":-1,"x_max":400,"o":"m 132 761 q 66 806 132 789 q 11 822 22 817 q -1 833 -1 827 q 2 844 -1 839 l 273 891 l 273 528 l 302 536 q 371 548 342 548 q 400 520 400 548 q 388 498 400 505 q 318 476 374 491 l 273 464 l 273 81 q 333 35 273 45 q 384 25 374 29 q 393 13 393 20 q 391 0 393 5 l 11 0 q 8 14 8 7 q 17 26 8 21 q 40 34 26 31 q 71 39 54 37 q 100 46 87 41 q 133 85 133 58 l 132 427 l 113 421 q 43 408 66 408 q 16 437 16 408 q 57 469 16 455 q 96 481 72 474 l 132 491 l 132 761 z "},"":{"ha":1169,"x_min":46,"x_max":1123,"o":"m 992 -6 q 920 -6 964 -18 q 809 121 860 66 l 273 684 l 273 208 q 309 77 273 102 q 378 52 338 58 q 439 36 419 46 q 437 0 439 18 l 54 0 q 53 11 53 5 l 53 37 q 110 51 81 45 q 161 70 138 58 q 219 162 213 97 l 219 740 q 142 812 188 790 q 98 829 121 822 q 46 848 74 836 l 46 883 l 283 883 l 921 223 l 921 650 q 907 752 921 712 q 878 804 894 792 q 843 823 863 817 q 803 833 824 829 q 764 847 783 838 q 766 883 764 865 l 1123 883 l 1123 846 q 1071 824 1093 833 q 1033 805 1048 814 q 1006 785 1017 796 q 990 757 996 774 q 978 558 980 726 q 977 283 977 391 q 984 116 977 176 q 992 -6 991 56 m 451 1016 q 435 1034 435 1016 q 450 1063 435 1044 q 491 1117 464 1082 q 545 1190 517 1153 q 631 1305 614 1283 q 679 1337 655 1337 q 729 1302 712 1337 q 734 1277 734 1292 q 714 1245 734 1263 q 659 1195 694 1227 q 591 1131 625 1163 q 488 1038 513 1061 q 451 1016 463 1016 z "},"":{"ha":814,"x_min":27,"x_max":796,"o":"m 441 555 q 261 453 356 555 l 261 151 q 330 43 261 66 q 380 34 352 37 l 379 0 l 30 0 q 29 7 29 2 l 29 30 q 30 37 29 33 q 103 60 87 50 q 135 125 135 81 l 135 493 q 27 550 119 524 l 29 573 l 214 619 l 256 622 l 263 512 q 416 618 321 591 q 484 628 448 628 q 636 573 581 628 q 695 406 690 519 q 697 317 697 362 l 697 166 q 718 67 697 87 q 748 51 729 56 q 795 37 767 46 q 796 30 796 33 l 796 22 l 795 7 l 795 0 l 461 0 q 460 18 460 7 l 460 34 q 490 43 473 39 q 524 54 507 47 q 567 101 561 70 q 570 153 570 120 l 570 304 q 556 477 570 438 q 516 535 542 516 q 441 555 490 555 m 278 743 q 262 761 262 743 q 277 790 262 771 q 318 845 291 809 q 372 917 345 880 q 458 1032 441 1010 q 506 1065 482 1065 q 556 1029 539 1065 q 561 1005 561 1019 q 541 972 561 990 q 486 922 521 954 q 418 859 452 890 q 315 766 340 788 q 278 743 290 743 z "},"":{"ha":1169,"x_min":46,"x_max":1123,"o":"m 992 -6 q 920 -6 964 -18 q 809 121 860 66 l 273 684 l 273 208 q 309 77 273 102 q 378 52 338 58 q 439 36 419 46 q 437 0 439 18 l 54 0 q 53 11 53 5 l 53 37 q 110 51 81 45 q 161 70 138 58 q 219 162 213 97 l 219 740 q 142 812 188 790 q 98 829 121 822 q 46 848 74 836 l 46 883 l 283 883 l 921 223 l 921 650 q 907 752 921 712 q 878 804 894 792 q 843 823 863 817 q 803 833 824 829 q 764 847 783 838 q 766 883 764 865 l 1123 883 l 1123 846 q 1071 824 1093 833 q 1033 805 1048 814 q 1006 785 1017 796 q 990 757 996 774 q 978 558 980 726 q 977 283 977 391 q 984 116 977 176 q 992 -6 991 56 m 532 -391 q 504 -366 504 -391 q 519 -345 504 -353 q 546 -333 535 -338 q 566 -319 557 -328 q 589 -262 589 -298 q 484 -200 507 -262 q 476 -162 476 -182 q 484 -124 476 -142 q 505 -92 491 -106 q 580 -61 534 -61 q 692 -212 692 -61 q 634 -347 692 -295 q 532 -391 585 -391 z "},"":{"ha":814,"x_min":27,"x_max":796,"o":"m 441 555 q 261 453 356 555 l 261 151 q 330 43 261 66 q 380 34 352 37 l 379 0 l 30 0 q 29 7 29 2 l 29 30 q 30 37 29 33 q 103 60 87 50 q 135 125 135 81 l 135 493 q 27 550 119 524 l 29 573 l 214 619 l 256 622 l 263 512 q 416 618 321 591 q 484 628 448 628 q 636 573 581 628 q 695 406 690 519 q 697 317 697 362 l 697 166 q 718 67 697 87 q 748 51 729 56 q 795 37 767 46 q 796 30 796 33 l 796 22 l 795 7 l 795 0 l 461 0 q 460 18 460 7 l 460 34 q 490 43 473 39 q 524 54 507 47 q 567 101 561 70 q 570 153 570 120 l 570 304 q 556 477 570 438 q 516 535 542 516 q 441 555 490 555 m 356 -391 q 328 -366 328 -391 q 343 -345 328 -353 q 370 -333 359 -338 q 390 -319 381 -328 q 412 -262 412 -298 q 307 -200 331 -262 q 300 -162 300 -182 q 307 -124 300 -142 q 328 -92 315 -106 q 404 -61 358 -61 q 516 -212 516 -61 q 458 -347 516 -295 q 356 -391 408 -391 z "},"":{"ha":1169,"x_min":46,"x_max":1123,"o":"m 992 -6 q 920 -6 964 -18 q 809 121 860 66 l 273 684 l 273 208 q 309 77 273 102 q 378 52 338 58 q 439 36 419 46 q 437 0 439 18 l 54 0 q 53 11 53 5 l 53 37 q 110 51 81 45 q 161 70 138 58 q 219 162 213 97 l 219 740 q 142 812 188 790 q 98 829 121 822 q 46 848 74 836 l 46 883 l 283 883 l 921 223 l 921 650 q 907 752 921 712 q 878 804 894 792 q 843 823 863 817 q 803 833 824 829 q 764 847 783 838 q 766 883 764 865 l 1123 883 l 1123 846 q 1071 824 1093 833 q 1033 805 1048 814 q 1006 785 1017 796 q 990 757 996 774 q 978 558 980 726 q 977 283 977 391 q 984 116 977 176 q 992 -6 991 56 m 389 1205 q 414 1214 395 1214 q 550 1084 458 1191 q 586 1044 572 1059 q 620 1086 600 1061 q 660 1135 639 1110 q 741 1214 711 1195 q 766 1205 760 1214 q 695 1063 739 1139 q 635 957 651 987 q 542 943 583 943 q 429 1121 505 972 q 389 1205 404 1171 z "},"":{"ha":814,"x_min":27,"x_max":796,"o":"m 441 555 q 261 453 356 555 l 261 151 q 330 43 261 66 q 380 34 352 37 l 379 0 l 30 0 q 29 7 29 2 l 29 30 q 30 37 29 33 q 103 60 87 50 q 135 125 135 81 l 135 493 q 27 550 119 524 l 29 573 l 214 619 l 256 622 l 263 512 q 416 618 321 591 q 484 628 448 628 q 636 573 581 628 q 695 406 690 519 q 697 317 697 362 l 697 166 q 718 67 697 87 q 748 51 729 56 q 795 37 767 46 q 796 30 796 33 l 796 22 l 795 7 l 795 0 l 461 0 q 460 18 460 7 l 460 34 q 490 43 473 39 q 524 54 507 47 q 567 101 561 70 q 570 153 570 120 l 570 304 q 556 477 570 438 q 516 535 542 516 q 441 555 490 555 m 216 932 q 241 941 222 941 q 377 812 285 918 q 413 771 399 787 q 447 813 427 789 q 487 863 466 838 q 568 941 538 922 q 593 932 587 941 q 522 790 566 866 q 462 684 478 715 q 369 671 410 671 q 256 848 332 700 q 216 932 231 899 z "},"":{"ha":1048,"x_min":46,"x_max":1002,"o":"m 403 32 q 410 29 403 32 q 416 18 416 26 q 412 0 416 9 l 49 0 q 46 16 46 5 q 57 32 46 26 q 84 40 68 37 q 121 46 101 43 q 159 56 140 50 q 210 106 201 70 l 210 693 q 142 751 210 735 q 78 768 94 762 q 56 785 62 775 l 59 798 l 311 798 l 781 275 l 781 705 q 703 758 781 747 q 625 785 625 768 q 629 798 625 787 l 999 798 q 1002 786 1002 789 q 971 768 1002 773 q 919 759 940 763 q 879 749 897 755 q 836 696 836 732 l 836 79 q 788 -151 836 -77 q 689 -212 749 -212 q 613 -184 647 -212 q 580 -136 580 -159 q 594 -100 580 -114 q 632 -85 609 -85 q 671 -97 655 -85 q 688 -124 688 -109 q 697 -150 688 -139 q 718 -161 706 -161 q 743 -151 730 -161 q 768 -117 755 -142 q 795 54 795 -61 l 241 646 l 260 102 q 339 42 261 49 q 403 32 390 38 z "},"":{"ha":755,"x_min":27,"x_max":738,"o":"m 403 -134 q 454 -79 403 -79 q 507 -115 498 -79 q 518 -145 512 -139 q 536 -152 525 -152 q 559 -143 547 -152 q 581 -110 571 -134 q 605 56 605 -56 l 605 292 q 589 482 605 439 q 547 545 574 526 q 471 565 519 565 q 294 434 381 565 l 294 81 q 357 35 294 45 q 411 25 400 29 q 421 13 421 20 q 418 0 421 5 l 45 0 q 42 14 42 10 q 53 23 42 17 q 83 33 64 30 q 118 41 102 37 q 154 85 154 50 l 154 496 q 91 538 154 530 q 38 547 49 543 q 27 559 27 551 q 31 571 27 561 l 280 597 l 294 496 q 504 612 383 612 q 738 314 738 612 l 738 81 q 667 -141 738 -66 q 524 -201 610 -201 q 448 -186 475 -201 q 403 -134 403 -161 z "},"":{"ha":1087,"x_min":76,"x_max":1011,"o":"m 234 484 q 259 309 234 391 q 328 165 283 226 q 568 35 422 35 q 772 130 693 35 q 853 397 853 229 q 761 718 853 589 q 522 848 667 848 q 320 757 399 848 q 234 484 234 660 m 76 435 q 95 574 76 509 q 146 691 113 640 q 223 782 178 743 q 320 848 268 821 q 545 900 425 900 q 873 775 741 900 q 994 571 960 694 q 1011 423 1011 510 q 973 251 1011 336 q 869 107 935 167 q 532 -18 731 -18 q 215 102 346 -18 q 76 435 76 229 m 340 981 l 340 1068 l 748 1068 l 748 981 l 340 981 z "},"":{"ha":753,"x_min":56,"x_max":698,"o":"m 205 454 q 191 351 191 410 q 205 237 191 292 q 244 137 218 181 q 389 39 301 39 q 521 103 474 39 q 564 263 564 162 q 511 487 564 397 q 368 583 456 583 q 205 454 244 583 m 56 309 q 151 541 56 450 q 372 628 242 628 q 602 543 511 628 q 698 310 698 453 q 603 75 698 167 q 380 -14 513 -14 q 153 76 247 -14 q 56 309 56 169 m 172 708 l 172 795 l 581 795 l 581 708 l 172 708 z "},"":{"ha":1087,"x_min":76,"x_max":1011,"o":"m 234 484 q 259 309 234 391 q 328 165 283 226 q 568 35 422 35 q 772 130 693 35 q 853 397 853 229 q 761 718 853 589 q 522 848 667 848 q 320 757 399 848 q 234 484 234 660 m 76 435 q 95 574 76 509 q 146 691 113 640 q 223 782 178 743 q 320 848 268 821 q 545 900 425 900 q 873 775 741 900 q 994 571 960 694 q 1011 423 1011 510 q 973 251 1011 336 q 869 107 935 167 q 532 -18 731 -18 q 215 102 346 -18 q 76 435 76 229 m 429 1142 q 563 1063 464 1063 q 685 1142 663 1063 l 724 1142 q 680 1020 724 1065 q 556 975 636 975 q 434 1019 476 975 q 390 1142 392 1063 l 429 1142 z "},"":{"ha":753,"x_min":56,"x_max":698,"o":"m 205 454 q 191 351 191 410 q 205 237 191 292 q 244 137 218 181 q 389 39 301 39 q 521 103 474 39 q 564 263 564 162 q 511 487 564 397 q 368 583 456 583 q 205 454 244 583 m 56 309 q 151 541 56 450 q 372 628 242 628 q 602 543 511 628 q 698 310 698 453 q 603 75 698 167 q 380 -14 513 -14 q 153 76 247 -14 q 56 309 56 169 m 262 869 q 396 791 297 791 q 518 869 496 791 l 557 869 q 513 747 557 793 q 389 702 469 702 q 267 746 309 702 q 223 869 225 790 l 262 869 z "},"":{"ha":1087,"x_min":76,"x_max":1011,"o":"m 234 484 q 259 309 234 391 q 328 165 283 226 q 568 35 422 35 q 772 130 693 35 q 853 397 853 229 q 761 718 853 589 q 522 848 667 848 q 320 757 399 848 q 234 484 234 660 m 76 435 q 95 574 76 509 q 146 691 113 640 q 223 782 178 743 q 320 848 268 821 q 545 900 425 900 q 873 775 741 900 q 994 571 960 694 q 1011 423 1011 510 q 973 251 1011 336 q 869 107 935 167 q 532 -18 731 -18 q 215 102 346 -18 q 76 435 76 229 m 838 1200 q 757 1074 826 1170 q 654 938 665 947 q 631 949 638 938 q 662 1041 633 961 q 701 1150 690 1121 q 736 1228 728 1219 q 838 1200 783 1228 m 632 1199 q 543 1072 614 1162 q 433 938 446 948 q 412 947 418 938 q 460 1082 418 987 q 530 1228 517 1212 q 632 1199 583 1228 z "},"":{"ha":753,"x_min":56,"x_max":698,"o":"m 205 454 q 191 351 191 410 q 205 237 191 292 q 244 137 218 181 q 389 39 301 39 q 521 103 474 39 q 564 263 564 162 q 511 487 564 397 q 368 583 456 583 q 205 454 244 583 m 56 309 q 151 541 56 450 q 372 628 242 628 q 602 543 511 628 q 698 310 698 453 q 603 75 698 167 q 380 -14 513 -14 q 153 76 247 -14 q 56 309 56 169 m 671 927 q 590 802 659 897 q 488 665 498 674 q 465 676 471 665 q 495 768 467 688 q 534 878 523 848 q 569 956 562 947 q 671 927 616 956 m 465 926 q 376 800 447 890 q 267 665 279 675 q 245 675 252 665 q 293 809 252 714 q 363 956 351 939 q 465 926 416 956 z "},"":{"ha":1432,"x_min":76,"x_max":1385,"o":"m 536 54 q 738 68 711 54 q 734 820 738 374 q 506 830 659 830 q 309 738 383 830 q 235 487 235 645 q 305 195 235 319 q 536 54 387 54 m 793 810 l 797 487 q 1129 496 1036 487 q 1191 575 1166 505 q 1205 608 1198 593 q 1230 608 1219 608 q 1248 606 1240 608 l 1248 312 q 1205 310 1226 310 q 1190 345 1198 326 q 1173 380 1183 363 q 1124 426 1152 420 q 1044 435 1083 435 l 798 435 l 798 240 q 798 71 798 151 q 810 46 798 46 q 948 47 880 47 q 1067 47 1016 47 q 1255 87 1222 51 q 1300 154 1275 108 q 1345 218 1324 201 q 1368 218 1358 218 q 1385 217 1377 218 l 1350 -14 l 1335 -18 q 1321 -20 1329 -20 q 1304 -17 1314 -20 q 1284 -10 1294 -14 q 1242 -1 1257 -1 l 528 -1 q 197 129 322 -1 q 76 445 76 254 q 210 766 76 644 q 538 883 340 883 l 880 883 l 1067 882 q 1266 897 1191 882 q 1339 895 1298 897 l 1339 673 q 1304 671 1320 671 q 1279 710 1289 686 q 1259 756 1270 733 q 1232 798 1248 779 q 1188 821 1217 816 q 1121 829 1159 826 q 1040 833 1082 831 q 882 834 970 834 q 793 810 793 834 z "},"":{"ha":1095,"x_min":56,"x_max":1052,"o":"m 922 415 q 795 583 916 583 q 694 531 733 583 q 652 400 660 483 l 865 405 q 922 415 903 406 m 191 342 q 379 31 191 31 q 500 107 460 31 q 532 251 532 168 q 522 391 532 334 q 490 491 512 448 q 347 583 444 583 q 231 521 271 583 q 191 342 191 459 m 593 512 q 690 601 635 574 q 808 627 744 627 q 916 607 873 627 q 989 551 960 587 q 1052 359 1049 480 l 652 359 q 863 82 657 82 q 990 115 936 82 q 1025 139 1007 125 q 1046 124 1037 134 q 956 23 1028 64 q 822 -14 892 -14 q 593 104 673 -14 q 368 -14 507 -14 q 146 74 236 -14 q 56 306 56 164 q 138 528 56 434 q 365 628 228 628 q 593 512 502 628 z "},"":{"ha":956,"x_min":46,"x_max":977,"o":"m 977 -1 q 770 1 844 -34 q 627 125 692 39 q 535 263 576 193 q 477 359 494 334 q 452 395 460 384 q 433 414 443 406 q 374 429 415 426 l 332 431 l 332 170 q 345 86 332 104 q 372 64 359 68 q 401 56 385 59 q 478 35 450 48 l 477 0 l 47 0 l 46 35 q 106 56 75 51 q 150 65 138 60 q 170 82 161 69 q 186 188 186 108 l 186 702 q 174 784 186 765 q 152 809 163 802 q 125 821 140 816 q 90 832 109 826 q 46 848 70 838 l 47 884 l 360 884 q 548 876 488 884 q 656 855 608 869 q 743 817 705 842 q 827 658 827 762 q 747 503 827 564 q 580 439 680 453 q 641 354 610 397 q 703 267 672 311 q 808 126 777 164 q 854 77 840 89 q 884 56 867 64 q 977 37 921 37 l 977 -1 m 332 477 q 474 481 434 477 q 549 495 515 486 q 610 525 584 505 q 669 650 669 567 q 558 809 669 772 q 439 830 498 829 q 347 832 380 832 l 332 832 l 332 477 m 378 1016 q 362 1034 362 1016 q 376 1063 362 1044 q 417 1117 391 1082 q 471 1190 444 1153 q 557 1305 541 1283 q 606 1337 582 1337 q 656 1302 639 1337 q 661 1277 661 1292 q 641 1245 661 1263 q 586 1195 621 1227 q 517 1131 551 1163 q 415 1038 440 1061 q 378 1016 389 1016 z "},"":{"ha":542,"x_min":27,"x_max":528,"o":"m 134 490 q 27 546 115 522 l 28 570 l 209 621 l 248 621 l 258 496 q 382 618 315 599 q 429 625 406 625 q 470 618 452 625 q 500 600 488 611 q 528 550 528 577 q 517 509 528 529 q 472 469 496 469 q 435 480 447 469 q 414 504 422 491 q 396 528 405 517 q 369 538 387 538 q 336 529 351 538 q 308 503 321 519 q 283 468 295 488 q 260 429 272 448 l 260 177 q 266 92 260 114 q 286 62 272 71 q 318 49 300 54 q 357 42 337 45 q 393 34 378 39 l 393 13 l 393 0 l 29 0 q 28 8 28 3 l 28 32 q 29 37 28 35 q 72 47 52 43 q 104 61 91 52 q 134 146 134 81 l 134 490 m 144 743 q 129 761 129 743 q 143 790 129 771 q 184 845 157 809 q 238 917 211 880 q 324 1032 308 1010 q 372 1065 349 1065 q 422 1029 406 1065 q 427 1005 427 1019 q 407 972 427 990 q 353 922 387 954 q 284 859 318 890 q 181 766 207 788 q 144 743 156 743 z "},"":{"ha":956,"x_min":46,"x_max":977,"o":"m 977 -1 q 770 1 844 -34 q 627 125 692 39 q 535 263 576 193 q 477 359 494 334 q 452 395 460 384 q 433 414 443 406 q 374 429 415 426 l 332 431 l 332 170 q 345 86 332 104 q 372 64 359 68 q 401 56 385 59 q 478 35 450 48 l 477 0 l 47 0 l 46 35 q 106 56 75 51 q 150 65 138 60 q 170 82 161 69 q 186 188 186 108 l 186 702 q 174 784 186 765 q 152 809 163 802 q 125 821 140 816 q 90 832 109 826 q 46 848 70 838 l 47 884 l 360 884 q 548 876 488 884 q 656 855 608 869 q 743 817 705 842 q 827 658 827 762 q 747 503 827 564 q 580 439 680 453 q 641 354 610 397 q 703 267 672 311 q 808 126 777 164 q 854 77 840 89 q 884 56 867 64 q 977 37 921 37 l 977 -1 m 332 477 q 474 481 434 477 q 549 495 515 486 q 610 525 584 505 q 669 650 669 567 q 558 809 669 772 q 439 830 498 829 q 347 832 380 832 l 332 832 l 332 477 m 427 -391 q 399 -366 399 -391 q 414 -345 399 -353 q 441 -333 430 -338 q 461 -319 452 -328 q 484 -262 484 -298 q 378 -200 402 -262 q 371 -162 371 -182 q 378 -124 371 -142 q 399 -92 386 -106 q 475 -61 429 -61 q 587 -212 587 -61 q 529 -347 587 -295 q 427 -391 479 -391 z "},"":{"ha":542,"x_min":27,"x_max":528,"o":"m 134 490 q 27 546 115 522 l 28 570 l 209 621 l 248 621 l 258 496 q 382 618 315 599 q 429 625 406 625 q 470 618 452 625 q 500 600 488 611 q 528 550 528 577 q 517 509 528 529 q 472 469 496 469 q 435 480 447 469 q 414 504 422 491 q 396 528 405 517 q 369 538 387 538 q 336 529 351 538 q 308 503 321 519 q 283 468 295 488 q 260 429 272 448 l 260 177 q 266 92 260 114 q 286 62 272 71 q 318 49 300 54 q 357 42 337 45 q 393 34 378 39 l 393 13 l 393 0 l 29 0 q 28 8 28 3 l 28 32 q 29 37 28 35 q 72 47 52 43 q 104 61 91 52 q 134 146 134 81 l 134 490 m 213 -391 q 184 -366 184 -391 q 200 -345 184 -353 q 227 -333 216 -338 q 247 -319 238 -328 q 269 -262 269 -298 q 164 -200 188 -262 q 157 -162 157 -182 q 164 -124 157 -142 q 185 -92 172 -106 q 260 -61 215 -61 q 373 -212 373 -61 q 315 -347 373 -295 q 213 -391 265 -391 z "},"":{"ha":956,"x_min":46,"x_max":977,"o":"m 977 -1 q 770 1 844 -34 q 627 125 692 39 q 535 263 576 193 q 477 359 494 334 q 452 395 460 384 q 433 414 443 406 q 374 429 415 426 l 332 431 l 332 170 q 345 86 332 104 q 372 64 359 68 q 401 56 385 59 q 478 35 450 48 l 477 0 l 47 0 l 46 35 q 106 56 75 51 q 150 65 138 60 q 170 82 161 69 q 186 188 186 108 l 186 702 q 174 784 186 765 q 152 809 163 802 q 125 821 140 816 q 90 832 109 826 q 46 848 70 838 l 47 884 l 360 884 q 548 876 488 884 q 656 855 608 869 q 743 817 705 842 q 827 658 827 762 q 747 503 827 564 q 580 439 680 453 q 641 354 610 397 q 703 267 672 311 q 808 126 777 164 q 854 77 840 89 q 884 56 867 64 q 977 37 921 37 l 977 -1 m 332 477 q 474 481 434 477 q 549 495 515 486 q 610 525 584 505 q 669 650 669 567 q 558 809 669 772 q 439 830 498 829 q 347 832 380 832 l 332 832 l 332 477 m 316 1205 q 340 1214 321 1214 q 477 1084 385 1191 q 513 1044 498 1059 q 546 1086 527 1061 q 587 1135 566 1110 q 668 1214 637 1195 q 692 1205 687 1214 q 622 1063 666 1139 q 562 957 578 987 q 469 943 510 943 q 356 1121 432 972 q 316 1205 330 1171 z "},"":{"ha":542,"x_min":27,"x_max":528,"o":"m 134 490 q 27 546 115 522 l 28 570 l 209 621 l 248 621 l 258 496 q 382 618 315 599 q 429 625 406 625 q 470 618 452 625 q 500 600 488 611 q 528 550 528 577 q 517 509 528 529 q 472 469 496 469 q 435 480 447 469 q 414 504 422 491 q 396 528 405 517 q 369 538 387 538 q 336 529 351 538 q 308 503 321 519 q 283 468 295 488 q 260 429 272 448 l 260 177 q 266 92 260 114 q 286 62 272 71 q 318 49 300 54 q 357 42 337 45 q 393 34 378 39 l 393 13 l 393 0 l 29 0 q 28 8 28 3 l 28 32 q 29 37 28 35 q 72 47 52 43 q 104 61 91 52 q 134 146 134 81 l 134 490 m 83 932 q 107 941 88 941 q 243 812 151 918 q 279 771 265 787 q 313 813 294 789 q 353 863 332 838 q 435 941 404 922 q 459 932 454 941 q 389 790 433 866 q 328 684 345 715 q 235 671 277 671 q 123 848 199 700 q 83 932 97 899 z "},"":{"ha":774,"x_min":82,"x_max":707,"o":"m 82 271 l 122 273 q 137 238 132 256 q 151 190 142 220 q 184 130 160 161 q 240 80 208 100 q 390 39 305 39 q 514 74 463 39 q 574 182 574 114 q 422 352 574 266 q 334 402 379 376 q 246 455 289 427 q 169 515 203 482 q 94 672 94 587 q 193 849 94 788 q 399 900 277 900 q 657 837 534 900 l 666 644 l 624 644 q 610 677 615 660 q 595 721 604 695 q 565 773 586 747 q 515 815 543 798 q 388 848 461 848 q 290 826 326 848 q 237 783 253 805 q 220 728 220 760 q 241 669 220 696 q 296 615 262 641 q 374 566 330 590 q 464 515 418 541 q 553 461 509 490 q 631 399 597 433 q 707 233 707 323 q 602 41 707 108 q 381 -18 513 -18 q 147 22 259 -18 q 82 52 110 35 l 82 271 m 260 1016 q 244 1034 244 1016 q 258 1063 244 1044 q 299 1117 273 1082 q 353 1190 326 1153 q 439 1305 423 1283 q 488 1337 464 1337 q 538 1302 521 1337 q 543 1277 543 1292 q 523 1245 543 1263 q 468 1195 503 1227 q 399 1131 433 1163 q 297 1038 322 1061 q 260 1016 271 1016 z "},"":{"ha":579,"x_min":79,"x_max":512,"o":"m 90 201 q 125 204 115 204 q 225 47 149 86 q 283 34 253 34 q 335 40 314 34 q 372 58 356 47 q 405 118 405 83 q 387 173 405 153 q 339 212 370 193 q 269 251 309 231 q 182 300 229 271 q 79 464 79 364 q 138 586 79 542 q 280 628 193 628 q 465 578 384 628 l 469 428 q 453 427 461 427 l 437 427 q 276 583 392 583 q 209 562 235 583 q 184 508 184 542 q 201 452 184 473 q 245 413 218 431 q 303 379 271 395 q 369 346 336 363 q 430 308 402 328 q 475 266 457 288 q 512 169 512 221 q 496 85 512 117 q 450 30 479 52 q 296 -14 393 -14 q 90 35 167 -14 l 90 201 m 163 743 q 147 761 147 743 q 161 790 147 771 q 202 845 176 809 q 256 917 229 880 q 342 1032 326 1010 q 391 1065 367 1065 q 441 1029 424 1065 q 446 1005 446 1019 q 426 972 446 990 q 371 922 406 954 q 302 859 336 890 q 200 766 225 788 q 163 743 174 743 z "},"":{"ha":774,"x_min":82,"x_max":707,"o":"m 82 271 l 122 273 q 137 238 132 256 q 151 190 142 220 q 184 130 160 161 q 240 80 208 100 q 390 39 305 39 q 514 74 463 39 q 574 182 574 114 q 422 352 574 266 q 334 402 379 376 q 246 455 289 427 q 169 515 203 482 q 94 672 94 587 q 193 849 94 788 q 399 900 277 900 q 657 837 534 900 l 666 644 l 624 644 q 610 677 615 660 q 595 721 604 695 q 565 773 586 747 q 515 815 543 798 q 388 848 461 848 q 290 826 326 848 q 237 783 253 805 q 220 728 220 760 q 241 669 220 696 q 296 615 262 641 q 374 566 330 590 q 464 515 418 541 q 553 461 509 490 q 631 399 597 433 q 707 233 707 323 q 602 41 707 108 q 381 -18 513 -18 q 147 22 259 -18 q 82 52 110 35 l 82 271 m 401 -182 q 298 -111 401 -118 l 330 7 l 386 7 l 402 -64 q 505 -133 483 -75 q 511 -173 511 -150 q 499 -218 511 -195 q 465 -256 486 -240 q 355 -288 419 -288 q 262 -267 311 -288 l 271 -228 q 327 -241 297 -241 q 379 -225 357 -241 q 401 -182 401 -208 z "},"":{"ha":579,"x_min":79,"x_max":512,"o":"m 90 201 q 125 204 115 204 q 225 47 149 86 q 283 34 253 34 q 335 40 314 34 q 372 58 356 47 q 405 118 405 83 q 387 173 405 153 q 339 212 370 193 q 269 251 309 231 q 182 300 229 271 q 79 464 79 364 q 138 586 79 542 q 280 628 193 628 q 465 578 384 628 l 469 428 q 453 427 461 427 l 437 427 q 276 583 392 583 q 209 562 235 583 q 184 508 184 542 q 201 452 184 473 q 245 413 218 431 q 303 379 271 395 q 369 346 336 363 q 430 308 402 328 q 475 266 457 288 q 512 169 512 221 q 496 85 512 117 q 450 30 479 52 q 296 -14 393 -14 q 90 35 167 -14 l 90 201 m 305 -182 q 202 -111 305 -118 l 234 7 l 290 7 l 307 -64 q 410 -133 387 -75 q 416 -173 416 -150 q 403 -218 416 -195 q 369 -256 391 -240 q 259 -288 323 -288 q 167 -267 216 -288 l 176 -228 q 232 -241 201 -241 q 283 -225 262 -241 q 305 -182 305 -208 z "},"":{"ha":774,"x_min":82,"x_max":707,"o":"m 82 271 l 122 273 q 137 238 132 256 q 151 190 142 220 q 184 130 160 161 q 240 80 208 100 q 390 39 305 39 q 514 74 463 39 q 574 182 574 114 q 422 352 574 266 q 334 402 379 376 q 246 455 289 427 q 169 515 203 482 q 94 672 94 587 q 193 849 94 788 q 399 900 277 900 q 657 837 534 900 l 666 644 l 624 644 q 610 677 615 660 q 595 721 604 695 q 565 773 586 747 q 515 815 543 798 q 388 848 461 848 q 290 826 326 848 q 237 783 253 805 q 220 728 220 760 q 241 669 220 696 q 296 615 262 641 q 374 566 330 590 q 464 515 418 541 q 553 461 509 490 q 631 399 597 433 q 707 233 707 323 q 602 41 707 108 q 381 -18 513 -18 q 147 22 259 -18 q 82 52 110 35 l 82 271 m 198 1205 q 222 1214 203 1214 q 359 1084 267 1191 q 395 1044 380 1059 q 428 1086 409 1061 q 469 1135 448 1110 q 550 1214 519 1195 q 574 1205 569 1214 q 504 1063 548 1139 q 444 957 460 987 q 351 943 392 943 q 238 1121 314 972 q 198 1205 212 1171 z "},"":{"ha":579,"x_min":79,"x_max":512,"o":"m 90 201 q 125 204 115 204 q 225 47 149 86 q 283 34 253 34 q 335 40 314 34 q 372 58 356 47 q 405 118 405 83 q 387 173 405 153 q 339 212 370 193 q 269 251 309 231 q 182 300 229 271 q 79 464 79 364 q 138 586 79 542 q 280 628 193 628 q 465 578 384 628 l 469 428 q 453 427 461 427 l 437 427 q 276 583 392 583 q 209 562 235 583 q 184 508 184 542 q 201 452 184 473 q 245 413 218 431 q 303 379 271 395 q 369 346 336 363 q 430 308 402 328 q 475 266 457 288 q 512 169 512 221 q 496 85 512 117 q 450 30 479 52 q 296 -14 393 -14 q 90 35 167 -14 l 90 201 m 101 932 q 125 941 106 941 q 262 812 170 918 q 298 771 283 787 q 331 813 312 789 q 372 863 351 838 q 453 941 422 922 q 477 932 472 941 q 407 790 451 866 q 347 684 363 715 q 254 671 295 671 q 141 848 217 700 q 101 932 115 899 z "},"":{"ha":946,"x_min":23,"x_max":926,"o":"m 647 833 l 556 833 l 543 833 l 543 163 q 585 62 543 89 q 696 35 613 45 l 696 11 q 695 0 696 5 l 246 0 l 245 35 q 299 52 272 45 q 349 72 327 60 q 397 163 397 99 l 397 833 l 298 833 q 205 828 237 833 q 152 805 172 823 q 116 762 132 786 q 84 711 99 737 q 54 666 70 685 l 23 666 l 40 887 q 500 880 213 880 q 904 888 787 880 l 926 665 l 893 665 q 864 710 878 684 q 833 761 850 736 q 752 827 794 821 q 647 833 713 833 m 421 -391 q 393 -366 393 -391 q 408 -345 393 -353 q 435 -333 424 -338 q 455 -319 446 -328 q 477 -262 477 -298 q 372 -200 396 -262 q 365 -162 365 -182 q 372 -124 365 -142 q 393 -92 380 -106 q 469 -61 423 -61 q 581 -212 581 -61 q 523 -347 581 -295 q 421 -391 473 -391 z "},"":{"ha":454,"x_min":25,"x_max":443,"o":"m 236 779 q 252 753 252 779 l 252 610 l 422 610 l 422 553 l 253 553 l 253 213 q 263 94 253 115 q 292 65 274 73 q 351 58 310 58 q 437 73 393 58 l 443 24 q 305 -14 370 -14 q 208 -2 239 -14 q 159 37 176 10 q 126 215 126 85 l 126 553 l 25 553 l 25 583 q 171 698 115 619 q 202 744 187 721 q 223 773 216 767 q 236 779 229 779 m 176 -391 q 148 -366 148 -391 q 163 -345 148 -353 q 190 -333 179 -338 q 210 -319 201 -328 q 233 -262 233 -298 q 127 -200 151 -262 q 120 -162 120 -182 q 127 -124 120 -142 q 149 -92 135 -106 q 224 -61 178 -61 q 336 -212 336 -61 q 278 -347 336 -295 q 176 -391 229 -391 z "},"":{"ha":946,"x_min":23,"x_max":926,"o":"m 647 833 l 556 833 l 543 833 l 543 163 q 585 62 543 89 q 696 35 613 45 l 696 11 q 695 0 696 5 l 246 0 l 245 35 q 299 52 272 45 q 349 72 327 60 q 397 163 397 99 l 397 833 l 298 833 q 205 828 237 833 q 152 805 172 823 q 116 762 132 786 q 84 711 99 737 q 54 666 70 685 l 23 666 l 40 887 q 500 880 213 880 q 904 888 787 880 l 926 665 l 893 665 q 864 710 878 684 q 833 761 850 736 q 752 827 794 821 q 647 833 713 833 m 277 1206 q 302 1215 283 1215 q 438 1085 346 1192 q 474 1044 460 1060 q 508 1086 488 1062 q 548 1136 527 1111 q 629 1215 599 1196 q 654 1206 648 1215 q 583 1064 627 1139 q 523 958 539 988 q 430 944 471 944 q 317 1122 393 973 q 277 1206 292 1172 z "},"":{"ha":823,"x_min":25,"x_max":751,"o":"m 236 779 q 252 753 252 779 l 252 610 l 422 610 l 422 553 l 253 553 l 253 213 q 263 94 253 115 q 292 65 274 73 q 351 58 310 58 q 437 73 393 58 l 443 24 q 305 -14 370 -14 q 208 -2 239 -14 q 159 37 176 10 q 126 215 126 85 l 126 553 l 25 553 l 25 583 q 171 698 115 619 q 202 744 187 721 q 223 773 216 767 q 236 779 229 779 m 566 538 q 542 576 547 555 q 585 600 564 589 q 624 624 607 610 q 663 701 663 654 q 605 736 643 730 q 534 813 534 748 q 590 894 534 872 q 631 901 607 901 q 679 890 656 901 q 718 862 701 880 q 751 774 751 823 q 739 688 751 725 q 703 621 726 652 q 566 538 650 553 z "},"":{"ha":800,"x_min":27,"x_max":777,"o":"m 664 800 l 727 809 l 746 809 l 777 591 q 766 589 772 589 q 754 595 760 589 q 745 612 749 602 q 728 656 735 633 q 714 697 721 680 q 699 727 707 715 q 650 754 681 753 l 465 760 l 465 474 l 602 474 l 602 425 l 465 425 l 465 84 q 544 37 465 43 q 610 27 596 33 q 623 12 623 22 q 621 0 623 7 l 166 0 q 163 14 163 5 q 175 28 163 24 q 204 34 186 33 q 241 37 221 36 q 278 43 261 39 q 319 88 319 54 l 319 425 l 174 425 l 174 474 l 319 474 l 319 760 l 162 754 q 94 696 119 752 q 80 662 86 678 q 70 633 75 646 q 60 612 65 621 q 39 589 48 589 q 27 591 35 589 l 50 806 l 74 808 q 113 803 95 808 q 153 795 130 799 l 664 800 z "},"":{"ha":445,"x_min":19,"x_max":444,"o":"m 237 779 q 252 753 252 779 l 252 610 l 422 610 l 422 553 l 254 553 l 254 359 l 427 359 l 427 273 l 254 273 l 254 213 q 264 94 254 115 q 293 65 275 73 q 352 58 311 58 q 438 73 393 58 l 444 24 q 302 -14 363 -14 q 209 -2 240 -14 q 159 37 177 10 q 127 215 127 85 l 127 273 l 19 273 l 19 359 l 127 359 l 127 553 l 26 553 l 26 583 q 182 713 122 621 q 225 775 220 772 q 237 779 231 779 z "},"":{"ha":1112,"x_min":18,"x_max":1102,"o":"m 162 450 l 165 694 q 160 769 165 745 q 137 805 154 793 q 100 825 121 817 q 56 837 79 832 q 18 848 34 842 l 20 883 l 467 883 l 469 848 q 417 833 440 838 q 377 824 395 828 q 348 813 360 820 q 327 793 335 807 q 311 694 311 768 l 311 404 q 372 155 311 240 q 602 56 444 56 q 893 416 893 56 l 893 682 q 882 779 893 757 q 859 808 871 800 q 829 822 847 817 q 788 833 812 827 q 735 848 765 838 l 735 883 l 1101 883 l 1102 848 q 1064 836 1086 839 q 1021 827 1042 832 q 960 780 970 816 q 949 693 949 743 l 951 484 q 933 256 951 329 q 888 136 914 182 q 818 54 861 89 q 557 -18 725 -18 q 301 51 404 -18 q 170 272 186 128 q 162 450 162 339 m 351 981 l 351 1068 l 760 1068 l 760 981 l 351 981 z "},"":{"ha":808,"x_min":18,"x_max":787,"o":"m 376 66 q 553 149 471 66 l 553 436 q 548 507 553 478 q 435 562 540 551 l 435 595 l 680 613 l 680 136 q 747 65 680 81 q 787 58 766 61 l 785 22 l 562 -10 l 557 98 q 332 -14 456 -14 q 137 177 162 -14 q 130 291 130 232 l 130 437 q 110 530 130 513 q 18 562 79 555 l 18 595 l 256 613 l 256 298 q 282 119 256 170 q 376 66 309 66 m 199 708 l 199 795 l 608 795 l 608 708 l 199 708 z "},"":{"ha":1112,"x_min":18,"x_max":1102,"o":"m 162 450 l 165 694 q 160 769 165 745 q 137 805 154 793 q 100 825 121 817 q 56 837 79 832 q 18 848 34 842 l 20 883 l 467 883 l 469 848 q 417 833 440 838 q 377 824 395 828 q 348 813 360 820 q 327 793 335 807 q 311 694 311 768 l 311 404 q 372 155 311 240 q 602 56 444 56 q 893 416 893 56 l 893 682 q 882 779 893 757 q 859 808 871 800 q 829 822 847 817 q 788 833 812 827 q 735 848 765 838 l 735 883 l 1101 883 l 1102 848 q 1064 836 1086 839 q 1021 827 1042 832 q 960 780 970 816 q 949 693 949 743 l 951 484 q 933 256 951 329 q 888 136 914 182 q 818 54 861 89 q 557 -18 725 -18 q 301 51 404 -18 q 170 272 186 128 q 162 450 162 339 m 445 1142 q 579 1063 480 1063 q 701 1142 679 1063 l 741 1142 q 696 1020 741 1065 q 572 975 652 975 q 450 1019 492 975 q 406 1142 408 1063 l 445 1142 z "},"":{"ha":808,"x_min":18,"x_max":787,"o":"m 376 66 q 553 149 471 66 l 553 436 q 548 507 553 478 q 435 562 540 551 l 435 595 l 680 613 l 680 136 q 747 65 680 81 q 787 58 766 61 l 785 22 l 562 -10 l 557 98 q 332 -14 456 -14 q 137 177 162 -14 q 130 291 130 232 l 130 437 q 110 530 130 513 q 18 562 79 555 l 18 595 l 256 613 l 256 298 q 282 119 256 170 q 376 66 309 66 m 288 869 q 422 791 323 791 q 544 869 522 791 l 583 869 q 539 747 583 793 q 415 702 495 702 q 293 746 335 702 q 249 869 251 790 l 288 869 z "},"":{"ha":1112,"x_min":18,"x_max":1102,"o":"m 162 450 l 165 694 q 160 769 165 745 q 137 805 154 793 q 100 825 121 817 q 56 837 79 832 q 18 848 34 842 l 20 883 l 467 883 l 469 848 q 417 833 440 838 q 377 824 395 828 q 348 813 360 820 q 327 793 335 807 q 311 694 311 768 l 311 404 q 372 155 311 240 q 602 56 444 56 q 893 416 893 56 l 893 682 q 882 779 893 757 q 859 808 871 800 q 829 822 847 817 q 788 833 812 827 q 735 848 765 838 l 735 883 l 1101 883 l 1102 848 q 1064 836 1086 839 q 1021 827 1042 832 q 960 780 970 816 q 949 693 949 743 l 951 484 q 933 256 951 329 q 888 136 914 182 q 818 54 861 89 q 557 -18 725 -18 q 301 51 404 -18 q 170 272 186 128 q 162 450 162 339 m 624 1205 q 615 1214 624 1205 q 591 1230 606 1223 q 559 1236 576 1236 q 527 1230 542 1236 q 502 1213 513 1223 q 479 1156 479 1188 q 496 1105 479 1122 q 551 1076 526 1076 q 591 1082 576 1076 q 617 1100 606 1088 q 641 1156 641 1124 q 624 1205 641 1187 m 559 1286 q 653 1247 614 1286 q 692 1156 692 1210 q 653 1065 692 1103 q 559 1025 614 1025 q 466 1064 504 1025 q 427 1156 427 1102 q 466 1247 427 1210 q 559 1286 505 1286 z "},"":{"ha":808,"x_min":18,"x_max":787,"o":"m 376 66 q 553 149 471 66 l 553 436 q 548 507 553 478 q 435 562 540 551 l 435 595 l 680 613 l 680 136 q 747 65 680 81 q 787 58 766 61 l 785 22 l 562 -10 l 557 98 q 332 -14 456 -14 q 137 177 162 -14 q 130 291 130 232 l 130 437 q 110 530 130 513 q 18 562 79 555 l 18 595 l 256 613 l 256 298 q 282 119 256 170 q 376 66 309 66 m 466 933 q 458 942 466 933 q 434 957 449 951 q 402 964 419 964 q 370 957 385 964 q 345 940 355 951 q 321 884 321 916 q 338 833 321 850 q 394 803 368 803 q 434 809 419 803 q 460 827 449 816 q 484 884 484 852 q 466 933 484 915 m 402 1013 q 496 975 456 1013 q 534 884 534 937 q 496 792 534 830 q 402 753 457 753 q 308 791 347 753 q 270 884 270 829 q 309 975 270 937 q 402 1013 348 1013 z "},"":{"ha":1112,"x_min":18,"x_max":1102,"o":"m 162 450 l 165 694 q 160 769 165 745 q 137 805 154 793 q 100 825 121 817 q 56 837 79 832 q 18 848 34 842 l 20 883 l 467 883 l 469 848 q 417 833 440 838 q 377 824 395 828 q 348 813 360 820 q 327 793 335 807 q 311 694 311 768 l 311 404 q 372 155 311 240 q 602 56 444 56 q 893 416 893 56 l 893 682 q 882 779 893 757 q 859 808 871 800 q 829 822 847 817 q 788 833 812 827 q 735 848 765 838 l 735 883 l 1101 883 l 1102 848 q 1064 836 1086 839 q 1021 827 1042 832 q 960 780 970 816 q 949 693 949 743 l 951 484 q 933 256 951 329 q 888 136 914 182 q 818 54 861 89 q 557 -18 725 -18 q 301 51 404 -18 q 170 272 186 128 q 162 450 162 339 m 854 1200 q 773 1074 842 1170 q 671 938 682 947 q 648 949 654 938 q 678 1041 650 961 q 718 1150 706 1121 q 752 1228 745 1219 q 854 1200 799 1228 m 648 1199 q 559 1072 630 1162 q 450 938 463 948 q 428 947 435 938 q 476 1082 435 987 q 546 1228 534 1212 q 648 1199 599 1228 z "},"":{"ha":808,"x_min":18,"x_max":787,"o":"m 376 66 q 553 149 471 66 l 553 436 q 548 507 553 478 q 435 562 540 551 l 435 595 l 680 613 l 680 136 q 747 65 680 81 q 787 58 766 61 l 785 22 l 562 -10 l 557 98 q 332 -14 456 -14 q 137 177 162 -14 q 130 291 130 232 l 130 437 q 110 530 130 513 q 18 562 79 555 l 18 595 l 256 613 l 256 298 q 282 119 256 170 q 376 66 309 66 m 697 927 q 616 802 685 897 q 513 665 524 674 q 490 676 497 665 q 520 768 492 688 q 560 878 549 848 q 595 956 587 947 q 697 927 642 956 m 491 926 q 402 800 473 890 q 292 665 305 675 q 271 675 277 665 q 319 809 277 714 q 389 956 376 939 q 491 926 441 956 z "},"":{"ha":1112,"x_min":18,"x_max":1102,"o":"m 162 450 l 165 694 q 160 769 165 745 q 137 805 154 793 q 100 825 121 817 q 56 837 79 832 q 18 848 34 842 l 20 883 l 467 883 l 469 848 q 417 833 440 838 q 377 824 395 828 q 348 813 360 820 q 327 793 335 807 q 311 694 311 768 l 311 404 q 372 155 311 240 q 602 56 444 56 q 893 416 893 56 l 893 682 q 882 779 893 757 q 859 808 871 800 q 829 822 847 817 q 788 833 812 827 q 735 848 765 838 l 735 883 l 1101 883 l 1102 848 q 1064 836 1086 839 q 1021 827 1042 832 q 960 780 970 816 q 949 693 949 743 l 951 484 q 933 256 951 329 q 888 136 914 182 q 818 54 861 89 q 557 -18 725 -18 q 301 51 404 -18 q 170 272 186 128 q 162 450 162 339 m 1102 -213 q 972 -252 1033 -252 q 872 -220 913 -252 q 828 -127 828 -186 q 869 -29 828 -68 q 966 16 904 3 q 954 -13 962 -1 q 938 -37 946 -25 q 918 -98 918 -68 q 981 -174 918 -156 q 1024 -179 999 -179 q 1095 -159 1048 -179 l 1102 -213 z "},"":{"ha":808,"x_min":18,"x_max":787,"o":"m 376 66 q 553 149 471 66 l 553 436 q 548 507 553 478 q 435 562 540 551 l 435 595 l 680 613 l 680 136 q 747 65 680 81 q 787 58 766 61 l 785 22 l 562 -10 l 557 98 q 332 -14 456 -14 q 137 177 162 -14 q 130 291 130 232 l 130 437 q 110 530 130 513 q 18 562 79 555 l 18 595 l 256 613 l 256 298 q 282 119 256 170 q 376 66 309 66 m 787 -213 q 656 -252 718 -252 q 557 -220 597 -252 q 513 -127 513 -186 q 554 -29 513 -68 q 651 16 589 3 q 639 -13 647 -1 q 623 -37 631 -25 q 602 -98 602 -68 q 665 -174 602 -156 q 708 -179 684 -179 q 779 -159 733 -179 l 787 -213 z "},"":{"ha":902,"x_min":-1,"x_max":909,"o":"m 568 863 q 569 883 568 872 l 909 883 l 909 848 q 817 805 839 819 q 748 736 775 777 l 526 395 l 526 167 q 539 85 526 102 q 567 64 553 68 q 596 57 580 60 q 673 35 648 47 l 671 0 l 233 0 l 232 35 q 291 54 258 50 q 337 63 323 59 q 360 79 351 67 q 380 172 380 102 l 380 381 l 132 769 q 33 837 108 807 q -1 848 13 845 l -1 883 l 419 883 l 420 848 q 323 805 353 838 q 311 778 311 792 q 323 739 311 764 q 355 683 336 715 q 397 616 374 652 q 441 548 420 581 q 480 490 463 516 q 505 452 497 465 q 524 481 509 460 q 558 533 539 503 q 600 597 578 563 q 639 665 621 632 q 681 767 681 743 q 668 803 681 791 q 638 823 656 815 q 601 836 621 831 q 569 845 582 841 l 568 863 m 252 1133 q 257 1138 252 1133 q 275 1149 262 1143 q 304 1155 289 1155 q 333 1149 319 1155 q 357 1133 347 1143 q 378 1088 378 1112 q 373 1052 378 1065 q 357 1028 367 1038 q 312 1007 334 1007 q 275 1013 289 1007 q 252 1028 262 1019 q 231 1073 231 1050 q 236 1109 231 1096 q 252 1133 242 1123 m 602 1155 q 649 1139 633 1155 q 677 1088 677 1112 q 671 1052 677 1065 q 655 1028 665 1038 q 602 1007 633 1007 q 556 1023 572 1007 q 529 1073 529 1050 q 535 1109 529 1096 q 550 1133 541 1123 q 602 1155 571 1155 z "},"":{"ha":871,"x_min":57,"x_max":821,"o":"m 252 60 q 313 50 284 50 l 408 50 q 646 71 593 50 q 688 101 674 82 q 713 143 701 120 q 783 243 747 207 l 821 242 l 780 -7 l 752 -7 l 654 0 l 60 0 l 57 29 l 623 831 l 354 831 q 260 822 285 831 q 181 754 210 806 q 155 706 168 730 q 127 659 142 682 q 91 661 109 659 l 109 886 l 131 886 l 800 883 q 808 863 808 879 l 808 844 l 302 134 q 252 60 270 90 m 298 1016 q 282 1034 282 1016 q 296 1063 282 1044 q 337 1117 311 1082 q 391 1190 364 1153 q 477 1305 461 1283 q 526 1337 502 1337 q 576 1302 559 1337 q 581 1277 581 1292 q 561 1245 581 1263 q 506 1195 541 1227 q 437 1131 471 1163 q 335 1038 360 1061 q 298 1016 309 1016 z "},"":{"ha":644,"x_min":55,"x_max":604,"o":"m 555 610 q 566 609 560 609 q 593 607 572 609 l 593 570 l 223 41 l 355 41 q 471 58 415 41 q 528 118 500 68 q 548 157 538 138 q 570 189 557 177 q 587 189 578 189 q 604 188 595 188 l 585 -7 l 477 0 l 64 0 l 55 22 l 446 568 l 332 568 q 247 562 272 568 q 176 514 211 558 q 148 478 161 496 q 119 449 135 460 l 88 450 l 102 627 q 216 610 149 610 l 555 610 m 196 743 q 180 761 180 743 q 195 790 180 771 q 236 845 209 809 q 290 917 262 880 q 376 1032 359 1010 q 424 1065 400 1065 q 474 1029 457 1065 q 479 1005 479 1019 q 459 972 479 990 q 404 922 439 954 q 336 859 370 890 q 233 766 258 788 q 196 743 208 743 z "},"":{"ha":871,"x_min":57,"x_max":821,"o":"m 252 60 q 313 50 284 50 l 408 50 q 646 71 593 50 q 688 101 674 82 q 713 143 701 120 q 783 243 747 207 l 821 242 l 780 -7 l 752 -7 l 654 0 l 60 0 l 57 29 l 623 831 l 354 831 q 260 822 285 831 q 181 754 210 806 q 155 706 168 730 q 127 659 142 682 q 91 661 109 659 l 109 886 l 131 886 l 800 883 q 808 863 808 879 l 808 844 l 302 134 q 252 60 270 90 m 432 1137 q 479 1121 463 1137 q 507 1071 507 1094 q 501 1034 507 1048 q 485 1011 495 1021 q 432 989 463 989 q 386 1005 402 989 q 358 1055 358 1031 q 364 1092 358 1078 q 380 1116 370 1105 q 432 1137 401 1137 z "},"":{"ha":644,"x_min":55,"x_max":604,"o":"m 555 610 q 566 609 560 609 q 593 607 572 609 l 593 570 l 223 41 l 355 41 q 471 58 415 41 q 528 118 500 68 q 548 157 538 138 q 570 189 557 177 q 587 189 578 189 q 604 188 595 188 l 585 -7 l 477 0 l 64 0 l 55 22 l 446 568 l 332 568 q 247 562 272 568 q 176 514 211 558 q 148 478 161 496 q 119 449 135 460 l 88 450 l 102 627 q 216 610 149 610 l 555 610 m 333 864 q 380 848 364 864 q 408 798 408 821 q 402 761 408 774 q 386 738 396 747 q 333 716 363 716 q 287 732 303 716 q 259 782 259 758 q 265 819 259 805 q 281 842 271 832 q 333 864 302 864 z "}}}
